{
.appVersion = "983";
DisplayStrings = (
"A \U00C6 D /DZ  /Dz  I /IJ  /LJ  /Lj  /Eng  O /OE  \U00DE",
"a \U00E6 e o \U00F0 /dz  e /schwa  /ij  i /lj  /eng  n /nj  /oe  p \U00FE d \U00DF ",
"adhesionclyg ADHEFSIONBCL\012HHSHH OOSOO",
"r/florin f"
);
classes = (
{
automatic = 1;

glyphs = (
{
glyphname = A;
lastChange = "2017-08-04 20:39:26 +0000";
layers = (
{
anchors = (
{
name = bottom;
position = "{620, 0}";
},
{
name = ogonek;
position = "{1116, 10}";
},
{
name = top;
position = "{630, 1171}";
}
);
layerId = "840BD324-B0A6-42B0-BD23-CB5E8C19394F";
paths = (
{
closed = 1;
nodes = (
"646 1074 LINE",
"983 86 LINE",
"796 86 LINE SMOOTH",
"763 86 OFFCURVE",
"747 65 OFFCURVE",
"747 44 CURVE SMOOTH",
"747 22 OFFCURVE",
"764 0 OFFCURVE",
"798 0 CURVE SMOOTH",
"1164 0 LINE SMOOTH",
"1197 0 OFFCURVE",
"1214 22 OFFCURVE",
"1214 44 CURVE SMOOTH",
"1214 65 OFFCURVE",
"1198 86 OFFCURVE",
"1166 86 CURVE SMOOTH",
"1085 86 LINE",
"725 1106 LINE SMOOTH",
"713 1140 OFFCURVE",
"690 1171 OFFCURVE",
"644 1171 CURVE SMOOTH",
"341 1171 LINE SMOOTH",
"308 1171 OFFCURVE",
"292 1149 OFFCURVE",
"292 1128 CURVE SMOOTH",
"292 1106 OFFCURVE",
"309 1085 OFFCURVE",
"342 1085 CURVE SMOOTH",
"559 1085 LINE",
"176 86 LINE",
"89 86 LINE SMOOTH",
"56 86 OFFCURVE",
"40 64 OFFCURVE",
"40 43 CURVE SMOOTH",
"40 21 OFFCURVE",
"57 0 OFFCURVE",
"90 0 CURVE SMOOTH",
"438 0 LINE SMOOTH",
"472 0 OFFCURVE",
"489 21 OFFCURVE",
"489 43 CURVE SMOOTH",
"489 64 OFFCURVE",
"472 86 OFFCURVE",
"439 86 CURVE SMOOTH",
"279 86 LINE"
);
},
{
closed = 1;
nodes = (
"865 475 LINE",
"415 475 LINE",
"382 392 LINE",
"895 392 LINE"
);
}
);
width = 1240;
},
{
anchors = (
{
name = bottom;
position = "{620, -40}";
},
{
name = ogonek;
position = "{1116, 10}";
},
{
name = top;
position = "{600, 1171}";
}
);
layerId = "F2E12B84-E402-48AA-89E7-06534AE23493";
paths = (
{
closed = 1;
nodes = (
"606 904 LINE",
"858 166 LINE",
"736 166 LINE SMOOTH",
"683 166 OFFCURVE",
"657 125 OFFCURVE",
"657 84 CURVE SMOOTH",
"657 42 OFFCURVE",
"684 0 OFFCURVE",
"738 0 CURVE SMOOTH",
"1140 0 LINE SMOOTH",
"1193 0 OFFCURVE",
"1220 42 OFFCURVE",
"1220 84 CURVE SMOOTH",
"1220 125 OFFCURVE",
"1194 166 OFFCURVE",
"1142 166 CURVE SMOOTH",
"1101 166 LINE",
"741 1106 LINE SMOOTH",
"728 1140 OFFCURVE",
"706 1171 OFFCURVE",
"660 1171 CURVE SMOOTH",
"321 1171 LINE SMOOTH",
"258 1171 OFFCURVE",
"232 1129 OFFCURVE",
"232 1085 CURVE SMOOTH",
"232 1040 OFFCURVE",
"259 999 OFFCURVE",
"322 999 CURVE SMOOTH",
"445 999 LINE",
"136 166 LINE",
"99 166 LINE SMOOTH",
"46 166 OFFCURVE",
"20 124 OFFCURVE",
"20 83 CURVE SMOOTH",
"20 41 OFFCURVE",
"47 0 OFFCURVE",
"100 0 CURVE SMOOTH",
"488 0 LINE SMOOTH",
"542 0 OFFCURVE",
"569 41 OFFCURVE",
"569 83 CURVE SMOOTH",
"569 124 OFFCURVE",
"542 166 OFFCURVE",
"489 166 CURVE SMOOTH",
"364 166 LINE"
);
},
{
closed = 1;
nodes = (
"865 495 LINE",
"415 495 LINE",
"362 333 LINE",
"915 333 LINE"
);
}
);
width = 1240;
},
{
layerId = "440824D2-40E3-4EBC-B94D-DAF81B1E7F5E";
paths = (
{
closed = 1;
nodes = (
"755 1074 LINE",
"923 86 LINE",
"736 86 LINE SMOOTH",
"703 86 OFFCURVE",
"687 65 OFFCURVE",
"687 44 CURVE SMOOTH",
"687 22 OFFCURVE",
"704 0 OFFCURVE",
"738 0 CURVE SMOOTH",
"1104 0 LINE SMOOTH",
"1137 0 OFFCURVE",
"1154 22 OFFCURVE",
"1154 44 CURVE SMOOTH",
"1154 65 OFFCURVE",
"1138 86 OFFCURVE",
"1106 86 CURVE SMOOTH",
"1017 86 LINE",
"834 1106 LINE SMOOTH",
"828 1140 OFFCURVE",
"799 1171 OFFCURVE",
"753 1171 CURVE SMOOTH",
"450 1171 LINE SMOOTH",
"417 1171 OFFCURVE",
"401 1149 OFFCURVE",
"401 1128 CURVE SMOOTH",
"401 1106 OFFCURVE",
"418 1085 OFFCURVE",
"451 1085 CURVE SMOOTH",
"668 1085 LINE",
"116 86 LINE",
"29 86 LINE SMOOTH",
"-4 86 OFFCURVE",
"-20 64 OFFCURVE",
"-20 43 CURVE SMOOTH",
"-20 21 OFFCURVE",
"-3 0 OFFCURVE",
"30 0 CURVE SMOOTH",
"378 0 LINE SMOOTH",
"412 0 OFFCURVE",
"429 21 OFFCURVE",
"429 43 CURVE SMOOTH",
"429 64 OFFCURVE",
"412 86 OFFCURVE",
"379 86 CURVE SMOOTH",
"219 86 LINE"
);
},
{
closed = 1;
nodes = (
"875 475 LINE",
"395 475 LINE",
"362 392 LINE",
"905 392 LINE"
);
}
);
width = 1240;
}
);
unicode = 0041;
},
{
glyphname = AE;
lastChange = "2017-07-13 18:39:58 +0000";
layers = (
{
anchors = (
{
name = bottom;
position = "{620, 0}";
},
{
name = top;
position = "{690, 1171}";
}
);
layerId = "840BD324-B0A6-42B0-BD23-CB5E8C19394F";
paths = (
{
closed = 1;
nodes = (
"397 0 LINE SMOOTH",
"431 0 OFFCURVE",
"448 21 OFFCURVE",
"448 43 CURVE SMOOTH",
"448 64 OFFCURVE",
"431 86 OFFCURVE",
"398 86 CURVE SMOOTH",
"231 86 LINE",
"327 392 LINE",
"642 392 LINE",
"642 85 LINE",
"612 85 LINE SMOOTH",
"579 85 OFFCURVE",
"562 64 OFFCURVE",
"562 43 CURVE SMOOTH",
"562 22 OFFCURVE",
"579 0 OFFCURVE",
"613 0 CURVE SMOOTH",
"1059 0 LINE SMOOTH",
"1092 0 OFFCURVE",
"1115 19 OFFCURVE",
"1115 53 CURVE SMOOTH",
"1115 283 LINE SMOOTH",
"1115 319 OFFCURVE",
"1094 335 OFFCURVE",
"1073 335 CURVE SMOOTH",
"1052 335 OFFCURVE",
"1033 320 OFFCURVE",
"1032 296 CURVE SMOOTH",
"1016 85 LINE",
"729 85 LINE",
"729 560 LINE",
"871 560 LINE SMOOTH",
"898 560 OFFCURVE",
"920 576 OFFCURVE",
"920 598 CURVE SMOOTH",
"920 625 OFFCURVE",
"898 637 OFFCURVE",
"871 637 CURVE SMOOTH",
"729 637 LINE",
"729 1085 LINE",
"1013 1085 LINE",
"1027 887 LINE SMOOTH",
"1028 862 OFFCURVE",
"1046 849 OFFCURVE",
"1066 849 CURVE SMOOTH",
"1086 849 OFFCURVE",
"1106 863 OFFCURVE",
"1106 893 CURVE SMOOTH",
"1106 1117 LINE SMOOTH",
"1106 1151 OFFCURVE",
"1083 1171 OFFCURVE",
"1050 1171 CURVE SMOOTH",
"300 1171 LINE SMOOTH",
"267 1171 OFFCURVE",
"251 1149 OFFCURVE",
"251 1128 CURVE SMOOTH",
"251 1106 OFFCURVE",
"268 1085 OFFCURVE",
"301 1085 CURVE SMOOTH",
"463 1085 LINE",
"138 86 LINE",
"87 86 LINE SMOOTH",
"54 86 OFFCURVE",
"38 64 OFFCURVE",
"38 43 CURVE SMOOTH",
"38 21 OFFCURVE",
"55 0 OFFCURVE",
"88 0 CURVE SMOOTH"
);
},
{
closed = 1;
nodes = (
"545 1085 LINE",
"642 1085 LINE",
"642 475 LINE",
"354 475 LINE"
);
}
);
width = 1240;
},
{
anchors = (
{
name = bottom;
position = "{620, 0}";
},
{
name = top;
position = "{710, 1171}";
}
);
layerId = "F2E12B84-E402-48AA-89E7-06534AE23493";
paths = (
{
closed = 1;
nodes = (
"377 0 LINE SMOOTH",
"431 0 OFFCURVE",
"448 51 OFFCURVE",
"448 83 CURVE SMOOTH",
"448 114 OFFCURVE",
"431 166 OFFCURVE",
"378 166 CURVE SMOOTH",
"341 166 LINE",
"399 352 LINE",
"607 352 LINE",
"607 165 LINE",
"597 165 LINE SMOOTH",
"544 165 OFFCURVE",
"527 114 OFFCURVE",
"527 83 CURVE SMOOTH",
"527 52 OFFCURVE",
"544 0 OFFCURVE",
"598 0 CURVE SMOOTH",
"1109 0 LINE SMOOTH",
"1142 0 OFFCURVE",
"1162 19 OFFCURVE",
"1165 53 CURVE SMOOTH",
"1183 253 LINE SMOOTH",
"1188 309 OFFCURVE",
"1144 335 OFFCURVE",
"1103 335 CURVE SMOOTH",
"1062 335 OFFCURVE",
"1030 309 OFFCURVE",
"1020 266 CURVE SMOOTH",
"996 165 LINE",
"809 165 LINE",
"809 520 LINE",
"901 520 LINE SMOOTH",
"959 520 OFFCURVE",
"999 555 OFFCURVE",
"999 600 CURVE SMOOTH",
"999 650 OFFCURVE",
"951 677 OFFCURVE",
"901 677 CURVE SMOOTH",
"809 677 LINE",
"809 1005 LINE",
"993 1005 LINE",
"1015 917 LINE SMOOTH",
"1026 873 OFFCURVE",
"1056 849 OFFCURVE",
"1096 849 CURVE SMOOTH",
"1136 849 OFFCURVE",
"1180 873 OFFCURVE",
"1174 933 CURVE SMOOTH",
"1156 1117 LINE SMOOTH",
"1153 1151 OFFCURVE",
"1133 1171 OFFCURVE",
"1100 1171 CURVE SMOOTH",
"320 1171 LINE SMOOTH",
"247 1171 OFFCURVE",
"231 1119 OFFCURVE",
"231 1088 CURVE SMOOTH",
"231 1056 OFFCURVE",
"248 1005 OFFCURVE",
"321 1005 CURVE SMOOTH",
"403 1005 LINE",
"128 166 LINE",
"97 166 LINE SMOOTH",
"44 166 OFFCURVE",
"28 114 OFFCURVE",
"28 83 CURVE SMOOTH",
"28 51 OFFCURVE",
"45 0 OFFCURVE",
"98 0 CURVE SMOOTH"
);
},
{
closed = 1;
nodes = (
"595 1005 LINE",
"607 1005 LINE",
"607 505 LINE",
"447 505 LINE"
);
}
);
width = 1240;
},
{
layerId = "440824D2-40E3-4EBC-B94D-DAF81B1E7F5E";
width = 600;
}
);
unicode = 00C6;
},
{
glyphname = B;
lastChange = "2017-08-10 23:27:59 +0000";
layers = (
{
anchors = (
{
name = bottom;
position = "{620, 0}";
},
{
name = top;
position = "{620, 1171}";
}
);
layerId = "840BD324-B0A6-42B0-BD23-CB5E8C19394F";
paths = (
{
closed = 1;
nodes = (
"546 0 LINE SMOOTH",
"905 0 OFFCURVE",
"1108 94 OFFCURVE",
"1108 330 CURVE SMOOTH",
"1108 508 OFFCURVE",
"978 604 OFFCURVE",
"847 638 CURVE",
"936 669 OFFCURVE",
"1011 761 OFFCURVE",
"1011 885 CURVE SMOOTH",
"1011 1086 OFFCURVE",
"841 1171 OFFCURVE",
"546 1171 CURVE SMOOTH",
"180 1171 LINE SMOOTH",
"148 1171 OFFCURVE",
"132 1150 OFFCURVE",
"132 1129 CURVE SMOOTH",
"132 1107 OFFCURVE",
"148 1085 OFFCURVE",
"181 1085 CURVE SMOOTH",
"347 1085 LINE",
"347 86 LINE",
"187 86 LINE SMOOTH",
"154 86 OFFCURVE",
"137 64 OFFCURVE",
"137 43 CURVE SMOOTH",
"137 21 OFFCURVE",
"154 0 OFFCURVE",
"188 0 CURVE SMOOTH"
);
},
{
closed = 1;
nodes = (
"443 588 LINE",
"593 588 LINE SMOOTH",
"845 588 OFFCURVE",
"1012 516 OFFCURVE",
"1012 330 CURVE SMOOTH",
"1012 150 OFFCURVE",
"835 86 OFFCURVE",
"569 86 CURVE SMOOTH",
"443 86 LINE"
);
},
{
closed = 1;
nodes = (
"443 1085 LINE",
"569 1085 LINE SMOOTH",
"787 1085 OFFCURVE",
"925 1031 OFFCURVE",
"925 885 CURVE SMOOTH",
"925 749 OFFCURVE",
"797 672 OFFCURVE",
"593 672 CURVE SMOOTH",
"443 672 LINE"
);
}
);
width = 1240;
},
{
anchors = (
{
name = bottom;
position = "{620, 0}";
},
{
name = top;
position = "{620, 1171}";
}
);
layerId = "F2E12B84-E402-48AA-89E7-06534AE23493";
paths = (
{
closed = 1;
nodes = (
"601 0 LINE SMOOTH",
"930 0 OFFCURVE",
"1123 94 OFFCURVE",
"1123 350 CURVE SMOOTH",
"1123 508 OFFCURVE",
"993 604 OFFCURVE",
"892 638 CURVE",
"951 669 OFFCURVE",
"1026 761 OFFCURVE",
"1026 885 CURVE SMOOTH",
"1026 1086 OFFCURVE",
"866 1171 OFFCURVE",
"561 1171 CURVE SMOOTH",
"205 1171 LINE SMOOTH",
"133 1171 OFFCURVE",
"107 1130 OFFCURVE",
"107 1084 CURVE SMOOTH",
"107 1042 OFFCURVE",
"133 995 OFFCURVE",
"206 995 CURVE SMOOTH",
"272 995 LINE",
"272 176 LINE",
"202 176 LINE SMOOTH",
"139 176 OFFCURVE",
"112 129 OFFCURVE",
"112 88 CURVE SMOOTH",
"112 46 OFFCURVE",
"139 0 OFFCURVE",
"203 0 CURVE SMOOTH"
);
},
{
closed = 1;
nodes = (
"518 541 LINE",
"588 541 LINE SMOOTH",
"770 541 OFFCURVE",
"877 496 OFFCURVE",
"877 356 CURVE SMOOTH",
"877 260 OFFCURVE",
"790 176 OFFCURVE",
"588 176 CURVE SMOOTH",
"518 176 LINE"
);
},
{
closed = 1;
nodes = (
"518 995 LINE",
"588 995 LINE SMOOTH",
"692 995 OFFCURVE",
"790 959 OFFCURVE",
"790 855 CURVE SMOOTH",
"790 752 OFFCURVE",
"712 709 OFFCURVE",
"588 709 CURVE SMOOTH",
"518 709 LINE"
);
}
);
width = 1240;
},
{
layerId = "440824D2-40E3-4EBC-B94D-DAF81B1E7F5E";
paths = (
{
closed = 1;
nodes = (
"478 0 LINE SMOOTH",
"846 0 OFFCURVE",
"1103 92 OFFCURVE",
"1103 386 CURVE SMOOTH",
"1103 528 OFFCURVE",
"1001 608 OFFCURVE",
"890 638 CURVE",
"1013 678 OFFCURVE",
"1102 779 OFFCURVE",
"1102 931 CURVE SMOOTH",
"1102 1102 OFFCURVE",
"948 1171 OFFCURVE",
"682 1171 CURVE SMOOTH",
"316 1171 LINE SMOOTH",
"284 1171 OFFCURVE",
"265 1150 OFFCURVE",
"261 1129 CURVE SMOOTH",
"257 1107 OFFCURVE",
"269 1085 OFFCURVE",
"302 1085 CURVE SMOOTH",
"468 1085 LINE",
"294 86 LINE",
"134 86 LINE SMOOTH",
"101 86 OFFCURVE",
"80 64 OFFCURVE",
"76 43 CURVE SMOOTH",
"72 21 OFFCURVE",
"86 0 OFFCURVE",
"120 0 CURVE SMOOTH"
);
},
{
closed = 1;
nodes = (
"477 588 LINE",
"627 588 LINE SMOOTH",
"857 588 OFFCURVE",
"1008 528 OFFCURVE",
"1006 375 CURVE SMOOTH",
"1003 152 OFFCURVE",
"777 86 OFFCURVE",
"516 86 CURVE SMOOTH",
"390 86 LINE"
);
},
{
closed = 1;
nodes = (
"564 1085 LINE",
"690 1085 LINE SMOOTH",
"889 1085 OFFCURVE",
"1014 1040 OFFCURVE",
"1014 911 CURVE SMOOTH",
"1014 762 OFFCURVE",
"841 672 OFFCURVE",
"642 672 CURVE SMOOTH",
"492 672 LINE"
);
}
);
width = 1240;
}
);
unicode = 0042;
},
{
glyphname = C;
lastChange = "2017-08-04 23:46:22 +0000";
layers = (
{
anchors = (
{
name = bottom;
position = "{620, 0}";
},
{
name = top;
position = "{680, 1171}";
}
);
layerId = "840BD324-B0A6-42B0-BD23-CB5E8C19394F";
paths = (
{
closed = 1;
nodes = (
"946 -17 OFFCURVE",
"1130 191 OFFCURVE",
"1130 343 CURVE SMOOTH",
"1130 377 OFFCURVE",
"1106 393 OFFCURVE",
"1083 393 CURVE SMOOTH",
"1062 393 OFFCURVE",
"1044 380 OFFCURVE",
"1036 345 CURVE SMOOTH",
"1010 239 OFFCURVE",
"893 69 OFFCURVE",
"670 69 CURVE SMOOTH",
"435 69 OFFCURVE",
"228 263 OFFCURVE",
"228 600 CURVE SMOOTH",
"228 890 OFFCURVE",
"396 1101 OFFCURVE",
"668 1101 CURVE SMOOTH",
"850 1101 OFFCURVE",
"996 974 OFFCURVE",
"1026 827 CURVE SMOOTH",
"1032 797 OFFCURVE",
"1050 780 OFFCURVE",
"1074 780 CURVE SMOOTH",
"1097 780 OFFCURVE",
"1122 795 OFFCURVE",
"1120 827 CURVE SMOOTH",
"1100 1120 LINE SMOOTH",
"1098 1154 OFFCURVE",
"1076 1171 OFFCURVE",
"1051 1171 CURVE SMOOTH",
"1028 1171 OFFCURVE",
"999 1155 OFFCURVE",
"1002 1123 CURVE SMOOTH",
"1002 1121 OFFCURVE",
"1011 1059 OFFCURVE",
"1020 994 CURVE",
"981 1071 OFFCURVE",
"863 1187 OFFCURVE",
"669 1187 CURVE SMOOTH",
"361 1187 OFFCURVE",
"132 954 OFFCURVE",
"132 607 CURVE SMOOTH",
"132 225 OFFCURVE",
"361 -17 OFFCURVE",
"669 -17 CURVE SMOOTH"
);
}
);
width = 1240;
},
{
anchors = (
{
name = bottom;
position = "{620, 0}";
},
{
name = top;
position = "{660, 1201}";
}
);
background = {
paths = (
{
closed = 1;
nodes = (
"946 -17 OFFCURVE",
"1130 191 OFFCURVE",
"1130 343 CURVE SMOOTH",
"1130 377 OFFCURVE",
"1106 393 OFFCURVE",
"1083 393 CURVE SMOOTH",
"1062 393 OFFCURVE",
"1044 380 OFFCURVE",
"1036 345 CURVE SMOOTH",
"1010 239 OFFCURVE",
"893 69 OFFCURVE",
"670 69 CURVE SMOOTH",
"435 69 OFFCURVE",
"228 263 OFFCURVE",
"228 600 CURVE SMOOTH",
"228 890 OFFCURVE",
"396 1101 OFFCURVE",
"668 1101 CURVE SMOOTH",
"850 1101 OFFCURVE",
"996 974 OFFCURVE",
"1026 827 CURVE SMOOTH",
"1032 797 OFFCURVE",
"1050 780 OFFCURVE",
"1074 780 CURVE SMOOTH",
"1097 780 OFFCURVE",
"1122 795 OFFCURVE",
"1120 827 CURVE SMOOTH",
"1100 1120 LINE SMOOTH",
"1098 1154 OFFCURVE",
"1076 1171 OFFCURVE",
"1051 1171 CURVE SMOOTH",
"1027 1171 OFFCURVE",
"997 1154 OFFCURVE",
"1002 1121 CURVE SMOOTH",
"1020 994 LINE",
"981 1071 OFFCURVE",
"863 1187 OFFCURVE",
"669 1187 CURVE SMOOTH",
"361 1187 OFFCURVE",
"132 954 OFFCURVE",
"132 607 CURVE SMOOTH",
"132 225 OFFCURVE",
"361 -17 OFFCURVE",
"669 -17 CURVE SMOOTH"
);
}
);
};
layerId = "F2E12B84-E402-48AA-89E7-06534AE23493";
paths = (
{
closed = 1;
nodes = (
"956 -17 OFFCURVE",
"1140 161 OFFCURVE",
"1142 308 CURVE SMOOTH",
"1143 367 OFFCURVE",
"1100 403 OFFCURVE",
"1054 403 CURVE SMOOTH",
"1009 403 OFFCURVE",
"973 359 OFFCURVE",
"942 308 CURVE SMOOTH",
"905 247 OFFCURVE",
"838 159 OFFCURVE",
"687 159 CURVE SMOOTH",
"515 159 OFFCURVE",
"358 313 OFFCURVE",
"358 600 CURVE SMOOTH",
"358 830 OFFCURVE",
"506 1011 OFFCURVE",
"698 1011 CURVE SMOOTH",
"871 1011 OFFCURVE",
"958 934 OFFCURVE",
"988 845 CURVE SMOOTH",
"1002 805 OFFCURVE",
"1031 780 OFFCURVE",
"1070 780 CURVE SMOOTH",
"1108 780 OFFCURVE",
"1156 803 OFFCURVE",
"1150 854 CURVE SMOOTH",
"1122 1100 LINE SMOOTH",
"1117 1140 OFFCURVE",
"1082 1187 OFFCURVE",
"1020 1187 CURVE SMOOTH",
"967 1187 OFFCURVE",
"928 1154 OFFCURVE",
"928 1114 CURVE SMOOTH",
"928 1103 OFFCURVE",
"934 1087 OFFCURVE",
"948 1054 CURVE",
"917 1090 OFFCURVE",
"850 1187 OFFCURVE",
"659 1187 CURVE SMOOTH",
"341 1187 OFFCURVE",
"112 954 OFFCURVE",
"112 607 CURVE SMOOTH",
"112 225 OFFCURVE",
"371 -17 OFFCURVE",
"659 -17 CURVE SMOOTH"
);
}
);
width = 1240;
},
{
layerId = "440824D2-40E3-4EBC-B94D-DAF81B1E7F5E";
paths = (
{
closed = 1;
nodes = (
"892 -17 OFFCURVE",
"1075 191 OFFCURVE",
"1088 313 CURVE SMOOTH",
"1091 347 OFFCURVE",
"1069 363 OFFCURVE",
"1046 363 CURVE SMOOTH",
"1025 363 OFFCURVE",
"1005 350 OFFCURVE",
"991 314 CURVE SMOOTH",
"962 239 OFFCURVE",
"841 69 OFFCURVE",
"588 69 CURVE SMOOTH",
"388 69 OFFCURVE",
"224 222 OFFCURVE",
"222 492 CURVE SMOOTH",
"222 526 OFFCURVE",
"224 562 OFFCURVE",
"230 600 CURVE SMOOTH",
"271 880 OFFCURVE",
"468 1101 OFFCURVE",
"740 1101 CURVE SMOOTH",
"922 1101 OFFCURVE",
"1047 969 OFFCURVE",
"1057 827 CURVE SMOOTH",
"1059 797 OFFCURVE",
"1077 780 OFFCURVE",
"1101 780 CURVE SMOOTH",
"1124 780 OFFCURVE",
"1151 795 OFFCURVE",
"1154 827 CURVE SMOOTH",
"1175 1120 LINE SMOOTH",
"1177 1154 OFFCURVE",
"1158 1177 OFFCURVE",
"1133 1177 CURVE SMOOTH",
"1110 1177 OFFCURVE",
"1077 1165 OFFCURVE",
"1077 1123 CURVE SMOOTH",
"1077 1106 OFFCURVE",
"1077 1059 OFFCURVE",
"1077 994 CURVE",
"1049 1071 OFFCURVE",
"947 1187 OFFCURVE",
"753 1187 CURVE SMOOTH",
"445 1187 OFFCURVE",
"184 954 OFFCURVE",
"135 607 CURVE SMOOTH",
"129 565 OFFCURVE",
"126 524 OFFCURVE",
"126 486 CURVE SMOOTH",
"126 181 OFFCURVE",
"314 -17 OFFCURVE",
"605 -17 CURVE SMOOTH"
);
}
);
width = 1240;
}
);
unicode = 0043;
},
{
glyphname = D;
lastChange = "2017-08-04 23:43:01 +0000";
layers = (
{
anchors = (
{
name = bottom;
position = "{620, 0}";
},
{
name = center;
position = "{620, 586}";
},
{
name = top;
position = "{580, 1151}";
}
);
layerId = "840BD324-B0A6-42B0-BD23-CB5E8C19394F";
paths = (
{
closed = 1;
nodes = (
"517 0 LINE SMOOTH",
"918 0 OFFCURVE",
"1135 188 OFFCURVE",
"1135 591 CURVE SMOOTH",
"1135 973 OFFCURVE",
"902 1171 OFFCURVE",
"519 1171 CURVE SMOOTH",
"161 1171 LINE SMOOTH",
"128 1171 OFFCURVE",
"111 1149 OFFCURVE",
"111 1127 CURVE SMOOTH",
"111 1106 OFFCURVE",
"127 1085 OFFCURVE",
"159 1085 CURVE SMOOTH",
"318 1085 LINE",
"318 86 LINE",
"155 86 LINE SMOOTH",
"122 86 OFFCURVE",
"105 64 OFFCURVE",
"105 43 CURVE SMOOTH",
"105 21 OFFCURVE",
"122 0 OFFCURVE",
"156 0 CURVE SMOOTH"
);
},
{
closed = 1;
nodes = (
"414 1085 LINE",
"538 1085 LINE SMOOTH",
"871 1085 OFFCURVE",
"1039 887 OFFCURVE",
"1039 591 CURVE SMOOTH",
"1039 276 OFFCURVE",
"895 86 OFFCURVE",
"524 86 CURVE SMOOTH",
"414 86 LINE"
);
}
);
width = 1240;
},
{
anchors = (
{
name = bottom;
position = "{620, 0}";
},
{
name = center;
position = "{620, 586}";
},
{
name = top;
position = "{620, 1171}";
}
);
layerId = "F2E12B84-E402-48AA-89E7-06534AE23493";
paths = (
{
closed = 1;
nodes = (
"497 0 LINE SMOOTH",
"918 0 OFFCURVE",
"1145 188 OFFCURVE",
"1145 591 CURVE SMOOTH",
"1145 973 OFFCURVE",
"902 1171 OFFCURVE",
"489 1171 CURVE SMOOTH",
"186 1171 LINE SMOOTH",
"128 1171 OFFCURVE",
"91 1132 OFFCURVE",
"91 1083 CURVE SMOOTH",
"91 1035 OFFCURVE",
"127 995 OFFCURVE",
"184 995 CURVE SMOOTH",
"243 995 LINE",
"243 176 LINE",
"180 176 LINE SMOOTH",
"122 176 OFFCURVE",
"85 134 OFFCURVE",
"85 88 CURVE SMOOTH",
"85 41 OFFCURVE",
"122 0 OFFCURVE",
"181 0 CURVE SMOOTH"
);
},
{
closed = 1;
nodes = (
"489 995 LINE",
"498 995 LINE SMOOTH",
"762 995 OFFCURVE",
"909 857 OFFCURVE",
"909 591 CURVE SMOOTH",
"909 336 OFFCURVE",
"785 176 OFFCURVE",
"498 176 CURVE SMOOTH",
"489 176 LINE"
);
}
);
width = 1240;
},
{
layerId = "440824D2-40E3-4EBC-B94D-DAF81B1E7F5E";
paths = (
{
closed = 1;
nodes = (
"447 0 LINE SMOOTH",
"828 0 OFFCURVE",
"1087 143 OFFCURVE",
"1157 540 CURVE SMOOTH",
"1166 591 OFFCURVE",
"1171 639 OFFCURVE",
"1171 684 CURVE SMOOTH",
"1176 996 OFFCURVE",
"987 1171 OFFCURVE",
"679 1171 CURVE SMOOTH",
"291 1171 LINE SMOOTH",
"258 1171 OFFCURVE",
"241 1149 OFFCURVE",
"241 1127 CURVE SMOOTH",
"241 1106 OFFCURVE",
"257 1085 OFFCURVE",
"289 1085 CURVE SMOOTH",
"448 1085 LINE",
"258 86 LINE",
"105 86 LINE SMOOTH",
"72 86 OFFCURVE",
"55 64 OFFCURVE",
"55 43 CURVE SMOOTH",
"55 21 OFFCURVE",
"72 0 OFFCURVE",
"106 0 CURVE SMOOTH"
);
},
{
closed = 1;
nodes = (
"544 1085 LINE",
"668 1085 LINE SMOOTH",
"934 1085 OFFCURVE",
"1077 924 OFFCURVE",
"1076 682 CURVE SMOOTH",
"1076 648 OFFCURVE",
"1073 612 OFFCURVE",
"1067 575 CURVE SMOOTH",
"1011 217 OFFCURVE",
"775 86 OFFCURVE",
"464 86 CURVE SMOOTH",
"354 86 LINE"
);
}
);
width = 1240;
}
);
unicode = 0044;
},
{
glyphname = DZ;
lastChange = "2017-07-13 18:39:58 +0000";
layers = (
{
components = (
{
name = _halfd;
transform = "{1, 0, 0, 1, 7, 0}";
}
);
layerId = "840BD324-B0A6-42B0-BD23-CB5E8C19394F";
paths = (
{
closed = 1;
nodes = (
"1108 0 LINE SMOOTH",
"1137 0 OFFCURVE",
"1160 19 OFFCURVE",
"1159 53 CURVE",
"1169 315 LINE SMOOTH",
"1170 350 OFFCURVE",
"1144 363 OFFCURVE",
"1123 363 CURVE SMOOTH",
"1100 363 OFFCURVE",
"1079 346 OFFCURVE",
"1077 314 CURVE",
"1067 86 LINE",
"818 86 LINE",
"1156 1081 LINE SMOOTH",
"1157 1085 OFFCURVE",
"1162 1102 OFFCURVE",
"1162 1116 CURVE SMOOTH",
"1162 1142 OFFCURVE",
"1152 1171 OFFCURVE",
"1117 1171 CURVE SMOOTH",
"807 1171 LINE SMOOTH",
"756 1171 OFFCURVE",
"750 1144 OFFCURVE",
"749 1116 CURVE",
"739 866 LINE SMOOTH",
"738 834 OFFCURVE",
"755 817 OFFCURVE",
"780 817 CURVE SMOOTH",
"802 817 OFFCURVE",
"824 830 OFFCURVE",
"825 857 CURVE SMOOTH",
"835 1085 LINE",
"1065 1085 LINE",
"722 95 LINE SMOOTH",
"714 73 OFFCURVE",
"711 54 OFFCURVE",
"711 39 CURVE SMOOTH",
"711 14 OFFCURVE",
"722 0 OFFCURVE",
"746 0 CURVE SMOOTH"
);
}
);
width = 1240;
},
{
components = (
{
name = _halfd;
transform = "{1, 0, 0, 1, 7, 0}";
}
);
layerId = "F2E12B84-E402-48AA-89E7-06534AE23493";
paths = (
{
closed = 1;
nodes = (
"1098 0 LINE SMOOTH",
"1137 0 OFFCURVE",
"1160 19 OFFCURVE",
"1159 53 CURVE",
"1178 295 LINE SMOOTH",
"1182 350 OFFCURVE",
"1144 363 OFFCURVE",
"1123 363 CURVE SMOOTH",
"1090 363 OFFCURVE",
"1073 345 OFFCURVE",
"1067 314 CURVE SMOOTH",
"1037 166 LINE",
"888 166 LINE",
"1186 1081 LINE SMOOTH",
"1187 1085 OFFCURVE",
"1192 1102 OFFCURVE",
"1192 1116 CURVE SMOOTH",
"1192 1142 OFFCURVE",
"1182 1171 OFFCURVE",
"1147 1171 CURVE SMOOTH",
"807 1171 LINE SMOOTH",
"756 1171 OFFCURVE",
"750 1144 OFFCURVE",
"749 1116 CURVE SMOOTH",
"730 886 LINE SMOOTH",
"726 834 OFFCURVE",
"755 817 OFFCURVE",
"780 817 CURVE SMOOTH",
"802 817 OFFCURVE",
"830 830 OFFCURVE",
"835 857 CURVE SMOOTH",
"865 1005 LINE",
"985 1005 LINE",
"692 95 LINE SMOOTH",
"685 73 OFFCURVE",
"681 54 OFFCURVE",
"681 39 CURVE SMOOTH",
"681 14 OFFCURVE",
"692 0 OFFCURVE",
"716 0 CURVE SMOOTH"
);
}
);
width = 1240;
},
{
layerId = "440824D2-40E3-4EBC-B94D-DAF81B1E7F5E";
width = 600;
}
);
unicode = 01F1;
},
{
glyphname = DZcaron;
lastChange = "2017-07-30 20:48:57 +0000";
layers = (
{
components = (
{
name = DZ;
}
);
layerId = "840BD324-B0A6-42B0-BD23-CB5E8C19394F";
paths = (
{
closed = 1;
nodes = (
"974 1299 OFFCURVE",
"981 1312 OFFCURVE",
"985 1320 CURVE SMOOTH",
"1119 1583 LINE SMOOTH",
"1123 1592 OFFCURVE",
"1125 1601 OFFCURVE",
"1125 1612 CURVE SMOOTH",
"1125 1627 OFFCURVE",
"1107 1637 OFFCURVE",
"1094 1637 CURVE SMOOTH",
"1081 1637 OFFCURVE",
"1071 1629 OFFCURVE",
"1066 1621 CURVE SMOOTH",
"953 1432 LINE",
"811 1621 LINE SMOOTH",
"805 1629 OFFCURVE",
"796 1634 OFFCURVE",
"783 1634 CURVE SMOOTH",
"770 1634 OFFCURVE",
"755 1623 OFFCURVE",
"752 1606 CURVE SMOOTH",
"750 1596 OFFCURVE",
"754 1590 OFFCURVE",
"758 1583 CURVE SMOOTH",
"922 1320 LINE SMOOTH",
"927 1312 OFFCURVE",
"932 1299 OFFCURVE",
"953 1299 CURVE SMOOTH"
);
}
);
width = 1240;
},
{
components = (
{
name = DZ;
}
);
layerId = "F2E12B84-E402-48AA-89E7-06534AE23493";
paths = (
{
closed = 1;
nodes = (
"975 1264 OFFCURVE",
"986 1272 OFFCURVE",
"994 1280 CURVE SMOOTH",
"1183 1492 LINE SMOOTH",
"1194 1504 OFFCURVE",
"1212 1525 OFFCURVE",
"1212 1546 CURVE SMOOTH",
"1212 1572 OFFCURVE",
"1191 1597 OFFCURVE",
"1156 1597 CURVE SMOOTH",
"1133 1597 OFFCURVE",
"1117 1586 OFFCURVE",
"1110 1580 CURVE SMOOTH",
"959 1442 LINE",
"810 1583 LINE SMOOTH",
"804 1589 OFFCURVE",
"789 1597 OFFCURVE",
"768 1597 CURVE SMOOTH",
"733 1597 OFFCURVE",
"711 1578 OFFCURVE",
"711 1552 CURVE SMOOTH",
"711 1531 OFFCURVE",
"734 1506 OFFCURVE",
"746 1492 CURVE SMOOTH",
"931 1280 LINE SMOOTH",
"940 1270 OFFCURVE",
"949 1264 OFFCURVE",
"962 1264 CURVE SMOOTH"
);
}
);
width = 1240;
},
{
layerId = "440824D2-40E3-4EBC-B94D-DAF81B1E7F5E";
width = 600;
}
);
unicode = 01C4;
},
{
glyphname = Eth;
lastChange = "2017-07-30 20:51:21 +0000";
layers = (
{
components = (
{
name = D;
}
);
layerId = "840BD324-B0A6-42B0-BD23-CB5E8C19394F";
paths = (
{
closed = 1;
nodes = (
"605 572 LINE",
"633 572 OFFCURVE",
"646 592 OFFCURVE",
"646 611 CURVE SMOOTH",
"646 630 OFFCURVE",
"635 648 OFFCURVE",
"607 648 CURVE",
"168 648 LINE",
"138 648 OFFCURVE",
"126 630 OFFCURVE",
"126 611 CURVE SMOOTH",
"126 592 OFFCURVE",
"140 572 OFFCURVE",
"172 572 CURVE"
);
}
);
width = 1240;
},
{
components = (
{
name = D;
}
);
layerId = "F2E12B84-E402-48AA-89E7-06534AE23493";
paths = (
{
closed = 1;
nodes = (
"641 520 LINE",
"697 520 OFFCURVE",
"721 560 OFFCURVE",
"721 599 CURVE SMOOTH",
"721 638 OFFCURVE",
"688 677 OFFCURVE",
"642 677 CURVE",
"150 677 LINE",
"94 677 OFFCURVE",
"72 639 OFFCURVE",
"72 600 CURVE SMOOTH",
"72 560 OFFCURVE",
"96 520 OFFCURVE",
"152 520 CURVE"
);
}
);
width = 1240;
},
{
layerId = "440824D2-40E3-4EBC-B94D-DAF81B1E7F5E";
width = 600;
}
);
unicode = 00D0;
},
{
glyphname = Dcroat;
lastChange = "2017-07-30 20:51:36 +0000";
layers = (
{
components = (
{
name = D;
}
);
layerId = "840BD324-B0A6-42B0-BD23-CB5E8C19394F";
paths = (
{
closed = 1;
nodes = (
"605 572 LINE",
"633 572 OFFCURVE",
"646 592 OFFCURVE",
"646 611 CURVE SMOOTH",
"646 630 OFFCURVE",
"635 648 OFFCURVE",
"607 648 CURVE",
"168 648 LINE",
"138 648 OFFCURVE",
"126 630 OFFCURVE",
"126 611 CURVE SMOOTH",
"126 592 OFFCURVE",
"140 572 OFFCURVE",
"172 572 CURVE"
);
}
);
width = 1240;
},
{
components = (
{
name = D;
}
);
layerId = "F2E12B84-E402-48AA-89E7-06534AE23493";
paths = (
{
closed = 1;
nodes = (
"641 520 LINE",
"697 520 OFFCURVE",
"721 560 OFFCURVE",
"721 599 CURVE SMOOTH",
"721 638 OFFCURVE",
"688 677 OFFCURVE",
"642 677 CURVE",
"150 677 LINE",
"94 677 OFFCURVE",
"72 639 OFFCURVE",
"72 600 CURVE SMOOTH",
"72 560 OFFCURVE",
"96 520 OFFCURVE",
"152 520 CURVE"
);
}
);
width = 1240;
},
{
layerId = "440824D2-40E3-4EBC-B94D-DAF81B1E7F5E";
width = 600;
}
);
unicode = 0110;
},
{
glyphname = E;
lastChange = "2017-08-04 23:44:08 +0000";
layers = (
{
anchors = (
{
name = bottom;
position = "{620, 0}";
},
{
name = ogonek;
position = "{1116, 10}";
},
{
name = top;
position = "{650, 1171}";
},
{
name = topleft;
position = "{20, 1171}";
}
);
layerId = "840BD324-B0A6-42B0-BD23-CB5E8C19394F";
paths = (
{
closed = 1;
nodes = (
"1051 0 LINE SMOOTH",
"1084 0 OFFCURVE",
"1104 19 OFFCURVE",
"1107 53 CURVE SMOOTH",
"1127 323 LINE SMOOTH",
"1130 359 OFFCURVE",
"1106 375 OFFCURVE",
"1085 375 CURVE SMOOTH",
"1064 375 OFFCURVE",
"1044 360 OFFCURVE",
"1041 336 CURVE SMOOTH",
"1008 108 LINE SMOOTH",
"1007 99 OFFCURVE",
"1000 85 OFFCURVE",
"986 85 CURVE",
"410 85 LINE",
"410 577 LINE",
"736 577 LINE",
"749 429 LINE SMOOTH",
"751 401 OFFCURVE",
"770 386 OFFCURVE",
"789 386 CURVE SMOOTH",
"808 386 OFFCURVE",
"827 402 OFFCURVE",
"827 437 CURVE SMOOTH",
"827 779 LINE SMOOTH",
"827 816 OFFCURVE",
"808 832 OFFCURVE",
"789 832 CURVE SMOOTH",
"771 832 OFFCURVE",
"752 817 OFFCURVE",
"749 787 CURVE SMOOTH",
"736 654 LINE",
"410 654 LINE",
"410 1085 LINE",
"981 1085 LINE",
"992 1085 OFFCURVE",
"1001 1073 OFFCURVE",
"1003 1062 CURVE SMOOTH",
"1033 841 LINE SMOOTH",
"1036 816 OFFCURVE",
"1055 803 OFFCURVE",
"1075 803 CURVE SMOOTH",
"1095 803 OFFCURVE",
"1117 817 OFFCURVE",
"1115 847 CURVE SMOOTH",
"1095 1117 LINE SMOOTH",
"1092 1151 OFFCURVE",
"1072 1171 OFFCURVE",
"1039 1171 CURVE SMOOTH",
"181 1171 LINE SMOOTH",
"148 1171 OFFCURVE",
"131 1149 OFFCURVE",
"131 1127 CURVE SMOOTH",
"131 1106 OFFCURVE",
"147 1085 OFFCURVE",
"179 1085 CURVE SMOOTH",
"314 1085 LINE",
"314 85 LINE",
"144 85 LINE SMOOTH",
"111 85 OFFCURVE",
"94 64 OFFCURVE",
"94 43 CURVE SMOOTH",
"94 22 OFFCURVE",
"111 0 OFFCURVE",
"145 0 CURVE SMOOTH"
);
}
);
width = 1240;
},
{
anchors = (
{
name = bottom;
position = "{620, 0}";
},
{
name = ogonek;
position = "{1116, 10}";
},
{
name = top;
position = "{620, 1171}";
},
{
name = topleft;
position = "{20, 1171}";
}
);
layerId = "F2E12B84-E402-48AA-89E7-06534AE23493";
paths = (
{
closed = 1;
nodes = (
"1092 0 LINE SMOOTH",
"1125 0 OFFCURVE",
"1145 19 OFFCURVE",
"1148 53 CURVE SMOOTH",
"1167 297 LINE SMOOTH",
"1171 353 OFFCURVE",
"1138 395 OFFCURVE",
"1090 395 CURVE SMOOTH",
"1045 395 OFFCURVE",
"1006 370 OFFCURVE",
"996 320 CURVE SMOOTH",
"970 188 LINE SMOOTH",
"968 179 OFFCURVE",
"961 165 OFFCURVE",
"947 165 CURVE",
"511 165 LINE",
"511 533 LINE",
"677 533 LINE",
"710 429 LINE SMOOTH",
"719 402 OFFCURVE",
"751 386 OFFCURVE",
"780 386 CURVE SMOOTH",
"809 386 OFFCURVE",
"848 402 OFFCURVE",
"848 437 CURVE SMOOTH",
"848 779 LINE SMOOTH",
"848 816 OFFCURVE",
"809 832 OFFCURVE",
"780 832 CURVE SMOOTH",
"752 832 OFFCURVE",
"721 815 OFFCURVE",
"710 787 CURVE SMOOTH",
"677 699 LINE",
"511 699 LINE",
"511 1005 LINE",
"942 1005 LINE",
"953 1005 OFFCURVE",
"963 993 OFFCURVE",
"965 982 CURVE SMOOTH",
"988 856 LINE SMOOTH",
"997 808 OFFCURVE",
"1036 783 OFFCURVE",
"1081 783 CURVE SMOOTH",
"1126 783 OFFCURVE",
"1158 812 OFFCURVE",
"1154 872 CURVE SMOOTH",
"1136 1117 LINE SMOOTH",
"1134 1151 OFFCURVE",
"1113 1171 OFFCURVE",
"1080 1171 CURVE SMOOTH",
"202 1171 LINE SMOOTH",
"149 1171 OFFCURVE",
"112 1139 OFFCURVE",
"112 1090 CURVE SMOOTH",
"112 1041 OFFCURVE",
"148 1005 OFFCURVE",
"200 1005 CURVE SMOOTH",
"265 1005 LINE",
"265 165 LINE",
"165 165 LINE SMOOTH",
"112 165 OFFCURVE",
"75 129 OFFCURVE",
"75 83 CURVE SMOOTH",
"75 37 OFFCURVE",
"112 0 OFFCURVE",
"166 0 CURVE SMOOTH"
);
}
);
width = 1240;
},
{
layerId = "440824D2-40E3-4EBC-B94D-DAF81B1E7F5E";
paths = (
{
closed = 1;
nodes = (
"979 0 LINE SMOOTH",
"1012 0 OFFCURVE",
"1036 19 OFFCURVE",
"1044 53 CURVE SMOOTH",
"1111 323 LINE SMOOTH",
"1112 329 OFFCURVE",
"1113 334 OFFCURVE",
"1113 339 CURVE SMOOTH",
"1113 364 OFFCURVE",
"1096 375 OFFCURVE",
"1078 375 CURVE SMOOTH",
"1057 375 OFFCURVE",
"1035 360 OFFCURVE",
"1027 336 CURVE SMOOTH",
"955 108 LINE SMOOTH",
"952 99 OFFCURVE",
"943 85 OFFCURVE",
"929 85 CURVE",
"353 85 LINE",
"439 577 LINE",
"765 577 LINE",
"752 429 LINE SMOOTH",
"750 401 OFFCURVE",
"765 386 OFFCURVE",
"784 386 CURVE SMOOTH",
"803 386 OFFCURVE",
"825 402 OFFCURVE",
"831 437 CURVE SMOOTH",
"891 779 LINE SMOOTH",
"897 816 OFFCURVE",
"881 832 OFFCURVE",
"862 832 CURVE SMOOTH",
"844 832 OFFCURVE",
"822 817 OFFCURVE",
"814 787 CURVE SMOOTH",
"778 654 LINE",
"452 654 LINE",
"527 1085 LINE",
"1098 1085 LINE",
"1109 1085 OFFCURVE",
"1116 1073 OFFCURVE",
"1116 1062 CURVE SMOOTH",
"1108 841 LINE SMOOTH",
"1107 816 OFFCURVE",
"1123 803 OFFCURVE",
"1143 803 CURVE SMOOTH",
"1163 803 OFFCURVE",
"1188 817 OFFCURVE",
"1191 847 CURVE SMOOTH",
"1218 1117 LINE SMOOTH",
"1221 1151 OFFCURVE",
"1204 1171 OFFCURVE",
"1171 1171 CURVE SMOOTH",
"283 1171 LINE SMOOTH",
"250 1171 OFFCURVE",
"226 1149 OFFCURVE",
"226 1123 CURVE SMOOTH",
"226 1106 OFFCURVE",
"234 1085 OFFCURVE",
"266 1085 CURVE SMOOTH",
"431 1085 LINE",
"257 85 LINE",
"87 85 LINE SMOOTH",
"54 85 OFFCURVE",
"29 64 OFFCURVE",
"29 39 CURVE SMOOTH",
"29 22 OFFCURVE",
"39 0 OFFCURVE",
"73 0 CURVE SMOOTH"
);
}
);
width = 1240;
}
);
unicode = 0045;
},
{
glyphname = F;
lastChange = "2017-08-10 23:30:37 +0000";
layers = (
{
anchors = (
{
name = bottom;
position = "{620, 0}";
},
{
name = top;
position = "{620, 1171}";
}
);
layerId = "840BD324-B0A6-42B0-BD23-CB5E8C19394F";
paths = (
{
closed = 1;
nodes = (
"791 0 LINE SMOOTH",
"820 0 OFFCURVE",
"836 21 OFFCURVE",
"836 43 CURVE SMOOTH",
"836 64 OFFCURVE",
"821 85 OFFCURVE",
"790 85 CURVE SMOOTH",
"430 85 LINE",
"430 577 LINE",
"777 577 LINE",
"790 429 LINE SMOOTH",
"792 401 OFFCURVE",
"811 386 OFFCURVE",
"830 386 CURVE SMOOTH",
"849 386 OFFCURVE",
"868 402 OFFCURVE",
"868 437 CURVE SMOOTH",
"868 779 LINE SMOOTH",
"868 816 OFFCURVE",
"849 832 OFFCURVE",
"830 832 CURVE SMOOTH",
"812 832 OFFCURVE",
"793 817 OFFCURVE",
"790 787 CURVE SMOOTH",
"777 654 LINE",
"430 654 LINE",
"430 1085 LINE",
"1024 1085 LINE SMOOTH",
"1035 1085 OFFCURVE",
"1044 1073 OFFCURVE",
"1046 1062 CURVE",
"1076 841 LINE SMOOTH",
"1079 816 OFFCURVE",
"1098 803 OFFCURVE",
"1118 803 CURVE SMOOTH",
"1138 803 OFFCURVE",
"1160 817 OFFCURVE",
"1158 847 CURVE SMOOTH",
"1138 1117 LINE SMOOTH",
"1135 1151 OFFCURVE",
"1115 1171 OFFCURVE",
"1082 1171 CURVE SMOOTH",
"201 1171 LINE SMOOTH",
"168 1171 OFFCURVE",
"151 1149 OFFCURVE",
"151 1127 CURVE SMOOTH",
"151 1106 OFFCURVE",
"167 1085 OFFCURVE",
"199 1085 CURVE SMOOTH",
"334 1085 LINE",
"334 85 LINE",
"164 85 LINE SMOOTH",
"131 85 OFFCURVE",
"114 64 OFFCURVE",
"114 43 CURVE SMOOTH",
"114 22 OFFCURVE",
"131 0 OFFCURVE",
"165 0 CURVE SMOOTH"
);
}
);
width = 1240;
},
{
anchors = (
{
name = bottom;
position = "{620, 0}";
},
{
name = top;
position = "{620, 1171}";
}
);
layerId = "F2E12B84-E402-48AA-89E7-06534AE23493";
paths = (
{
closed = 1;
nodes = (
"788 0 LINE SMOOTH",
"845 0 OFFCURVE",
"868 40 OFFCURVE",
"868 80 CURVE SMOOTH",
"868 123 OFFCURVE",
"844 165 OFFCURVE",
"788 165 CURVE SMOOTH",
"521 165 LINE",
"521 533 LINE",
"687 533 LINE",
"720 429 LINE SMOOTH",
"729 402 OFFCURVE",
"761 386 OFFCURVE",
"790 386 CURVE SMOOTH",
"819 386 OFFCURVE",
"858 402 OFFCURVE",
"858 437 CURVE SMOOTH",
"858 779 LINE SMOOTH",
"858 816 OFFCURVE",
"819 832 OFFCURVE",
"790 832 CURVE SMOOTH",
"762 832 OFFCURVE",
"731 815 OFFCURVE",
"720 787 CURVE SMOOTH",
"687 699 LINE",
"521 699 LINE",
"521 1005 LINE",
"952 1005 LINE",
"963 1005 OFFCURVE",
"973 993 OFFCURVE",
"975 982 CURVE SMOOTH",
"998 856 LINE SMOOTH",
"1007 808 OFFCURVE",
"1046 783 OFFCURVE",
"1091 783 CURVE SMOOTH",
"1136 783 OFFCURVE",
"1168 812 OFFCURVE",
"1164 872 CURVE SMOOTH",
"1146 1117 LINE SMOOTH",
"1144 1151 OFFCURVE",
"1123 1171 OFFCURVE",
"1090 1171 CURVE SMOOTH",
"202 1171 LINE SMOOTH",
"159 1171 OFFCURVE",
"122 1139 OFFCURVE",
"122 1090 CURVE SMOOTH",
"122 1041 OFFCURVE",
"158 1005 OFFCURVE",
"200 1005 CURVE SMOOTH",
"275 1005 LINE",
"275 165 LINE",
"165 165 LINE SMOOTH",
"122 165 OFFCURVE",
"85 129 OFFCURVE",
"85 83 CURVE SMOOTH",
"85 37 OFFCURVE",
"122 0 OFFCURVE",
"166 0 CURVE SMOOTH"
);
}
);
width = 1240;
},
{
layerId = "440824D2-40E3-4EBC-B94D-DAF81B1E7F5E";
paths = (
{
closed = 1;
nodes = (
"697 0 LINE SMOOTH",
"725 0 OFFCURVE",
"746 17 OFFCURVE",
"746 47 CURVE SMOOTH",
"746 69 OFFCURVE",
"725 85 OFFCURVE",
"697 85 CURVE SMOOTH",
"353 85 LINE",
"439 577 LINE",
"765 577 LINE",
"752 429 LINE SMOOTH",
"750 401 OFFCURVE",
"765 386 OFFCURVE",
"784 386 CURVE SMOOTH",
"803 386 OFFCURVE",
"825 402 OFFCURVE",
"831 437 CURVE SMOOTH",
"891 779 LINE SMOOTH",
"897 816 OFFCURVE",
"881 832 OFFCURVE",
"862 832 CURVE SMOOTH",
"844 832 OFFCURVE",
"822 817 OFFCURVE",
"814 787 CURVE SMOOTH",
"778 654 LINE",
"452 654 LINE",
"527 1085 LINE",
"1098 1085 LINE",
"1109 1085 OFFCURVE",
"1116 1073 OFFCURVE",
"1116 1062 CURVE SMOOTH",
"1108 841 LINE SMOOTH",
"1107 816 OFFCURVE",
"1123 803 OFFCURVE",
"1143 803 CURVE SMOOTH",
"1163 803 OFFCURVE",
"1188 817 OFFCURVE",
"1191 847 CURVE SMOOTH",
"1218 1117 LINE SMOOTH",
"1221 1151 OFFCURVE",
"1204 1171 OFFCURVE",
"1171 1171 CURVE SMOOTH",
"283 1171 LINE SMOOTH",
"250 1171 OFFCURVE",
"226 1149 OFFCURVE",
"226 1123 CURVE SMOOTH",
"226 1106 OFFCURVE",
"234 1085 OFFCURVE",
"266 1085 CURVE SMOOTH",
"431 1085 LINE",
"257 85 LINE",
"87 85 LINE SMOOTH",
"54 85 OFFCURVE",
"29 71 OFFCURVE",
"29 44 CURVE SMOOTH",
"29 22 OFFCURVE",
"39 0 OFFCURVE",
"73 0 CURVE SMOOTH"
);
}
);
width = 1240;
}
);
unicode = 0046;
},
{
glyphname = G;
lastChange = "2017-08-10 18:39:49 +0000";
layers = (
{
anchors = (
{
name = bottom;
position = "{620, 0}";
},
{
name = top;
position = "{644, 1171}";
}
);
layerId = "840BD324-B0A6-42B0-BD23-CB5E8C19394F";
paths = (
{
closed = 1;
nodes = (
"844 -17 OFFCURVE",
"970 159 OFFCURVE",
"973 192 CURVE",
"973 367 LINE",
"972 272 OFFCURVE",
"835 69 OFFCURVE",
"607 69 CURVE SMOOTH",
"382 69 OFFCURVE",
"196 263 OFFCURVE",
"196 600 CURVE SMOOTH",
"196 890 OFFCURVE",
"343 1101 OFFCURVE",
"618 1101 CURVE SMOOTH",
"815 1101 OFFCURVE",
"937 957 OFFCURVE",
"972 837 CURVE SMOOTH",
"981 807 OFFCURVE",
"996 790 OFFCURVE",
"1020 790 CURVE SMOOTH",
"1043 790 OFFCURVE",
"1065 805 OFFCURVE",
"1063 837 CURVE SMOOTH",
"1043 1120 LINE SMOOTH",
"1041 1154 OFFCURVE",
"1022 1171 OFFCURVE",
"998 1171 CURVE SMOOTH",
"973 1171 OFFCURVE",
"948 1154 OFFCURVE",
"952 1121 CURVE SMOOTH",
"958 1075 OFFCURVE",
"964 1028 OFFCURVE",
"970 982 CURVE",
"923 1080 OFFCURVE",
"804 1187 OFFCURVE",
"615 1187 CURVE SMOOTH",
"307 1187 OFFCURVE",
"100 954 OFFCURVE",
"100 607 CURVE SMOOTH",
"100 225 OFFCURVE",
"308 -17 OFFCURVE",
"606 -17 CURVE SMOOTH"
);
},
{
closed = 1;
nodes = (
"1043 -8 OFFCURVE",
"1066 11 OFFCURVE",
"1066 49 CURVE SMOOTH",
"1066 470 LINE",
"1129 470 LINE SMOOTH",
"1163 470 OFFCURVE",
"1180 492 OFFCURVE",
"1180 514 CURVE SMOOTH",
"1180 535 OFFCURVE",
"1164 556 OFFCURVE",
"1131 556 CURVE SMOOTH",
"787 556 LINE SMOOTH",
"754 556 OFFCURVE",
"738 535 OFFCURVE",
"738 514 CURVE SMOOTH",
"738 492 OFFCURVE",
"755 470 OFFCURVE",
"788 470 CURVE SMOOTH",
"972 470 LINE",
"972 280 LINE",
"972 255 LINE",
"972 51 LINE SMOOTH",
"972 12 OFFCURVE",
"997 -8 OFFCURVE",
"1020 -8 CURVE SMOOTH"
);
}
);
width = 1240;
},
{
anchors = (
{
name = bottom;
position = "{620, 0}";
},
{
name = top;
position = "{620, 1171}";
}
);
layerId = "F2E12B84-E402-48AA-89E7-06534AE23493";
paths = (
{
closed = 1;
nodes = (
"824 -17 OFFCURVE",
"905 119 OFFCURVE",
"905 126 CURVE",
"883 325 LINE",
"883 255 OFFCURVE",
"775 159 OFFCURVE",
"657 159 CURVE SMOOTH",
"472 159 OFFCURVE",
"346 354 OFFCURVE",
"346 600 CURVE SMOOTH",
"346 800 OFFCURVE",
"463 1011 OFFCURVE",
"678 1011 CURVE SMOOTH",
"851 1011 OFFCURVE",
"936 931 OFFCURVE",
"968 845 CURVE SMOOTH",
"983 805 OFFCURVE",
"1011 780 OFFCURVE",
"1050 780 CURVE SMOOTH",
"1088 780 OFFCURVE",
"1136 803 OFFCURVE",
"1130 854 CURVE SMOOTH",
"1102 1100 LINE SMOOTH",
"1097 1140 OFFCURVE",
"1062 1187 OFFCURVE",
"1000 1187 CURVE SMOOTH",
"947 1187 OFFCURVE",
"908 1154 OFFCURVE",
"908 1114 CURVE SMOOTH",
"908 1103 OFFCURVE",
"914 1087 OFFCURVE",
"928 1054 CURVE",
"897 1090 OFFCURVE",
"820 1187 OFFCURVE",
"629 1187 CURVE SMOOTH",
"317 1187 OFFCURVE",
"100 944 OFFCURVE",
"100 607 CURVE SMOOTH",
"100 226 OFFCURVE",
"328 -17 OFFCURVE",
"626 -17 CURVE SMOOTH"
);
},
{
closed = 1;
nodes = (
"1053 -18 OFFCURVE",
"1096 11 OFFCURVE",
"1096 69 CURVE SMOOTH",
"1096 430 LINE",
"1139 430 LINE SMOOTH",
"1193 430 OFFCURVE",
"1210 472 OFFCURVE",
"1210 504 CURVE SMOOTH",
"1210 535 OFFCURVE",
"1192 576 OFFCURVE",
"1139 576 CURVE SMOOTH",
"747 576 LINE SMOOTH",
"702 576 OFFCURVE",
"678 535 OFFCURVE",
"678 504 CURVE SMOOTH",
"678 472 OFFCURVE",
"703 430 OFFCURVE",
"748 430 CURVE SMOOTH",
"882 430 LINE",
"882 233 LINE",
"902 144 LINE",
"902 71 LINE SMOOTH",
"902 12 OFFCURVE",
"957 -18 OFFCURVE",
"1000 -18 CURVE SMOOTH"
);
}
);
width = 1240;
},
{
layerId = "440824D2-40E3-4EBC-B94D-DAF81B1E7F5E";
width = 600;
}
);
unicode = 0047;
},
{
glyphname = H;
lastChange = "2017-07-14 16:37:49 +0000";
layers = (
{
anchors = (
{
name = bottom;
position = "{620, 0}";
},
{
name = center;
position = "{620, 586}";
},
{
name = top;
position = "{630, 1171}";
},
{
name = topleft;
position = "{20, 1171}";
}
);
layerId = "840BD324-B0A6-42B0-BD23-CB5E8C19394F";
paths = (
{
closed = 1;
nodes = (
"459 0 LINE SMOOTH",
"492 0 OFFCURVE",
"509 23 OFFCURVE",
"509 46 CURVE SMOOTH",
"509 66 OFFCURVE",
"493 86 OFFCURVE",
"461 86 CURVE SMOOTH",
"358 86 LINE",
"358 558 LINE",
"904 558 LINE",
"904 86 LINE",
"801 86 LINE SMOOTH",
"769 86 OFFCURVE",
"753 65 OFFCURVE",
"753 44 CURVE SMOOTH",
"753 22 OFFCURVE",
"770 0 OFFCURVE",
"803 0 CURVE SMOOTH",
"1097 0 LINE SMOOTH",
"1130 0 OFFCURVE",
"1147 22 OFFCURVE",
"1147 43 CURVE SMOOTH",
"1147 65 OFFCURVE",
"1130 86 OFFCURVE",
"1097 86 CURVE SMOOTH",
"997 86 LINE",
"997 1085 LINE",
"1097 1085 LINE SMOOTH",
"1130 1085 OFFCURVE",
"1147 1107 OFFCURVE",
"1147 1130 CURVE SMOOTH",
"1147 1150 OFFCURVE",
"1130 1171 OFFCURVE",
"1097 1171 CURVE SMOOTH",
"803 1171 LINE SMOOTH",
"770 1171 OFFCURVE",
"753 1149 OFFCURVE",
"753 1127 CURVE SMOOTH",
"753 1106 OFFCURVE",
"768 1085 OFFCURVE",
"801 1085 CURVE SMOOTH",
"904 1085 LINE",
"904 638 LINE",
"358 638 LINE",
"358 1085 LINE",
"461 1085 LINE SMOOTH",
"494 1085 OFFCURVE",
"509 1106 OFFCURVE",
"509 1127 CURVE SMOOTH",
"509 1149 OFFCURVE",
"492 1171 OFFCURVE",
"459 1171 CURVE SMOOTH",
"157 1171 LINE SMOOTH",
"124 1171 OFFCURVE",
"107 1149 OFFCURVE",
"107 1128 CURVE SMOOTH",
"107 1106 OFFCURVE",
"124 1085 OFFCURVE",
"157 1085 CURVE SMOOTH",
"265 1085 LINE",
"265 86 LINE",
"141 86 LINE SMOOTH",
"109 86 OFFCURVE",
"93 65 OFFCURVE",
"93 44 CURVE SMOOTH",
"93 22 OFFCURVE",
"110 0 OFFCURVE",
"143 0 CURVE SMOOTH"
);
}
);
width = 1240;
},
{
anchors = (
{
name = bottom;
position = "{620, 0}";
},
{
name = center;
position = "{620, 586}";
},
{
name = top;
position = "{620, 1171}";
},
{
name = topleft;
position = "{20, 1171}";
}
);
layerId = "F2E12B84-E402-48AA-89E7-06534AE23493";
paths = (
{
closed = 1;
nodes = (
"496 0 LINE SMOOTH",
"544 0 OFFCURVE",
"581 45 OFFCURVE",
"581 86 CURVE SMOOTH",
"581 129 OFFCURVE",
"546 172 OFFCURVE",
"498 172 CURVE SMOOTH",
"433 172 LINE",
"431 508 LINE",
"807 508 LINE",
"809 172 LINE",
"744 172 LINE SMOOTH",
"695 172 OFFCURVE",
"658 129 OFFCURVE",
"658 86 CURVE SMOOTH",
"658 45 OFFCURVE",
"695 0 OFFCURVE",
"744 0 CURVE SMOOTH",
"1108 0 LINE SMOOTH",
"1156 0 OFFCURVE",
"1193 45 OFFCURVE",
"1193 86 CURVE SMOOTH",
"1193 128 OFFCURVE",
"1156 172 OFFCURVE",
"1108 172 CURVE SMOOTH",
"1052 172 LINE",
"1050 999 LINE",
"1108 999 LINE SMOOTH",
"1156 999 OFFCURVE",
"1193 1044 OFFCURVE",
"1193 1087 CURVE SMOOTH",
"1193 1127 OFFCURVE",
"1156 1171 OFFCURVE",
"1108 1171 CURVE SMOOTH",
"743 1171 LINE SMOOTH",
"695 1171 OFFCURVE",
"658 1131 OFFCURVE",
"658 1084 CURVE SMOOTH",
"658 1037 OFFCURVE",
"693 999 OFFCURVE",
"741 999 CURVE SMOOTH",
"807 999 LINE",
"807 698 LINE",
"431 698 LINE",
"431 999 LINE",
"496 999 LINE SMOOTH",
"545 999 OFFCURVE",
"582 1037 OFFCURVE",
"582 1084 CURVE SMOOTH",
"582 1131 OFFCURVE",
"545 1171 OFFCURVE",
"496 1171 CURVE SMOOTH",
"132 1171 LINE SMOOTH",
"84 1171 OFFCURVE",
"47 1126 OFFCURVE",
"47 1085 CURVE SMOOTH",
"47 1043 OFFCURVE",
"84 999 OFFCURVE",
"132 999 CURVE SMOOTH",
"188 999 LINE",
"190 172 LINE",
"132 172 LINE SMOOTH",
"84 172 OFFCURVE",
"47 129 OFFCURVE",
"47 86 CURVE SMOOTH",
"47 46 OFFCURVE",
"84 0 OFFCURVE",
"132 0 CURVE SMOOTH"
);
}
);
width = 1240;
},
{
layerId = "440824D2-40E3-4EBC-B94D-DAF81B1E7F5E";
paths = (
{
closed = 1;
nodes = (
"399 0 LINE SMOOTH",
"432 0 OFFCURVE",
"449 23 OFFCURVE",
"449 46 CURVE SMOOTH",
"449 66 OFFCURVE",
"433 86 OFFCURVE",
"401 86 CURVE SMOOTH",
"298 86 LINE",
"378 558 LINE",
"924 558 LINE",
"844 86 LINE",
"741 86 LINE SMOOTH",
"709 86 OFFCURVE",
"693 65 OFFCURVE",
"693 44 CURVE SMOOTH",
"693 22 OFFCURVE",
"710 0 OFFCURVE",
"743 0 CURVE SMOOTH",
"1037 0 LINE SMOOTH",
"1070 0 OFFCURVE",
"1087 22 OFFCURVE",
"1087 43 CURVE SMOOTH",
"1087 65 OFFCURVE",
"1070 86 OFFCURVE",
"1037 86 CURVE SMOOTH",
"937 86 LINE",
"1113 1085 LINE",
"1203 1085 LINE SMOOTH",
"1236 1085 OFFCURVE",
"1253 1107 OFFCURVE",
"1253 1130 CURVE SMOOTH",
"1253 1150 OFFCURVE",
"1236 1171 OFFCURVE",
"1203 1171 CURVE SMOOTH",
"919 1171 LINE SMOOTH",
"886 1171 OFFCURVE",
"869 1149 OFFCURVE",
"869 1127 CURVE SMOOTH",
"869 1106 OFFCURVE",
"884 1085 OFFCURVE",
"917 1085 CURVE SMOOTH",
"1020 1085 LINE",
"937 638 LINE",
"392 638 LINE",
"474 1085 LINE",
"577 1085 LINE SMOOTH",
"610 1085 OFFCURVE",
"625 1106 OFFCURVE",
"625 1127 CURVE SMOOTH",
"625 1149 OFFCURVE",
"608 1171 OFFCURVE",
"575 1171 CURVE SMOOTH",
"273 1171 LINE SMOOTH",
"240 1171 OFFCURVE",
"223 1149 OFFCURVE",
"223 1128 CURVE SMOOTH",
"223 1106 OFFCURVE",
"240 1085 OFFCURVE",
"273 1085 CURVE SMOOTH",
"381 1085 LINE",
"205 86 LINE",
"91 86 LINE SMOOTH",
"59 86 OFFCURVE",
"43 65 OFFCURVE",
"43 44 CURVE SMOOTH",
"43 22 OFFCURVE",
"60 0 OFFCURVE",
"93 0 CURVE SMOOTH"
);
}
);
width = 1240;
}
);
unicode = 0048;
},
{
glyphname = Hbar;
lastChange = "2017-07-30 20:53:07 +0000";
layers = (
{
components = (
{
name = H;
}
);
layerId = "840BD324-B0A6-42B0-BD23-CB5E8C19394F";
paths = (
{
closed = 1;
nodes = (
"1106 855 LINE SMOOTH",
"1139 855 OFFCURVE",
"1147 875 OFFCURVE",
"1147 894 CURVE SMOOTH",
"1147 913 OFFCURVE",
"1141 931 OFFCURVE",
"1108 931 CURVE SMOOTH",
"149 931 LINE SMOOTH",
"114 931 OFFCURVE",
"107 913 OFFCURVE",
"107 894 CURVE SMOOTH",
"107 875 OFFCURVE",
"116 855 OFFCURVE",
"153 855 CURVE SMOOTH"
);
}
);
width = 1240;
},
{
components = (
{
name = H;
}
);
layerId = "F2E12B84-E402-48AA-89E7-06534AE23493";
paths = (
{
closed = 1;
nodes = (
"1111 780 LINE",
"1167 780 OFFCURVE",
"1191 810 OFFCURVE",
"1191 849 CURVE SMOOTH",
"1191 888 OFFCURVE",
"1158 917 OFFCURVE",
"1112 917 CURVE",
"120 917 LINE",
"64 917 OFFCURVE",
"42 889 OFFCURVE",
"42 850 CURVE SMOOTH",
"42 810 OFFCURVE",
"66 780 OFFCURVE",
"122 780 CURVE"
);
}
);
width = 1240;
},
{
layerId = "440824D2-40E3-4EBC-B94D-DAF81B1E7F5E";
width = 600;
}
);
unicode = 0126;
},
{
glyphname = I;
lastChange = "2017-08-04 23:45:04 +0000";
layers = (
{
anchors = (
{
name = bottom;
position = "{620, 0}";
},
{
name = ogonek;
position = "{1116, 10}";
},
{
name = top;
position = "{670, 1171}";
},
{
name = topleft;
position = "{20, 1171}";
}
);
layerId = "840BD324-B0A6-42B0-BD23-CB5E8C19394F";
paths = (
{
closed = 1;
nodes = (
"995 0 LINE SMOOTH",
"1028 0 OFFCURVE",
"1045 21 OFFCURVE",
"1045 43 CURVE SMOOTH",
"1045 64 OFFCURVE",
"1029 86 OFFCURVE",
"996 86 CURVE SMOOTH",
"710 86 LINE",
"710 1085 LINE",
"996 1085 LINE SMOOTH",
"1029 1085 OFFCURVE",
"1045 1106 OFFCURVE",
"1045 1127 CURVE SMOOTH",
"1045 1149 OFFCURVE",
"1028 1171 OFFCURVE",
"995 1171 CURVE SMOOTH",
"310 1171 LINE SMOOTH",
"277 1171 OFFCURVE",
"259 1149 OFFCURVE",
"259 1127 CURVE SMOOTH",
"259 1106 OFFCURVE",
"276 1085 OFFCURVE",
"309 1085 CURVE SMOOTH",
"614 1085 LINE",
"614 86 LINE",
"309 86 LINE SMOOTH",
"276 86 OFFCURVE",
"259 64 OFFCURVE",
"259 43 CURVE SMOOTH",
"259 21 OFFCURVE",
"277 0 OFFCURVE",
"310 0 CURVE SMOOTH"
);
}
);
width = 1240;
},
{
anchors = (
{
name = bottom;
position = "{620, 0}";
},
{
name = ogonek;
position = "{1116, 10}";
},
{
name = top;
position = "{620, 1171}";
},
{
name = topleft;
position = "{20, 1171}";
}
);
layerId = "F2E12B84-E402-48AA-89E7-06534AE23493";
paths = (
{
closed = 1;
nodes = (
"963 0 LINE SMOOTH",
"1026 0 OFFCURVE",
"1053 46 OFFCURVE",
"1053 88 CURVE SMOOTH",
"1053 129 OFFCURVE",
"1027 176 OFFCURVE",
"964 176 CURVE SMOOTH",
"753 176 LINE",
"753 995 LINE",
"964 995 LINE SMOOTH",
"1017 995 OFFCURVE",
"1053 1041 OFFCURVE",
"1053 1082 CURVE SMOOTH",
"1053 1124 OFFCURVE",
"1016 1171 OFFCURVE",
"963 1171 CURVE SMOOTH",
"278 1171 LINE SMOOTH",
"215 1171 OFFCURVE",
"187 1124 OFFCURVE",
"187 1082 CURVE SMOOTH",
"187 1041 OFFCURVE",
"214 995 OFFCURVE",
"277 995 CURVE SMOOTH",
"507 995 LINE",
"507 176 LINE",
"277 176 LINE SMOOTH",
"214 176 OFFCURVE",
"187 129 OFFCURVE",
"187 88 CURVE SMOOTH",
"187 46 OFFCURVE",
"215 0 OFFCURVE",
"278 0 CURVE SMOOTH"
);
}
);
width = 1240;
},
{
layerId = "440824D2-40E3-4EBC-B94D-DAF81B1E7F5E";
paths = (
{
closed = 1;
nodes = (
"896 0 LINE SMOOTH",
"929 0 OFFCURVE",
"953 19 OFFCURVE",
"953 41 CURVE SMOOTH",
"953 65 OFFCURVE",
"945 86 OFFCURVE",
"912 86 CURVE SMOOTH",
"626 86 LINE",
"800 1085 LINE",
"1086 1085 LINE SMOOTH",
"1119 1085 OFFCURVE",
"1143 1104 OFFCURVE",
"1143 1125 CURVE SMOOTH",
"1143 1150 OFFCURVE",
"1133 1171 OFFCURVE",
"1100 1171 CURVE SMOOTH",
"415 1171 LINE SMOOTH",
"382 1171 OFFCURVE",
"356 1150 OFFCURVE",
"357 1125 CURVE SMOOTH",
"358 1104 OFFCURVE",
"366 1085 OFFCURVE",
"399 1085 CURVE SMOOTH",
"704 1085 LINE",
"530 86 LINE",
"225 86 LINE SMOOTH",
"192 86 OFFCURVE",
"167 65 OFFCURVE",
"167 41 CURVE SMOOTH",
"167 19 OFFCURVE",
"178 0 OFFCURVE",
"211 0 CURVE SMOOTH"
);
}
);
width = 1240;
}
);
unicode = 0049;
},
{
glyphname = IJ;
lastChange = "2017-07-13 18:39:58 +0000";
layers = (
{
layerId = "840BD324-B0A6-42B0-BD23-CB5E8C19394F";
paths = (
{
closed = 1;
nodes = (
"838 -19 OFFCURVE",
"961 146 OFFCURVE",
"961 431 CURVE SMOOTH",
"960 1085 LINE",
"1064 1085 LINE SMOOTH",
"1097 1085 OFFCURVE",
"1113 1107 OFFCURVE",
"1113 1128 CURVE SMOOTH",
"1113 1150 OFFCURVE",
"1096 1171 OFFCURVE",
"1063 1171 CURVE SMOOTH",
"760 1171 LINE SMOOTH",
"727 1171 OFFCURVE",
"709 1149 OFFCURVE",
"709 1127 CURVE SMOOTH",
"709 1106 OFFCURVE",
"726 1085 OFFCURVE",
"759 1085 CURVE SMOOTH",
"864 1085 LINE",
"865 428 LINE",
"865 198 OFFCURVE",
"768 64 OFFCURVE",
"601 64 CURVE SMOOTH",
"447 64 OFFCURVE",
"352 154 OFFCURVE",
"352 263 CURVE SMOOTH",
"352 294 OFFCURVE",
"330 311 OFFCURVE",
"304 311 CURVE SMOOTH",
"275 311 OFFCURVE",
"254 292 OFFCURVE",
"254 263 CURVE SMOOTH",
"254 101 OFFCURVE",
"384 -19 OFFCURVE",
"601 -19 CURVE SMOOTH"
);
},
{
closed = 1;
nodes = (
"558 430 LINE SMOOTH",
"591 430 OFFCURVE",
"608 451 OFFCURVE",
"608 473 CURVE SMOOTH",
"608 494 OFFCURVE",
"592 516 OFFCURVE",
"559 516 CURVE SMOOTH",
"428 516 LINE",
"428 1085 LINE",
"547 1085 LINE SMOOTH",
"580 1085 OFFCURVE",
"596 1107 OFFCURVE",
"596 1128 CURVE SMOOTH",
"596 1150 OFFCURVE",
"579 1171 OFFCURVE",
"546 1171 CURVE SMOOTH",
"218 1171 LINE SMOOTH",
"185 1171 OFFCURVE",
"167 1149 OFFCURVE",
"167 1127 CURVE SMOOTH",
"167 1106 OFFCURVE",
"184 1085 OFFCURVE",
"217 1085 CURVE SMOOTH",
"332 1085 LINE",
"332 516 LINE",
"217 516 LINE SMOOTH",
"184 516 OFFCURVE",
"167 494 OFFCURVE",
"167 473 CURVE SMOOTH",
"167 451 OFFCURVE",
"185 430 OFFCURVE",
"218 430 CURVE SMOOTH"
);
}
);
width = 1240;
},
{
layerId = "F2E12B84-E402-48AA-89E7-06534AE23493";
paths = (
{
closed = 1;
nodes = (
"873 -29 OFFCURVE",
"1017 116 OFFCURVE",
"1016 481 CURVE SMOOTH",
"1015 995 LINE",
"1049 995 LINE SMOOTH",
"1112 995 OFFCURVE",
"1138 1046 OFFCURVE",
"1138 1087 CURVE SMOOTH",
"1138 1129 OFFCURVE",
"1111 1171 OFFCURVE",
"1048 1171 CURVE SMOOTH",
"755 1171 LINE SMOOTH",
"692 1171 OFFCURVE",
"664 1129 OFFCURVE",
"664 1087 CURVE SMOOTH",
"664 1046 OFFCURVE",
"691 995 OFFCURVE",
"754 995 CURVE SMOOTH",
"789 995 LINE",
"790 478 LINE SMOOTH",
"790 268 OFFCURVE",
"743 154 OFFCURVE",
"626 154 CURVE SMOOTH",
"535 154 OFFCURVE",
"457 212 OFFCURVE",
"457 283 CURVE SMOOTH",
"457 354 OFFCURVE",
"395 386 OFFCURVE",
"349 386 CURVE SMOOTH",
"300 386 OFFCURVE",
"239 352 OFFCURVE",
"239 283 CURVE SMOOTH",
"239 102 OFFCURVE",
"386 -29 OFFCURVE",
"626 -29 CURVE SMOOTH"
);
},
{
closed = 1;
nodes = (
"503 450 LINE SMOOTH",
"566 450 OFFCURVE",
"593 501 OFFCURVE",
"593 543 CURVE SMOOTH",
"593 584 OFFCURVE",
"567 636 OFFCURVE",
"504 636 CURVE SMOOTH",
"453 636 LINE",
"453 995 LINE",
"492 995 LINE SMOOTH",
"555 995 OFFCURVE",
"581 1046 OFFCURVE",
"581 1088 CURVE SMOOTH",
"581 1130 OFFCURVE",
"554 1171 OFFCURVE",
"491 1171 CURVE SMOOTH",
"193 1171 LINE SMOOTH",
"130 1171 OFFCURVE",
"102 1129 OFFCURVE",
"102 1087 CURVE SMOOTH",
"102 1046 OFFCURVE",
"129 995 OFFCURVE",
"192 995 CURVE SMOOTH",
"227 995 LINE",
"227 636 LINE",
"192 636 LINE SMOOTH",
"129 636 OFFCURVE",
"102 584 OFFCURVE",
"102 543 CURVE SMOOTH",
"102 501 OFFCURVE",
"130 450 OFFCURVE",
"193 450 CURVE SMOOTH"
);
}
);
width = 1240;
},
{
layerId = "440824D2-40E3-4EBC-B94D-DAF81B1E7F5E";
width = 600;
}
);
unicode = 0132;
},
{
glyphname = J;
lastChange = "2017-08-06 21:11:20 +0000";
layers = (
{
anchors = (
{
name = bottom;
position = "{620, 0}";
},
{
name = top;
position = "{730, 1171}";
}
);
layerId = "840BD324-B0A6-42B0-BD23-CB5E8C19394F";
paths = (
{
closed = 1;
nodes = (
"752 -13 OFFCURVE",
"865 142 OFFCURVE",
"865 387 CURVE SMOOTH",
"865 1085 LINE",
"1036 1085 LINE SMOOTH",
"1069 1085 OFFCURVE",
"1085 1107 OFFCURVE",
"1085 1128 CURVE SMOOTH",
"1085 1150 OFFCURVE",
"1068 1171 OFFCURVE",
"1035 1171 CURVE SMOOTH",
"400 1171 LINE SMOOTH",
"367 1171 OFFCURVE",
"351 1149 OFFCURVE",
"351 1127 CURVE SMOOTH",
"351 1106 OFFCURVE",
"367 1085 OFFCURVE",
"399 1085 CURVE SMOOTH",
"769 1085 LINE",
"769 384 LINE SMOOTH",
"769 194 OFFCURVE",
"682 70 OFFCURVE",
"500 70 CURVE SMOOTH",
"341 70 OFFCURVE",
"246 160 OFFCURVE",
"246 320 CURVE SMOOTH",
"246 352 OFFCURVE",
"224 368 OFFCURVE",
"198 368 CURVE SMOOTH",
"169 368 OFFCURVE",
"148 349 OFFCURVE",
"148 320 CURVE SMOOTH",
"148 107 OFFCURVE",
"278 -13 OFFCURVE",
"500 -13 CURVE SMOOTH"
);
}
);
width = 1240;
},
{
anchors = (
{
name = bottom;
position = "{620, 0}";
},
{
name = top;
position = "{840, 1171}";
}
);
layerId = "F2E12B84-E402-48AA-89E7-06534AE23493";
paths = (
{
closed = 1;
nodes = (
"802 -13 OFFCURVE",
"965 142 OFFCURVE",
"965 417 CURVE SMOOTH",
"965 995 LINE",
"1040 995 LINE SMOOTH",
"1103 995 OFFCURVE",
"1135 1037 OFFCURVE",
"1135 1083 CURVE SMOOTH",
"1135 1125 OFFCURVE",
"1102 1171 OFFCURVE",
"1039 1171 CURVE SMOOTH",
"416 1171 LINE SMOOTH",
"353 1171 OFFCURVE",
"321 1124 OFFCURVE",
"321 1082 CURVE SMOOTH",
"321 1036 OFFCURVE",
"353 995 OFFCURVE",
"415 995 CURVE SMOOTH",
"719 995 LINE",
"719 424 LINE SMOOTH",
"719 264 OFFCURVE",
"653 170 OFFCURVE",
"530 170 CURVE SMOOTH",
"441 170 OFFCURVE",
"356 222 OFFCURVE",
"356 320 CURVE SMOOTH",
"356 392 OFFCURVE",
"304 428 OFFCURVE",
"248 428 CURVE SMOOTH",
"189 428 OFFCURVE",
"138 389 OFFCURVE",
"138 320 CURVE SMOOTH",
"138 127 OFFCURVE",
"298 -13 OFFCURVE",
"530 -13 CURVE SMOOTH"
);
}
);
width = 1240;
},
{
layerId = "440824D2-40E3-4EBC-B94D-DAF81B1E7F5E";
width = 600;
}
);
unicode = 004A;
},
{
glyphname = K;
lastChange = "2017-07-30 20:54:45 +0000";
layers = (
{
anchors = (
{
name = bottom;
position = "{650, 0}";
},
{
name = top;
position = "{620, 1171}";
}
);
layerId = "840BD324-B0A6-42B0-BD23-CB5E8C19394F";
paths = (
{
closed = 1;
nodes = (
"519 0 LINE SMOOTH",
"552 0 OFFCURVE",
"569 21 OFFCURVE",
"569 43 CURVE SMOOTH",
"569 64 OFFCURVE",
"553 86 OFFCURVE",
"520 86 CURVE SMOOTH",
"362 86 LINE",
"362 405 LINE",
"1029 1085 LINE",
"1157 1085 LINE SMOOTH",
"1189 1085 OFFCURVE",
"1205 1105 OFFCURVE",
"1205 1127 CURVE SMOOTH",
"1205 1149 OFFCURVE",
"1189 1171 OFFCURVE",
"1156 1171 CURVE SMOOTH",
"794 1171 LINE SMOOTH",
"762 1171 OFFCURVE",
"744 1147 OFFCURVE",
"744 1127 CURVE SMOOTH",
"744 1108 OFFCURVE",
"760 1085 OFFCURVE",
"793 1085 CURVE",
"911 1085 LINE",
"358 519 LINE",
"358 1084 LINE",
"521 1084 LINE SMOOTH",
"554 1084 OFFCURVE",
"569 1105 OFFCURVE",
"569 1126 CURVE SMOOTH",
"569 1148 OFFCURVE",
"552 1171 OFFCURVE",
"519 1171 CURVE SMOOTH",
"94 1171 LINE SMOOTH",
"60 1171 OFFCURVE",
"43 1149 OFFCURVE",
"43 1127 CURVE SMOOTH",
"43 1105 OFFCURVE",
"60 1084 OFFCURVE",
"93 1084 CURVE SMOOTH",
"262 1084 LINE",
"262 86 LINE",
"93 86 LINE SMOOTH",
"60 86 OFFCURVE",
"43 64 OFFCURVE",
"43 43 CURVE SMOOTH",
"43 21 OFFCURVE",
"60 0 OFFCURVE",
"94 0 CURVE SMOOTH"
);
},
{
closed = 1;
nodes = (
"1158 0 LINE SMOOTH",
"1191 0 OFFCURVE",
"1207 21 OFFCURVE",
"1207 43 CURVE SMOOTH",
"1207 64 OFFCURVE",
"1191 86 OFFCURVE",
"1159 86 CURVE SMOOTH",
"1072 86 LINE",
"611 676 LINE",
"537 621 LINE",
"955 86 LINE",
"779 86 LINE SMOOTH",
"746 86 OFFCURVE",
"730 64 OFFCURVE",
"730 43 CURVE SMOOTH",
"730 21 OFFCURVE",
"747 0 OFFCURVE",
"780 0 CURVE SMOOTH"
);
}
);
width = 1240;
},
{
anchors = (
{
name = bottom;
position = "{630, 0}";
},
{
name = top;
position = "{620, 1171}";
}
);
layerId = "F2E12B84-E402-48AA-89E7-06534AE23493";
paths = (
{
closed = 1;
nodes = (
"509 0 LINE SMOOTH",
"572 0 OFFCURVE",
"599 46 OFFCURVE",
"599 88 CURVE SMOOTH",
"599 129 OFFCURVE",
"573 176 OFFCURVE",
"510 176 CURVE SMOOTH",
"432 176 LINE",
"432 365 LINE",
"1067 995 LINE",
"1127 995 LINE SMOOTH",
"1189 995 OFFCURVE",
"1215 1040 OFFCURVE",
"1215 1082 CURVE SMOOTH",
"1215 1124 OFFCURVE",
"1189 1171 OFFCURVE",
"1126 1171 CURVE SMOOTH",
"764 1171 LINE SMOOTH",
"702 1171 OFFCURVE",
"674 1122 OFFCURVE",
"674 1082 CURVE SMOOTH",
"674 1043 OFFCURVE",
"700 995 OFFCURVE",
"763 995 CURVE SMOOTH",
"821 995 LINE",
"428 609 LINE",
"428 994 LINE",
"521 994 LINE SMOOTH",
"584 994 OFFCURVE",
"609 1040 OFFCURVE",
"609 1081 CURVE SMOOTH",
"609 1123 OFFCURVE",
"582 1171 OFFCURVE",
"519 1171 CURVE SMOOTH",
"134 1171 LINE SMOOTH",
"70 1171 OFFCURVE",
"43 1124 OFFCURVE",
"43 1082 CURVE SMOOTH",
"43 1040 OFFCURVE",
"70 994 OFFCURVE",
"133 994 CURVE SMOOTH",
"182 994 LINE",
"182 176 LINE",
"133 176 LINE SMOOTH",
"70 176 OFFCURVE",
"43 129 OFFCURVE",
"43 88 CURVE SMOOTH",
"43 46 OFFCURVE",
"70 0 OFFCURVE",
"134 0 CURVE SMOOTH"
);
},
{
closed = 1;
nodes = (
"1136 0 LINE SMOOTH",
"1199 0 OFFCURVE",
"1225 46 OFFCURVE",
"1225 88 CURVE SMOOTH",
"1225 129 OFFCURVE",
"1199 176 OFFCURVE",
"1137 176 CURVE SMOOTH",
"1082 176 LINE",
"714 698 LINE",
"533 591 LINE",
"835 176 LINE",
"759 176 LINE SMOOTH",
"696 176 OFFCURVE",
"670 129 OFFCURVE",
"670 88 CURVE SMOOTH",
"670 46 OFFCURVE",
"697 0 OFFCURVE",
"760 0 CURVE SMOOTH"
);
}
);
width = 1240;
},
{
layerId = "440824D2-40E3-4EBC-B94D-DAF81B1E7F5E";
width = 600;
}
);
unicode = 004B;
},
{
glyphname = L;
lastChange = "2017-08-04 23:47:14 +0000";
layers = (
{
anchors = (
{
name = bottom;
position = "{708, -175}";
},
{
name = center;
position = "{620, 586}";
},
{
name = top;
position = "{440, 1171}";
},
{
name = topright;
position = "{1074, 774}";
}
);
layerId = "840BD324-B0A6-42B0-BD23-CB5E8C19394F";
paths = (
{
closed = 1;
nodes = (
"1048 0 LINE SMOOTH",
"1091 0 OFFCURVE",
"1115 29 OFFCURVE",
"1120 66 CURVE",
"1150 387 LINE",
"1150 393 LINE SMOOTH",
"1150 425 OFFCURVE",
"1127 442 OFFCURVE",
"1101 442 CURVE SMOOTH",
"1078 442 OFFCURVE",
"1057 428 OFFCURVE",
"1053 399 CURVE SMOOTH",
"1019 123 LINE SMOOTH",
"1015 92 OFFCURVE",
"998 88 OFFCURVE",
"976 86 CURVE",
"489 86 LINE",
"489 1085 LINE",
"641 1085 LINE SMOOTH",
"674 1085 OFFCURVE",
"691 1106 OFFCURVE",
"691 1127 CURVE SMOOTH",
"691 1149 OFFCURVE",
"674 1171 OFFCURVE",
"640 1171 CURVE SMOOTH",
"167 1171 LINE SMOOTH",
"134 1171 OFFCURVE",
"117 1149 OFFCURVE",
"117 1127 CURVE SMOOTH",
"117 1106 OFFCURVE",
"133 1085 OFFCURVE",
"166 1085 CURVE SMOOTH",
"393 1085 LINE",
"393 86 LINE",
"124 86 LINE SMOOTH",
"91 86 OFFCURVE",
"74 64 OFFCURVE",
"74 43 CURVE SMOOTH",
"74 21 OFFCURVE",
"91 0 OFFCURVE",
"125 0 CURVE SMOOTH"
);
}
);
width = 1240;
},
{
anchors = (
{
name = bottom;
position = "{620, 0}";
},
{
name = center;
position = "{620, 586}";
},
{
name = top;
position = "{620, 1171}";
},
{
name = topright;
position = "{1130, 651}";
}
);
layerId = "F2E12B84-E402-48AA-89E7-06534AE23493";
paths = (
{
closed = 1;
nodes = (
"1048 0 LINE SMOOTH",
"1101 0 OFFCURVE",
"1135 29 OFFCURVE",
"1140 86 CURVE",
"1170 447 LINE",
"1170 453 LINE SMOOTH",
"1170 525 OFFCURVE",
"1117 552 OFFCURVE",
"1071 552 CURVE SMOOTH",
"1028 552 OFFCURVE",
"978 528 OFFCURVE",
"969 459 CURVE SMOOTH",
"939 213 LINE SMOOTH",
"935 182 OFFCURVE",
"918 178 OFFCURVE",
"896 176 CURVE",
"539 176 LINE",
"539 995 LINE",
"621 995 LINE SMOOTH",
"684 995 OFFCURVE",
"711 1041 OFFCURVE",
"711 1082 CURVE SMOOTH",
"711 1124 OFFCURVE",
"684 1171 OFFCURVE",
"620 1171 CURVE SMOOTH",
"197 1171 LINE SMOOTH",
"134 1171 OFFCURVE",
"107 1124 OFFCURVE",
"107 1082 CURVE SMOOTH",
"107 1041 OFFCURVE",
"133 995 OFFCURVE",
"196 995 CURVE SMOOTH",
"293 995 LINE",
"293 176 LINE",
"154 176 LINE SMOOTH",
"91 176 OFFCURVE",
"64 129 OFFCURVE",
"64 88 CURVE SMOOTH",
"64 46 OFFCURVE",
"91 0 OFFCURVE",
"155 0 CURVE SMOOTH"
);
}
);
width = 1240;
},
{
layerId = "440824D2-40E3-4EBC-B94D-DAF81B1E7F5E";
paths = (
{
closed = 1;
nodes = (
"976 0 LINE SMOOTH",
"1019 0 OFFCURVE",
"1048 29 OFFCURVE",
"1059 66 CURVE",
"1145 387 LINE",
"1146 393 LINE SMOOTH",
"1151 425 OFFCURVE",
"1132 442 OFFCURVE",
"1106 442 CURVE SMOOTH",
"1083 442 OFFCURVE",
"1059 428 OFFCURVE",
"1050 399 CURVE SMOOTH",
"968 123 LINE SMOOTH",
"959 92 OFFCURVE",
"941 88 OFFCURVE",
"919 86 CURVE",
"432 86 LINE",
"606 1085 LINE",
"758 1085 LINE SMOOTH",
"791 1085 OFFCURVE",
"816 1103 OFFCURVE",
"816 1134 CURVE SMOOTH",
"816 1156 OFFCURVE",
"806 1171 OFFCURVE",
"772 1171 CURVE SMOOTH",
"299 1171 LINE SMOOTH",
"266 1171 OFFCURVE",
"242 1153 OFFCURVE",
"242 1123 CURVE SMOOTH",
"242 1101 OFFCURVE",
"250 1085 OFFCURVE",
"283 1085 CURVE SMOOTH",
"510 1085 LINE",
"336 86 LINE",
"67 86 LINE SMOOTH",
"34 86 OFFCURVE",
"9 64 OFFCURVE",
"9 40 CURVE SMOOTH",
"9 18 OFFCURVE",
"19 0 OFFCURVE",
"53 0 CURVE SMOOTH"
);
}
);
width = 1240;
}
);
unicode = 004C;
},
{
glyphname = LJ;
lastChange = "2017-07-13 18:39:58 +0000";
layers = (
{
layerId = "840BD324-B0A6-42B0-BD23-CB5E8C19394F";
paths = (
{
closed = 1;
nodes = (
"600 0 LINE SMOOTH",
"643 0 OFFCURVE",
"667 29 OFFCURVE",
"672 66 CURVE",
"702 387 LINE",
"702 393 LINE SMOOTH",
"702 424 OFFCURVE",
"681 442 OFFCURVE",
"655 442 CURVE SMOOTH",
"632 442 OFFCURVE",
"615 428 OFFCURVE",
"611 399 CURVE SMOOTH",
"577 123 LINE SMOOTH",
"573 92 OFFCURVE",
"558 88 OFFCURVE",
"536 86 CURVE",
"234 86 LINE",
"234 1085 LINE",
"416 1085 LINE SMOOTH",
"449 1085 OFFCURVE",
"466 1106 OFFCURVE",
"466 1127 CURVE SMOOTH",
"466 1149 OFFCURVE",
"449 1171 OFFCURVE",
"415 1171 CURVE SMOOTH",
"56 1171 LINE SMOOTH",
"23 1171 OFFCURVE",
"6 1149 OFFCURVE",
"6 1127 CURVE SMOOTH",
"6 1106 OFFCURVE",
"22 1085 OFFCURVE",
"55 1085 CURVE SMOOTH",
"138 1085 LINE",
"138 86 LINE",
"63 86 LINE SMOOTH",
"30 86 OFFCURVE",
"13 64 OFFCURVE",
"13 43 CURVE SMOOTH",
"13 21 OFFCURVE",
"30 0 OFFCURVE",
"64 0 CURVE SMOOTH"
);
},
{
closed = 1;
nodes = (
"816 129 OFFCURVE",
"786 124 OFFCURVE",
"770 100 CURVE SMOOTH",
"757 81 OFFCURVE",
"767 51 OFFCURVE",
"783 37 CURVE SMOOTH",
"822 4 OFFCURVE",
"869 -13 OFFCURVE",
"924 -13 CURVE SMOOTH",
"1058 -13 OFFCURVE",
"1154 72 OFFCURVE",
"1154 367 CURVE SMOOTH",
"1154 1085 LINE",
"1225 1085 LINE SMOOTH",
"1258 1085 OFFCURVE",
"1274 1107 OFFCURVE",
"1274 1128 CURVE SMOOTH",
"1274 1150 OFFCURVE",
"1257 1171 OFFCURVE",
"1224 1171 CURVE SMOOTH",
"829 1171 LINE SMOOTH",
"796 1171 OFFCURVE",
"780 1149 OFFCURVE",
"780 1127 CURVE SMOOTH",
"780 1106 OFFCURVE",
"796 1085 OFFCURVE",
"828 1085 CURVE SMOOTH",
"1053 1085 LINE",
"1053 364 LINE SMOOTH",
"1053 149 OFFCURVE",
"1000 73 OFFCURVE",
"924 73 CURVE SMOOTH",
"893 73 OFFCURVE",
"867 95 OFFCURVE",
"841 112 CURVE SMOOTH"
);
}
);
width = 1240;
},
{
layerId = "F2E12B84-E402-48AA-89E7-06534AE23493";
paths = (
{
closed = 1;
nodes = (
"560 0 LINE SMOOTH",
"603 0 OFFCURVE",
"627 29 OFFCURVE",
"632 66 CURVE",
"662 347 LINE",
"662 353 LINE SMOOTH",
"662 425 OFFCURVE",
"621 442 OFFCURVE",
"585 442 CURVE SMOOTH",
"552 442 OFFCURVE",
"517 428 OFFCURVE",
"508 379 CURVE SMOOTH",
"477 203 LINE SMOOTH",
"472 172 OFFCURVE",
"458 168 OFFCURVE",
"436 166 CURVE",
"334 166 LINE",
"334 995 LINE",
"406 995 LINE SMOOTH",
"469 995 OFFCURVE",
"496 1041 OFFCURVE",
"496 1082 CURVE SMOOTH",
"496 1124 OFFCURVE",
"469 1171 OFFCURVE",
"405 1171 CURVE SMOOTH",
"96 1171 LINE SMOOTH",
"33 1171 OFFCURVE",
"6 1124 OFFCURVE",
"6 1082 CURVE SMOOTH",
"6 1041 OFFCURVE",
"32 995 OFFCURVE",
"95 995 CURVE SMOOTH",
"118 995 LINE",
"118 166 LINE",
"83 166 LINE SMOOTH",
"40 166 OFFCURVE",
"13 124 OFFCURVE",
"13 83 CURVE SMOOTH",
"13 50 OFFCURVE",
"40 0 OFFCURVE",
"84 0 CURVE SMOOTH"
);
},
{
closed = 1;
nodes = (
"828 223 OFFCURVE",
"764 235 OFFCURVE",
"727 199 CURVE SMOOTH",
"693 166 OFFCURVE",
"687 114 OFFCURVE",
"706 80 CURVE SMOOTH",
"738 24 OFFCURVE",
"824 -13 OFFCURVE",
"904 -13 CURVE SMOOTH",
"1088 -13 OFFCURVE",
"1174 72 OFFCURVE",
"1174 367 CURVE SMOOTH",
"1174 995 LINE",
"1185 995 LINE SMOOTH",
"1248 995 OFFCURVE",
"1274 1042 OFFCURVE",
"1274 1083 CURVE SMOOTH",
"1274 1125 OFFCURVE",
"1247 1171 OFFCURVE",
"1184 1171 CURVE SMOOTH",
"819 1171 LINE SMOOTH",
"756 1171 OFFCURVE",
"730 1124 OFFCURVE",
"730 1082 CURVE SMOOTH",
"730 1041 OFFCURVE",
"756 995 OFFCURVE",
"818 995 CURVE SMOOTH",
"973 995 LINE",
"973 364 LINE SMOOTH",
"973 219 OFFCURVE",
"949 153 OFFCURVE",
"904 153 CURVE SMOOTH",
"884 153 OFFCURVE",
"865 171 OFFCURVE",
"858 180 CURVE SMOOTH"
);
}
);
width = 1240;
},
{
layerId = "440824D2-40E3-4EBC-B94D-DAF81B1E7F5E";
width = 600;
}
);
unicode = 01C7;
},
{
glyphname = Ldot;
lastChange = "2017-08-06 21:11:47 +0000";
layers = (
{
anchors = (
{
name = bottom;
position = "{708, -175}";
},
{
name = center;
position = "{620, 586}";
},
{
name = top;
position = "{440, 1171}";
},
{
name = topright;
position = "{1074, 774}";
}
);
components = (
{
alignment = -1;
name = dotaccentcomb;
transform = "{1, 0, 0, 1, 485, 91}";
}
);
layerId = "840BD324-B0A6-42B0-BD23-CB5E8C19394F";
paths = (
{
closed = 1;
nodes = (
"1048 0 LINE SMOOTH",
"1091 0 OFFCURVE",
"1115 29 OFFCURVE",
"1120 66 CURVE",
"1150 387 LINE",
"1150 393 LINE SMOOTH",
"1150 425 OFFCURVE",
"1127 442 OFFCURVE",
"1101 442 CURVE SMOOTH",
"1078 442 OFFCURVE",
"1057 428 OFFCURVE",
"1053 399 CURVE SMOOTH",
"1019 123 LINE SMOOTH",
"1015 92 OFFCURVE",
"998 88 OFFCURVE",
"976 86 CURVE",
"489 86 LINE",
"489 1085 LINE",
"641 1085 LINE SMOOTH",
"674 1085 OFFCURVE",
"691 1106 OFFCURVE",
"691 1127 CURVE SMOOTH",
"691 1149 OFFCURVE",
"674 1171 OFFCURVE",
"640 1171 CURVE SMOOTH",
"167 1171 LINE SMOOTH",
"134 1171 OFFCURVE",
"117 1149 OFFCURVE",
"117 1127 CURVE SMOOTH",
"117 1106 OFFCURVE",
"133 1085 OFFCURVE",
"166 1085 CURVE SMOOTH",
"393 1085 LINE",
"393 86 LINE",
"124 86 LINE SMOOTH",
"91 86 OFFCURVE",
"74 64 OFFCURVE",
"74 43 CURVE SMOOTH",
"74 21 OFFCURVE",
"91 0 OFFCURVE",
"125 0 CURVE SMOOTH"
);
}
);
width = 1240;
},
{
anchors = (
{
name = bottom;
position = "{620, 0}";
},
{
name = center;
position = "{620, 586}";
},
{
name = top;
position = "{620, 1171}";
},
{
name = topright;
position = "{1130, 651}";
}
);
components = (
{
alignment = -1;
name = dotaccentcomb;
transform = "{1, 0, 0, 1, 418, -223}";
}
);
layerId = "F2E12B84-E402-48AA-89E7-06534AE23493";
paths = (
{
closed = 1;
nodes = (
"1048 0 LINE SMOOTH",
"1101 0 OFFCURVE",
"1135 29 OFFCURVE",
"1140 86 CURVE",
"1170 408 LINE",
"1170 414 LINE SMOOTH",
"1170 486 OFFCURVE",
"1117 513 OFFCURVE",
"1071 513 CURVE SMOOTH",
"1028 513 OFFCURVE",
"979 489 OFFCURVE",
"969 420 CURVE SMOOTH",
"939 213 LINE SMOOTH",
"935 182 OFFCURVE",
"918 178 OFFCURVE",
"896 176 CURVE",
"539 176 LINE",
"539 995 LINE",
"621 995 LINE SMOOTH",
"684 995 OFFCURVE",
"711 1041 OFFCURVE",
"711 1082 CURVE SMOOTH",
"711 1124 OFFCURVE",
"684 1171 OFFCURVE",
"620 1171 CURVE SMOOTH",
"197 1171 LINE SMOOTH",
"134 1171 OFFCURVE",
"107 1124 OFFCURVE",
"107 1082 CURVE SMOOTH",
"107 1041 OFFCURVE",
"133 995 OFFCURVE",
"196 995 CURVE SMOOTH",
"293 995 LINE",
"293 176 LINE",
"154 176 LINE SMOOTH",
"91 176 OFFCURVE",
"64 129 OFFCURVE",
"64 88 CURVE SMOOTH",
"64 46 OFFCURVE",
"91 0 OFFCURVE",
"155 0 CURVE SMOOTH"
);
}
);
width = 1240;
},
{
layerId = "440824D2-40E3-4EBC-B94D-DAF81B1E7F5E";
width = 600;
}
);
unicode = 013F;
},
{
glyphname = Lj;
lastChange = "2017-07-13 18:39:58 +0000";
layers = (
{
layerId = "840BD324-B0A6-42B0-BD23-CB5E8C19394F";
paths = (
{
closed = 1;
nodes = (
"719 0 LINE SMOOTH",
"762 0 OFFCURVE",
"786 29 OFFCURVE",
"791 66 CURVE",
"821 387 LINE",
"821 393 LINE SMOOTH",
"821 425 OFFCURVE",
"801 442 OFFCURVE",
"775 442 CURVE SMOOTH",
"752 442 OFFCURVE",
"734 428 OFFCURVE",
"730 399 CURVE SMOOTH",
"696 123 LINE SMOOTH",
"692 92 OFFCURVE",
"677 88 OFFCURVE",
"655 86 CURVE",
"353 86 LINE",
"353 1085 LINE",
"465 1085 LINE SMOOTH",
"498 1085 OFFCURVE",
"515 1106 OFFCURVE",
"515 1127 CURVE SMOOTH",
"515 1149 OFFCURVE",
"498 1171 OFFCURVE",
"464 1171 CURVE SMOOTH",
"155 1171 LINE SMOOTH",
"122 1171 OFFCURVE",
"105 1149 OFFCURVE",
"105 1127 CURVE SMOOTH",
"105 1106 OFFCURVE",
"121 1085 OFFCURVE",
"154 1085 CURVE SMOOTH",
"257 1085 LINE",
"257 86 LINE",
"112 86 LINE SMOOTH",
"79 86 OFFCURVE",
"62 64 OFFCURVE",
"62 43 CURVE SMOOTH",
"62 21 OFFCURVE",
"79 0 OFFCURVE",
"113 0 CURVE SMOOTH"
);
},
{
closed = 1;
nodes = (
"973 -309 OFFCURVE",
"1116 -198 OFFCURVE",
"1116 50 CURVE SMOOTH",
"1116 785 LINE SMOOTH",
"1116 806 OFFCURVE",
"1100 816 OFFCURVE",
"1080 814 CURVE SMOOTH",
"750 784 LINE SMOOTH",
"724 782 OFFCURVE",
"710 765 OFFCURVE",
"710 745 CURVE SMOOTH",
"710 724 OFFCURVE",
"725 699 OFFCURVE",
"754 702 CURVE SMOOTH",
"1020 730 LINE",
"1020 50 LINE SMOOTH",
"1020 -155 OFFCURVE",
"910 -220 OFFCURVE",
"735 -220 CURVE SMOOTH",
"696 -220 OFFCURVE",
"677 -243 OFFCURVE",
"677 -265 CURVE SMOOTH",
"677 -287 OFFCURVE",
"695 -309 OFFCURVE",
"728 -309 CURVE SMOOTH"
);
},
{
closed = 1;
nodes = (
"1072 990 OFFCURVE",
"1112 1029 OFFCURVE",
"1112 1080 CURVE SMOOTH",
"1112 1130 OFFCURVE",
"1072 1171 OFFCURVE",
"1022 1171 CURVE SMOOTH",
"971 1171 OFFCURVE",
"931 1130 OFFCURVE",
"931 1080 CURVE SMOOTH",
"931 1029 OFFCURVE",
"971 990 OFFCURVE",
"1022 990 CURVE SMOOTH"
);
}
);
width = 1240;
},
{
layerId = "F2E12B84-E402-48AA-89E7-06534AE23493";
paths = (
{
closed = 1;
nodes = (
"719 0 LINE SMOOTH",
"762 0 OFFCURVE",
"786 29 OFFCURVE",
"791 66 CURVE",
"821 336 LINE",
"822 345 LINE SMOOTH",
"830 421 OFFCURVE",
"791 442 OFFCURVE",
"755 442 CURVE SMOOTH",
"722 442 OFFCURVE",
"677 428 OFFCURVE",
"667 369 CURVE SMOOTH",
"637 183 LINE SMOOTH",
"632 152 OFFCURVE",
"617 148 OFFCURVE",
"595 146 CURVE",
"433 146 LINE",
"433 1025 LINE",
"455 1025 LINE SMOOTH",
"508 1025 OFFCURVE",
"535 1056 OFFCURVE",
"535 1097 CURVE SMOOTH",
"535 1139 OFFCURVE",
"508 1171 OFFCURVE",
"454 1171 CURVE SMOOTH",
"155 1171 LINE SMOOTH",
"102 1171 OFFCURVE",
"75 1139 OFFCURVE",
"75 1097 CURVE SMOOTH",
"75 1056 OFFCURVE",
"101 1025 OFFCURVE",
"154 1025 CURVE SMOOTH",
"187 1025 LINE",
"187 146 LINE",
"112 146 LINE SMOOTH",
"59 146 OFFCURVE",
"32 114 OFFCURVE",
"32 73 CURVE SMOOTH",
"32 31 OFFCURVE",
"59 0 OFFCURVE",
"113 0 CURVE SMOOTH"
);
},
{
closed = 1;
nodes = (
"1003 -329 OFFCURVE",
"1146 -178 OFFCURVE",
"1146 130 CURVE SMOOTH",
"1146 785 LINE SMOOTH",
"1146 806 OFFCURVE",
"1130 816 OFFCURVE",
"1110 814 CURVE SMOOTH",
"760 776 LINE SMOOTH",
"714 771 OFFCURVE",
"680 735 OFFCURVE",
"680 695 CURVE SMOOTH",
"680 654 OFFCURVE",
"716 609 OFFCURVE",
"784 616 CURVE SMOOTH",
"940 633 LINE",
"940 70 LINE SMOOTH",
"940 -75 OFFCURVE",
"830 -140 OFFCURVE",
"745 -140 CURVE SMOOTH",
"685 -140 OFFCURVE",
"657 -193 OFFCURVE",
"657 -235 CURVE SMOOTH",
"657 -277 OFFCURVE",
"685 -329 OFFCURVE",
"748 -329 CURVE SMOOTH"
);
},
{
closed = 1;
nodes = (
"1101 944 OFFCURVE",
"1167 1004 OFFCURVE",
"1167 1079 CURVE SMOOTH",
"1167 1152 OFFCURVE",
"1101 1215 OFFCURVE",
"1018 1215 CURVE SMOOTH",
"934 1215 OFFCURVE",
"868 1152 OFFCURVE",
"868 1079 CURVE SMOOTH",
"868 1004 OFFCURVE",
"934 944 OFFCURVE",
"1018 944 CURVE SMOOTH"
);
}
);
width = 1240;
},
{
layerId = "440824D2-40E3-4EBC-B94D-DAF81B1E7F5E";
width = 600;
}
);
unicode = 01C8;
},
{
glyphname = Lslash;
lastChange = "2017-07-30 21:01:03 +0000";
layers = (
{
components = (
{
name = L;
}
);
layerId = "840BD324-B0A6-42B0-BD23-CB5E8C19394F";
paths = (
{
closed = 1;
nodes = (
"199 438 OFFCURVE",
"207 438 OFFCURVE",
"215 441 CURVE SMOOTH",
"760 665 LINE SMOOTH",
"786 676 OFFCURVE",
"798 683 OFFCURVE",
"798 702 CURVE SMOOTH",
"798 730 OFFCURVE",
"782 748 OFFCURVE",
"757 748 CURVE SMOOTH",
"751 748 OFFCURVE",
"745 748 OFFCURVE",
"738 745 CURVE SMOOTH",
"193 524 LINE SMOOTH",
"166 513 OFFCURVE",
"153 503 OFFCURVE",
"153 484 CURVE SMOOTH",
"153 456 OFFCURVE",
"168 438 OFFCURVE",
"193 438 CURVE SMOOTH"
);
}
);
width = 1240;
},
{
components = (
{
name = L;
}
);
layerId = "F2E12B84-E402-48AA-89E7-06534AE23493";
paths = (
{
closed = 1;
nodes = (
"173 379 OFFCURVE",
"196 384 OFFCURVE",
"212 391 CURVE SMOOTH",
"694 591 LINE SMOOTH",
"745 612 OFFCURVE",
"768 636 OFFCURVE",
"768 673 CURVE SMOOTH",
"768 721 OFFCURVE",
"737 756 OFFCURVE",
"688 756 CURVE SMOOTH",
"676 756 OFFCURVE",
"653 751 OFFCURVE",
"638 745 CURVE SMOOTH",
"161 547 LINE SMOOTH",
"107 525 OFFCURVE",
"83 506 OFFCURVE",
"83 469 CURVE SMOOTH",
"83 414 OFFCURVE",
"113 379 OFFCURVE",
"161 379 CURVE SMOOTH"
);
}
);
width = 1240;
},
{
layerId = "440824D2-40E3-4EBC-B94D-DAF81B1E7F5E";
width = 600;
}
);
unicode = 0141;
},
{
glyphname = M;
lastChange = "2017-07-27 18:42:55 +0000";
layers = (
{
anchors = (
{
name = bottom;
position = "{620, 0}";
},
{
name = top;
position = "{620, 1171}";
}
);
layerId = "840BD324-B0A6-42B0-BD23-CB5E8C19394F";
paths = (
{
closed = 1;
nodes = (
"417 0 LINE SMOOTH",
"451 0 OFFCURVE",
"468 22 OFFCURVE",
"468 44 CURVE SMOOTH",
"468 65 OFFCURVE",
"452 86 OFFCURVE",
"418 86 CURVE SMOOTH",
"295 86 LINE",
"295 940 LINE",
"295 978 LINE",
"310 945 LINE",
"567 385 LINE SMOOTH",
"581 355 OFFCURVE",
"601 342 OFFCURVE",
"625 342 CURVE SMOOTH",
"650 342 OFFCURVE",
"670 353 OFFCURVE",
"684 385 CURVE SMOOTH",
"936 946 LINE",
"951 979 LINE",
"951 935 LINE",
"951 86 LINE",
"815 86 LINE SMOOTH",
"782 86 OFFCURVE",
"766 65 OFFCURVE",
"766 44 CURVE SMOOTH",
"766 22 OFFCURVE",
"783 0 OFFCURVE",
"817 0 CURVE SMOOTH",
"1170 0 LINE SMOOTH",
"1203 0 OFFCURVE",
"1220 22 OFFCURVE",
"1220 44 CURVE SMOOTH",
"1220 65 OFFCURVE",
"1204 86 OFFCURVE",
"1172 86 CURVE SMOOTH",
"1044 86 LINE",
"1044 1085 LINE",
"1157 1085 LINE SMOOTH",
"1190 1085 OFFCURVE",
"1207 1106 OFFCURVE",
"1207 1127 CURVE SMOOTH",
"1207 1149 OFFCURVE",
"1190 1171 OFFCURVE",
"1156 1171 CURVE SMOOTH",
"974 1171 LINE SMOOTH",
"952 1171 OFFCURVE",
"937 1158 OFFCURVE",
"929 1141 CURVE SMOOTH",
"630 470 LINE",
"318 1136 LINE SMOOTH",
"310 1154 OFFCURVE",
"296 1171 OFFCURVE",
"272 1171 CURVE SMOOTH",
"84 1171 LINE SMOOTH",
"51 1171 OFFCURVE",
"34 1149 OFFCURVE",
"34 1127 CURVE SMOOTH",
"34 1106 OFFCURVE",
"50 1085 OFFCURVE",
"83 1085 CURVE SMOOTH",
"203 1085 LINE",
"203 86 LINE",
"69 86 LINE SMOOTH",
"36 86 OFFCURVE",
"20 64 OFFCURVE",
"20 43 CURVE SMOOTH",
"20 21 OFFCURVE",
"37 0 OFFCURVE",
"70 0 CURVE SMOOTH"
);
}
);
width = 1240;
},
{
anchors = (
{
name = bottom;
position = "{620, 0}";
},
{
name = top;
position = "{620, 1171}";
}
);
layerId = "F2E12B84-E402-48AA-89E7-06534AE23493";
paths = (
{
closed = 1;
nodes = (
"417 0 LINE SMOOTH",
"471 0 OFFCURVE",
"498 47 OFFCURVE",
"498 89 CURVE SMOOTH",
"498 135 OFFCURVE",
"472 176 OFFCURVE",
"418 176 CURVE SMOOTH",
"375 176 LINE",
"375 648 LINE",
"375 728 LINE",
"406 660 LINE",
"567 395 LINE SMOOTH",
"585 365 OFFCURVE",
"601 352 OFFCURVE",
"625 352 CURVE SMOOTH",
"650 352 OFFCURVE",
"665 362 OFFCURVE",
"684 395 CURVE SMOOTH",
"836 667 LINE",
"861 729 LINE",
"861 661 LINE",
"861 176 LINE",
"815 176 LINE SMOOTH",
"762 176 OFFCURVE",
"736 135 OFFCURVE",
"736 89 CURVE SMOOTH",
"736 47 OFFCURVE",
"763 0 OFFCURVE",
"817 0 CURVE SMOOTH",
"1130 0 LINE SMOOTH",
"1183 0 OFFCURVE",
"1210 47 OFFCURVE",
"1210 89 CURVE SMOOTH",
"1210 130 OFFCURVE",
"1184 176 OFFCURVE",
"1132 176 CURVE SMOOTH",
"1074 176 LINE",
"1074 995 LINE",
"1117 995 LINE SMOOTH",
"1170 995 OFFCURVE",
"1207 1041 OFFCURVE",
"1207 1082 CURVE SMOOTH",
"1207 1124 OFFCURVE",
"1180 1171 OFFCURVE",
"1116 1171 CURVE SMOOTH",
"979 1171 LINE SMOOTH",
"947 1171 OFFCURVE",
"924 1158 OFFCURVE",
"908 1132 CURVE SMOOTH",
"636 690 LINE",
"353 1129 LINE SMOOTH",
"337 1154 OFFCURVE",
"316 1171 OFFCURVE",
"282 1171 CURVE SMOOTH",
"124 1171 LINE SMOOTH",
"61 1171 OFFCURVE",
"34 1124 OFFCURVE",
"34 1082 CURVE SMOOTH",
"34 1041 OFFCURVE",
"60 995 OFFCURVE",
"123 995 CURVE SMOOTH",
"168 995 LINE",
"168 176 LINE",
"109 176 LINE SMOOTH",
"56 176 OFFCURVE",
"30 129 OFFCURVE",
"30 88 CURVE SMOOTH",
"30 46 OFFCURVE",
"57 0 OFFCURVE",
"110 0 CURVE SMOOTH"
);
}
);
width = 1240;
},
{
layerId = "440824D2-40E3-4EBC-B94D-DAF81B1E7F5E";
width = 600;
}
);
unicode = 004D;
},
{
glyphname = N;
lastChange = "2017-08-04 23:45:57 +0000";
layers = (
{
anchors = (
{
name = bottom;
position = "{680, -140}";
},
{
name = top;
position = "{620, 1171}";
}
);
layerId = "840BD324-B0A6-42B0-BD23-CB5E8C19394F";
paths = (
{
closed = 1;
nodes = (
"1005 -16 OFFCURVE",
"1027 4 OFFCURVE",
"1027 47 CURVE SMOOTH",
"1027 1085 LINE",
"1127 1085 LINE SMOOTH",
"1159 1085 OFFCURVE",
"1175 1106 OFFCURVE",
"1175 1127 CURVE SMOOTH",
"1175 1149 OFFCURVE",
"1158 1171 OFFCURVE",
"1125 1171 CURVE SMOOTH",
"786 1171 LINE SMOOTH",
"752 1171 OFFCURVE",
"735 1149 OFFCURVE",
"735 1127 CURVE SMOOTH",
"735 1106 OFFCURVE",
"751 1085 OFFCURVE",
"784 1085 CURVE SMOOTH",
"936 1085 LINE",
"939 176 LINE",
"407 1147 LINE SMOOTH",
"398 1163 OFFCURVE",
"389 1171 OFFCURVE",
"367 1171 CURVE SMOOTH",
"120 1171 LINE SMOOTH",
"87 1171 OFFCURVE",
"70 1149 OFFCURVE",
"70 1127 CURVE SMOOTH",
"70 1106 OFFCURVE",
"86 1085 OFFCURVE",
"119 1085 CURVE SMOOTH",
"267 1085 LINE",
"267 86 LINE",
"149 86 LINE SMOOTH",
"116 86 OFFCURVE",
"100 64 OFFCURVE",
"100 43 CURVE SMOOTH",
"100 21 OFFCURVE",
"117 0 OFFCURVE",
"150 0 CURVE SMOOTH",
"498 0 LINE SMOOTH",
"531 0 OFFCURVE",
"548 21 OFFCURVE",
"548 43 CURVE SMOOTH",
"548 64 OFFCURVE",
"532 86 OFFCURVE",
"499 86 CURVE SMOOTH",
"361 86 LINE",
"361 1042 LINE",
"924 22 LINE SMOOTH",
"938 -3 OFFCURVE",
"958 -16 OFFCURVE",
"979 -16 CURVE SMOOTH"
);
}
);
width = 1240;
},
{
anchors = (
{
name = bottom;
position = "{620, 0}";
},
{
name = top;
position = "{620, 1171}";
}
);
layerId = "F2E12B84-E402-48AA-89E7-06534AE23493";
paths = (
{
closed = 1;
nodes = (
"1038 -16 OFFCURVE",
"1067 4 OFFCURVE",
"1067 47 CURVE SMOOTH",
"1067 995 LINE",
"1106 995 LINE SMOOTH",
"1168 995 OFFCURVE",
"1195 1041 OFFCURVE",
"1195 1082 CURVE SMOOTH",
"1195 1124 OFFCURVE",
"1168 1171 OFFCURVE",
"1105 1171 CURVE SMOOTH",
"776 1171 LINE SMOOTH",
"712 1171 OFFCURVE",
"685 1124 OFFCURVE",
"685 1082 CURVE SMOOTH",
"685 1041 OFFCURVE",
"711 995 OFFCURVE",
"774 995 CURVE SMOOTH",
"856 995 LINE",
"859 496 LINE",
"392 1128 LINE SMOOTH",
"375 1151 OFFCURVE",
"359 1171 OFFCURVE",
"327 1171 CURVE SMOOTH",
"140 1171 LINE SMOOTH",
"77 1171 OFFCURVE",
"50 1124 OFFCURVE",
"50 1082 CURVE SMOOTH",
"50 1041 OFFCURVE",
"76 995 OFFCURVE",
"139 995 CURVE SMOOTH",
"187 995 LINE",
"187 176 LINE",
"149 176 LINE SMOOTH",
"86 176 OFFCURVE",
"60 129 OFFCURVE",
"60 88 CURVE SMOOTH",
"60 46 OFFCURVE",
"87 0 OFFCURVE",
"150 0 CURVE SMOOTH",
"478 0 LINE SMOOTH",
"541 0 OFFCURVE",
"568 46 OFFCURVE",
"568 88 CURVE SMOOTH",
"568 129 OFFCURVE",
"542 176 OFFCURVE",
"479 176 CURVE SMOOTH",
"411 176 LINE",
"411 712 LINE",
"920 39 LINE SMOOTH",
"951 -2 OFFCURVE",
"978 -16 OFFCURVE",
"1009 -16 CURVE SMOOTH"
);
}
);
width = 1240;
},
{
layerId = "440824D2-40E3-4EBC-B94D-DAF81B1E7F5E";
paths = (
{
closed = 1;
nodes = (
"898 -16 OFFCURVE",
"924 4 OFFCURVE",
"933 47 CURVE SMOOTH",
"1150 1085 LINE",
"1250 1085 LINE SMOOTH",
"1282 1085 OFFCURVE",
"1307 1106 OFFCURVE",
"1307 1134 CURVE SMOOTH",
"1307 1155 OFFCURVE",
"1299 1171 OFFCURVE",
"1266 1171 CURVE SMOOTH",
"927 1171 LINE SMOOTH",
"893 1171 OFFCURVE",
"867 1155 OFFCURVE",
"867 1124 CURVE SMOOTH",
"867 1104 OFFCURVE",
"874 1085 OFFCURVE",
"907 1085 CURVE SMOOTH",
"1059 1085 LINE",
"870 176 LINE",
"543 1147 LINE SMOOTH",
"538 1163 OFFCURVE",
"530 1171 OFFCURVE",
"508 1171 CURVE SMOOTH",
"261 1171 LINE SMOOTH",
"228 1171 OFFCURVE",
"202 1154 OFFCURVE",
"202 1124 CURVE SMOOTH",
"202 1103 OFFCURVE",
"209 1085 OFFCURVE",
"242 1085 CURVE SMOOTH",
"390 1085 LINE",
"181 86 LINE",
"63 86 LINE SMOOTH",
"30 86 OFFCURVE",
"5 64 OFFCURVE",
"5 39 CURVE SMOOTH",
"5 21 OFFCURVE",
"13 0 OFFCURVE",
"46 0 CURVE SMOOTH",
"394 0 LINE SMOOTH",
"427 0 OFFCURVE",
"453 21 OFFCURVE",
"453 47 CURVE SMOOTH",
"453 64 OFFCURVE",
"446 86 OFFCURVE",
"413 86 CURVE SMOOTH",
"275 86 LINE",
"477 1052 LINE",
"825 22 LINE SMOOTH",
"834 -3 OFFCURVE",
"851 -16 OFFCURVE",
"872 -16 CURVE SMOOTH"
);
}
);
width = 1240;
}
);
unicode = 004E;
},
{
glyphname = NJ;
lastChange = "2017-07-30 22:04:21 +0000";
layers = (
{
layerId = "840BD324-B0A6-42B0-BD23-CB5E8C19394F";
paths = (
{
closed = 1;
nodes = (
"1058 149 OFFCURVE",
"997 73 OFFCURVE",
"921 73 CURVE SMOOTH",
"890 73 OFFCURVE",
"864 95 OFFCURVE",
"838 112 CURVE SMOOTH",
"813 129 OFFCURVE",
"783 124 OFFCURVE",
"767 100 CURVE SMOOTH",
"754 81 OFFCURVE",
"764 51 OFFCURVE",
"780 37 CURVE SMOOTH",
"818 3 OFFCURVE",
"866 -13 OFFCURVE",
"921 -13 CURVE SMOOTH",
"1055 -13 OFFCURVE",
"1151 72 OFFCURVE",
"1151 367 CURVE SMOOTH",
"1151 1085 LINE",
"1225 1085 LINE SMOOTH",
"1258 1085 OFFCURVE",
"1274 1107 OFFCURVE",
"1274 1128 CURVE SMOOTH",
"1274 1150 OFFCURVE",
"1257 1171 OFFCURVE",
"1224 1171 CURVE SMOOTH",
"506 1171 LINE SMOOTH",
"472 1171 OFFCURVE",
"455 1149 OFFCURVE",
"455 1127 CURVE SMOOTH",
"455 1106 OFFCURVE",
"471 1085 OFFCURVE",
"504 1085 CURVE SMOOTH",
"595 1085 LINE",
"595 257 LINE",
"273 1147 LINE SMOOTH",
"267 1164 OFFCURVE",
"255 1171 OFFCURVE",
"233 1171 CURVE SMOOTH",
"80 1171 LINE SMOOTH",
"47 1171 OFFCURVE",
"30 1149 OFFCURVE",
"30 1127 CURVE SMOOTH",
"30 1106 OFFCURVE",
"46 1085 OFFCURVE",
"79 1085 CURVE SMOOTH",
"135 1085 LINE",
"135 86 LINE",
"99 86 LINE SMOOTH",
"66 86 OFFCURVE",
"50 64 OFFCURVE",
"50 43 CURVE SMOOTH",
"50 21 OFFCURVE",
"67 0 OFFCURVE",
"100 0 CURVE SMOOTH",
"298 0 LINE SMOOTH",
"331 0 OFFCURVE",
"348 21 OFFCURVE",
"348 43 CURVE SMOOTH",
"348 64 OFFCURVE",
"332 86 OFFCURVE",
"299 86 CURVE SMOOTH",
"225 86 LINE",
"225 1024 LINE",
"594 28 LINE SMOOTH",
"603 3 OFFCURVE",
"619 -10 OFFCURVE",
"640 -10 CURVE SMOOTH",
"666 -10 OFFCURVE",
"682 10 OFFCURVE",
"682 53 CURVE SMOOTH",
"682 1085 LINE",
"1058 1085 LINE",
"1058 364 LINE SMOOTH"
);
}
);
width = 1240;
},
{
layerId = "F2E12B84-E402-48AA-89E7-06534AE23493";
paths = (
{
closed = 1;
nodes = (
"990 219 OFFCURVE",
"966 153 OFFCURVE",
"911 153 CURVE SMOOTH",
"881 153 OFFCURVE",
"864 188 OFFCURVE",
"843 204 CURVE SMOOTH",
"820 222 OFFCURVE",
"781 228 OFFCURVE",
"752 201 CURVE SMOOTH",
"717 170 OFFCURVE",
"719 114 OFFCURVE",
"735 79 CURVE SMOOTH",
"759 24 OFFCURVE",
"841 -13 OFFCURVE",
"901 -13 CURVE SMOOTH",
"1085 -13 OFFCURVE",
"1171 72 OFFCURVE",
"1171 367 CURVE SMOOTH",
"1171 1025 LINE",
"1205 1025 LINE SMOOTH",
"1258 1025 OFFCURVE",
"1274 1067 OFFCURVE",
"1274 1098 CURVE SMOOTH",
"1274 1130 OFFCURVE",
"1257 1171 OFFCURVE",
"1204 1171 CURVE SMOOTH",
"466 1171 LINE SMOOTH",
"412 1171 OFFCURVE",
"395 1129 OFFCURVE",
"395 1097 CURVE SMOOTH",
"395 1066 OFFCURVE",
"411 1025 OFFCURVE",
"464 1025 CURVE SMOOTH",
"515 1025 LINE",
"515 517 LINE",
"265 1126 LINE SMOOTH",
"254 1152 OFFCURVE",
"235 1171 OFFCURVE",
"203 1171 CURVE SMOOTH",
"80 1171 LINE SMOOTH",
"27 1171 OFFCURVE",
"10 1129 OFFCURVE",
"10 1097 CURVE SMOOTH",
"10 1066 OFFCURVE",
"26 1025 OFFCURVE",
"79 1025 CURVE SMOOTH",
"115 1025 LINE",
"115 146 LINE",
"99 146 LINE SMOOTH",
"46 146 OFFCURVE",
"30 104 OFFCURVE",
"30 73 CURVE SMOOTH",
"30 41 OFFCURVE",
"47 0 OFFCURVE",
"100 0 CURVE SMOOTH",
"298 0 LINE SMOOTH",
"351 0 OFFCURVE",
"368 41 OFFCURVE",
"368 73 CURVE SMOOTH",
"368 104 OFFCURVE",
"352 146 OFFCURVE",
"299 146 CURVE SMOOTH",
"275 146 LINE",
"275 704 LINE",
"570 46 LINE SMOOTH",
"585 13 OFFCURVE",
"599 -10 OFFCURVE",
"630 -10 CURVE SMOOTH",
"666 -10 OFFCURVE",
"682 10 OFFCURVE",
"682 53 CURVE SMOOTH",
"682 1025 LINE",
"990 1025 LINE",
"990 364 LINE SMOOTH"
);
}
);
width = 1240;
},
{
layerId = "440824D2-40E3-4EBC-B94D-DAF81B1E7F5E";
width = 600;
}
);
unicode = 01CA;
},
{
glyphname = Eng;
lastChange = "2017-07-13 18:39:58 +0000";
layers = (
{
layerId = "840BD324-B0A6-42B0-BD23-CB5E8C19394F";
paths = (
{
closed = 1;
nodes = (
"841 -401 OFFCURVE",
"1039 -252 OFFCURVE",
"1039 1 CURVE SMOOTH",
"1039 1085 LINE",
"1135 1085 LINE SMOOTH",
"1167 1085 OFFCURVE",
"1183 1106 OFFCURVE",
"1183 1127 CURVE SMOOTH",
"1183 1149 OFFCURVE",
"1166 1171 OFFCURVE",
"1133 1171 CURVE SMOOTH",
"796 1171 LINE SMOOTH",
"762 1171 OFFCURVE",
"745 1149 OFFCURVE",
"745 1127 CURVE SMOOTH",
"745 1106 OFFCURVE",
"761 1085 OFFCURVE",
"794 1085 CURVE SMOOTH",
"943 1085 LINE",
"943 224 LINE",
"447 1147 LINE SMOOTH",
"439 1163 OFFCURVE",
"429 1171 OFFCURVE",
"407 1171 CURVE SMOOTH",
"130 1171 LINE SMOOTH",
"97 1171 OFFCURVE",
"80 1149 OFFCURVE",
"80 1127 CURVE SMOOTH",
"80 1106 OFFCURVE",
"96 1085 OFFCURVE",
"129 1085 CURVE SMOOTH",
"285 1085 LINE",
"285 86 LINE",
"159 86 LINE SMOOTH",
"126 86 OFFCURVE",
"110 64 OFFCURVE",
"110 43 CURVE SMOOTH",
"110 21 OFFCURVE",
"127 0 OFFCURVE",
"160 0 CURVE SMOOTH",
"518 0 LINE SMOOTH",
"551 0 OFFCURVE",
"568 21 OFFCURVE",
"568 43 CURVE SMOOTH",
"568 64 OFFCURVE",
"552 86 OFFCURVE",
"519 86 CURVE SMOOTH",
"381 86 LINE",
"381 1084 LINE",
"943 52 LINE",
"943 -2 LINE SMOOTH",
"943 -211 OFFCURVE",
"782 -315 OFFCURVE",
"630 -315 CURVE SMOOTH",
"597 -315 OFFCURVE",
"584 -337 OFFCURVE",
"584 -357 CURVE SMOOTH",
"584 -378 OFFCURVE",
"598 -401 OFFCURVE",
"629 -401 CURVE SMOOTH"
);
}
);
width = 1240;
},
{
anchors = (
{
name = bottom;
position = "{620, 0}";
},
{
name = top;
position = "{620, 1171}";
}
);
layerId = "F2E12B84-E402-48AA-89E7-06534AE23493";
paths = (
{
closed = 1;
nodes = (
"885 -355 OFFCURVE",
"1067 -206 OFFCURVE",
"1067 47 CURVE SMOOTH",
"1067 995 LINE",
"1106 995 LINE SMOOTH",
"1168 995 OFFCURVE",
"1195 1041 OFFCURVE",
"1195 1082 CURVE SMOOTH",
"1195 1124 OFFCURVE",
"1168 1171 OFFCURVE",
"1105 1171 CURVE SMOOTH",
"776 1171 LINE SMOOTH",
"712 1171 OFFCURVE",
"685 1124 OFFCURVE",
"685 1082 CURVE SMOOTH",
"685 1041 OFFCURVE",
"711 995 OFFCURVE",
"774 995 CURVE SMOOTH",
"856 995 LINE",
"859 496 LINE",
"377 1147 LINE SMOOTH",
"365 1163 OFFCURVE",
"359 1171 OFFCURVE",
"337 1171 CURVE SMOOTH",
"140 1171 LINE SMOOTH",
"77 1171 OFFCURVE",
"50 1124 OFFCURVE",
"50 1082 CURVE SMOOTH",
"50 1041 OFFCURVE",
"76 995 OFFCURVE",
"139 995 CURVE SMOOTH",
"187 995 LINE",
"187 176 LINE",
"149 176 LINE SMOOTH",
"86 176 OFFCURVE",
"60 129 OFFCURVE",
"60 88 CURVE SMOOTH",
"60 46 OFFCURVE",
"87 0 OFFCURVE",
"150 0 CURVE SMOOTH",
"478 0 LINE SMOOTH",
"541 0 OFFCURVE",
"568 46 OFFCURVE",
"568 88 CURVE SMOOTH",
"568 129 OFFCURVE",
"542 176 OFFCURVE",
"479 176 CURVE SMOOTH",
"411 176 LINE",
"411 712 LINE",
"869 107 LINE",
"869 50 LINE SMOOTH",
"869 -93 OFFCURVE",
"780 -169 OFFCURVE",
"697 -169 CURVE SMOOTH",
"628 -169 OFFCURVE",
"602 -221 OFFCURVE",
"602 -261 CURVE SMOOTH",
"602 -302 OFFCURVE",
"629 -355 OFFCURVE",
"696 -355 CURVE SMOOTH"
);
},
{
closed = 0;
nodes = (
"518 0 LINE"
);
}
);
width = 1240;
},
{
layerId = "440824D2-40E3-4EBC-B94D-DAF81B1E7F5E";
width = 600;
}
);
unicode = 014A;
},
{
glyphname = Nj;
lastChange = "2017-07-30 22:06:46 +0000";
layers = (
{
layerId = "840BD324-B0A6-42B0-BD23-CB5E8C19394F";
paths = (
{
closed = 1;
nodes = (
"716 -16 OFFCURVE",
"730 4 OFFCURVE",
"730 47 CURVE SMOOTH",
"730 1085 LINE",
"795 1085 LINE SMOOTH",
"827 1085 OFFCURVE",
"843 1106 OFFCURVE",
"843 1127 CURVE SMOOTH",
"843 1149 OFFCURVE",
"826 1171 OFFCURVE",
"793 1171 CURVE SMOOTH",
"566 1171 LINE SMOOTH",
"532 1171 OFFCURVE",
"515 1149 OFFCURVE",
"515 1127 CURVE SMOOTH",
"515 1106 OFFCURVE",
"531 1085 OFFCURVE",
"564 1085 CURVE SMOOTH",
"643 1085 LINE",
"643 282 LINE",
"323 1147 LINE SMOOTH",
"317 1164 OFFCURVE",
"305 1171 OFFCURVE",
"283 1171 CURVE SMOOTH",
"90 1171 LINE SMOOTH",
"57 1171 OFFCURVE",
"40 1149 OFFCURVE",
"40 1127 CURVE SMOOTH",
"40 1106 OFFCURVE",
"56 1085 OFFCURVE",
"89 1085 CURVE SMOOTH",
"165 1085 LINE",
"165 86 LINE",
"109 86 LINE SMOOTH",
"76 86 OFFCURVE",
"60 64 OFFCURVE",
"60 43 CURVE SMOOTH",
"60 21 OFFCURVE",
"77 0 OFFCURVE",
"110 0 CURVE SMOOTH",
"328 0 LINE SMOOTH",
"361 0 OFFCURVE",
"378 21 OFFCURVE",
"378 43 CURVE SMOOTH",
"378 64 OFFCURVE",
"362 86 OFFCURVE",
"329 86 CURVE SMOOTH",
"255 86 LINE",
"255 1064 LINE",
"644 22 LINE SMOOTH",
"653 -3 OFFCURVE",
"669 -16 OFFCURVE",
"690 -16 CURVE SMOOTH"
);
},
{
closed = 1;
nodes = (
"973 -309 OFFCURVE",
"1136 -178 OFFCURVE",
"1136 37 CURVE SMOOTH",
"1136 785 LINE SMOOTH",
"1136 806 OFFCURVE",
"1120 816 OFFCURVE",
"1100 814 CURVE SMOOTH",
"850 794 LINE SMOOTH",
"824 792 OFFCURVE",
"810 775 OFFCURVE",
"810 755 CURVE SMOOTH",
"810 734 OFFCURVE",
"825 710 OFFCURVE",
"854 712 CURVE SMOOTH",
"1040 727 LINE",
"1040 40 LINE SMOOTH",
"1040 -135 OFFCURVE",
"910 -220 OFFCURVE",
"755 -220 CURVE SMOOTH",
"716 -220 OFFCURVE",
"697 -243 OFFCURVE",
"697 -265 CURVE SMOOTH",
"697 -287 OFFCURVE",
"715 -309 OFFCURVE",
"748 -309 CURVE SMOOTH"
);
},
{
closed = 1;
nodes = (
"1102 990 OFFCURVE",
"1142 1029 OFFCURVE",
"1142 1080 CURVE SMOOTH",
"1142 1130 OFFCURVE",
"1102 1171 OFFCURVE",
"1052 1171 CURVE SMOOTH",
"1001 1171 OFFCURVE",
"961 1130 OFFCURVE",
"961 1080 CURVE SMOOTH",
"961 1029 OFFCURVE",
"1001 990 OFFCURVE",
"1052 990 CURVE SMOOTH"
);
}
);
width = 1240;
},
{
layerId = "F2E12B84-E402-48AA-89E7-06534AE23493";
paths = (
{
closed = 1;
nodes = (
"706 -10 OFFCURVE",
"722 10 OFFCURVE",
"722 53 CURVE SMOOTH",
"722 1025 LINE",
"749 1025 LINE",
"802 1025 OFFCURVE",
"811 1067 OFFCURVE",
"811 1098 CURVE SMOOTH",
"811 1130 OFFCURVE",
"794 1171 OFFCURVE",
"741 1171 CURVE SMOOTH",
"506 1171 LINE SMOOTH",
"452 1171 OFFCURVE",
"435 1129 OFFCURVE",
"435 1097 CURVE SMOOTH",
"435 1066 OFFCURVE",
"451 1025 OFFCURVE",
"504 1025 CURVE SMOOTH",
"555 1025 LINE",
"555 517 LINE",
"305 1126 LINE SMOOTH",
"294 1152 OFFCURVE",
"275 1171 OFFCURVE",
"243 1171 CURVE SMOOTH",
"100 1171 LINE SMOOTH",
"47 1171 OFFCURVE",
"30 1129 OFFCURVE",
"30 1097 CURVE SMOOTH",
"30 1066 OFFCURVE",
"46 1025 OFFCURVE",
"99 1025 CURVE SMOOTH",
"135 1025 LINE",
"135 146 LINE",
"119 146 LINE SMOOTH",
"66 146 OFFCURVE",
"50 104 OFFCURVE",
"50 73 CURVE SMOOTH",
"50 41 OFFCURVE",
"67 0 OFFCURVE",
"120 0 CURVE SMOOTH",
"338 0 LINE SMOOTH",
"391 0 OFFCURVE",
"408 41 OFFCURVE",
"408 73 CURVE SMOOTH",
"408 104 OFFCURVE",
"392 146 OFFCURVE",
"339 146 CURVE SMOOTH",
"315 146 LINE",
"315 704 LINE",
"610 46 LINE SMOOTH",
"625 13 OFFCURVE",
"639 -10 OFFCURVE",
"670 -10 CURVE SMOOTH"
);
},
{
closed = 1;
nodes = (
"1003 -318 OFFCURVE",
"1146 -178 OFFCURVE",
"1146 130 CURVE SMOOTH",
"1146 785 LINE SMOOTH",
"1146 806 OFFCURVE",
"1130 817 OFFCURVE",
"1110 814 CURVE SMOOTH",
"840 777 LINE SMOOTH",
"801 772 OFFCURVE",
"770 735 OFFCURVE",
"770 695 CURVE SMOOTH",
"770 654 OFFCURVE",
"806 613 OFFCURVE",
"864 620 CURVE SMOOTH",
"940 629 LINE",
"940 70 LINE SMOOTH",
"940 -75 OFFCURVE",
"830 -140 OFFCURVE",
"745 -140 CURVE SMOOTH",
"685 -140 OFFCURVE",
"657 -187 OFFCURVE",
"657 -229 CURVE SMOOTH",
"657 -271 OFFCURVE",
"685 -318 OFFCURVE",
"748 -318 CURVE SMOOTH"
);
},
{
closed = 1;
nodes = (
"1093 957 OFFCURVE",
"1153 1011 OFFCURVE",
"1153 1079 CURVE SMOOTH",
"1153 1145 OFFCURVE",
"1093 1202 OFFCURVE",
"1018 1202 CURVE SMOOTH",
"942 1202 OFFCURVE",
"882 1145 OFFCURVE",
"882 1079 CURVE SMOOTH",
"882 1011 OFFCURVE",
"942 957 OFFCURVE",
"1018 957 CURVE SMOOTH"
);
}
);
width = 1240;
},
{
layerId = "440824D2-40E3-4EBC-B94D-DAF81B1E7F5E";
width = 600;
}
);
unicode = 01CB;
},
{
glyphname = O;
lastChange = "2017-08-10 20:59:03 +0000";
layers = (
{
anchors = (
{
name = bottom;
position = "{620, 0}";
},
{
name = center;
position = "{620, 586}";
},
{
name = ogonek;
position = "{1116, 10}";
},
{
name = top;
position = "{620, 1171}";
},
{
name = topleft;
position = "{20, 1171}";
},
{
name = topright;
position = "{1141, 1291}";
}
);
layerId = "840BD324-B0A6-42B0-BD23-CB5E8C19394F";
paths = (
{
closed = 1;
nodes = (
"961 -17 OFFCURVE",
"1135 291 OFFCURVE",
"1135 582 CURVE SMOOTH",
"1135 883 OFFCURVE",
"961 1187 OFFCURVE",
"620 1187 CURVE SMOOTH",
"279 1187 OFFCURVE",
"105 883 OFFCURVE",
"105 582 CURVE SMOOTH",
"105 291 OFFCURVE",
"279 -17 OFFCURVE",
"620 -17 CURVE SMOOTH"
);
},
{
closed = 1;
nodes = (
"340 69 OFFCURVE",
"201 336 OFFCURVE",
"201 582 CURVE SMOOTH",
"201 842 OFFCURVE",
"344 1101 OFFCURVE",
"620 1101 CURVE SMOOTH",
"896 1101 OFFCURVE",
"1039 842 OFFCURVE",
"1039 582 CURVE SMOOTH",
"1039 336 OFFCURVE",
"900 69 OFFCURVE",
"620 69 CURVE SMOOTH"
);
}
);
width = 1240;
},
{
anchors = (
{
name = bottom;
position = "{620, 0}";
},
{
name = center;
position = "{620, 586}";
},
{
name = ogonek;
position = "{1116, 10}";
},
{
name = top;
position = "{620, 1171}";
},
{
name = topleft;
position = "{20, 1171}";
},
{
name = topright;
position = "{973, 941}";
}
);
layerId = "F2E12B84-E402-48AA-89E7-06534AE23493";
paths = (
{
closed = 1;
nodes = (
"935 -17 OFFCURVE",
"1145 223 OFFCURVE",
"1145 582 CURVE SMOOTH",
"1145 945 OFFCURVE",
"935 1187 OFFCURVE",
"620 1187 CURVE SMOOTH",
"305 1187 OFFCURVE",
"95 945 OFFCURVE",
"95 582 CURVE SMOOTH",
"95 223 OFFCURVE",
"305 -17 OFFCURVE",
"620 -17 CURVE SMOOTH"
);
},
{
closed = 1;
nodes = (
"453 173 OFFCURVE",
"342 337 OFFCURVE",
"342 583 CURVE SMOOTH",
"342 831 OFFCURVE",
"453 997 OFFCURVE",
"620 997 CURVE SMOOTH",
"787 997 OFFCURVE",
"898 831 OFFCURVE",
"898 583 CURVE SMOOTH",
"898 337 OFFCURVE",
"787 173 OFFCURVE",
"620 173 CURVE SMOOTH"
);
}
);
width = 1240;
},
{
layerId = "440824D2-40E3-4EBC-B94D-DAF81B1E7F5E";
paths = (
{
closed = 1;
nodes = (
"928 -17 OFFCURVE",
"1179 311 OFFCURVE",
"1179 707 CURVE SMOOTH",
"1179 962 OFFCURVE",
"1053 1187 OFFCURVE",
"750 1187 CURVE SMOOTH",
"382 1187 OFFCURVE",
"130 857 OFFCURVE",
"130 461 CURVE SMOOTH",
"130 211 OFFCURVE",
"256 -17 OFFCURVE",
"560 -17 CURVE SMOOTH"
);
},
{
closed = 1;
nodes = (
"325 69 OFFCURVE",
"228 265 OFFCURVE",
"228 476 CURVE SMOOTH",
"228 796 OFFCURVE",
"439 1101 OFFCURVE",
"745 1101 CURVE SMOOTH",
"981 1101 OFFCURVE",
"1083 912 OFFCURVE",
"1082 695 CURVE SMOOTH",
"1082 374 OFFCURVE",
"870 69 OFFCURVE",
"565 69 CURVE SMOOTH"
);
}
);
width = 1240;
}
);
unicode = 004F;
},
{
glyphname = Oslash;
lastChange = "2017-08-06 21:14:14 +0000";
layers = (
{
components = (
{
name = O;
}
);
layerId = "840BD324-B0A6-42B0-BD23-CB5E8C19394F";
paths = (
{
closed = 1;
nodes = (
"277 -192 OFFCURVE",
"288 -187 OFFCURVE",
"295 -172 CURVE SMOOTH",
"1033 1274 LINE SMOOTH",
"1036 1279 OFFCURVE",
"1037 1284 OFFCURVE",
"1037 1289 CURVE SMOOTH",
"1037 1308 OFFCURVE",
"1017 1321 OFFCURVE",
"999 1321 CURVE SMOOTH",
"988 1321 OFFCURVE",
"978 1316 OFFCURVE",
"972 1305 CURVE SMOOTH",
"229 -146 LINE SMOOTH",
"227 -150 OFFCURVE",
"226 -154 OFFCURVE",
"226 -158 CURVE SMOOTH",
"226 -176 OFFCURVE",
"246 -192 OFFCURVE",
"265 -192 CURVE SMOOTH"
);
}
);
width = 1240;
},
{
components = (
{
name = O;
}
);
layerId = "F2E12B84-E402-48AA-89E7-06534AE23493";
paths = (
{
closed = 1;
nodes = (
"336 -191 OFFCURVE",
"354 -172 OFFCURVE",
"366 -146 CURVE SMOOTH",
"986 1181 LINE SMOOTH",
"992 1194 OFFCURVE",
"1005 1227 OFFCURVE",
"1005 1260 CURVE SMOOTH",
"1005 1292 OFFCURVE",
"977 1321 OFFCURVE",
"932 1321 CURVE SMOOTH",
"900 1321 OFFCURVE",
"875 1289 OFFCURVE",
"865 1268 CURVE SMOOTH",
"257 -45 LINE SMOOTH",
"254 -52 OFFCURVE",
"236 -82 OFFCURVE",
"236 -119 CURVE SMOOTH",
"236 -165 OFFCURVE",
"267 -191 OFFCURVE",
"304 -191 CURVE SMOOTH"
);
}
);
width = 1240;
},
{
layerId = "440824D2-40E3-4EBC-B94D-DAF81B1E7F5E";
width = 600;
}
);
unicode = 00D8;
},
{
glyphname = OE;
lastChange = "2017-07-13 18:39:58 +0000";
layers = (
{
layerId = "840BD324-B0A6-42B0-BD23-CB5E8C19394F";
paths = (
{
closed = 1;
nodes = (
"614 0 LINE SMOOTH",
"1058 0 LINE SMOOTH",
"1091 0 OFFCURVE",
"1114 19 OFFCURVE",
"1114 53 CURVE SMOOTH",
"1114 323 LINE SMOOTH",
"1114 359 OFFCURVE",
"1093 375 OFFCURVE",
"1072 375 CURVE SMOOTH",
"1051 375 OFFCURVE",
"1029 360 OFFCURVE",
"1028 336 CURVE SMOOTH",
"1012 85 LINE",
"727 85 LINE",
"727 577 LINE",
"883 577 LINE SMOOTH",
"911 577 OFFCURVE",
"927 591 OFFCURVE",
"927 615 CURVE SMOOTH",
"927 638 OFFCURVE",
"910 654 OFFCURVE",
"883 654 CURVE SMOOTH",
"727 654 LINE",
"727 1084 LINE",
"1006 1084 LINE",
"1020 841 LINE SMOOTH",
"1021 816 OFFCURVE",
"1042 803 OFFCURVE",
"1062 803 CURVE SMOOTH",
"1082 803 OFFCURVE",
"1102 817 OFFCURVE",
"1102 847 CURVE SMOOTH",
"1102 1117 LINE SMOOTH",
"1102 1151 OFFCURVE",
"1079 1171 OFFCURVE",
"1046 1171 CURVE SMOOTH",
"936 1171 OFFCURVE",
"776 1172 OFFCURVE",
"616 1172 CURVE SMOOTH",
"342 1172 OFFCURVE",
"118 965 OFFCURVE",
"118 582 CURVE SMOOTH",
"118 200 OFFCURVE",
"340 0 OFFCURVE",
"613 0 CURVE SMOOTH"
);
},
{
closed = 1;
nodes = (
"387 82 OFFCURVE",
"214 260 OFFCURVE",
"214 582 CURVE SMOOTH",
"214 913 OFFCURVE",
"389 1084 OFFCURVE",
"614 1084 CURVE SMOOTH",
"629 1084 LINE",
"629 82 LINE",
"611 82 LINE SMOOTH"
);
}
);
width = 1240;
},
{
layerId = "F2E12B84-E402-48AA-89E7-06534AE23493";
paths = (
{
closed = 1;
nodes = (
"564 0 LINE SMOOTH",
"1108 0 LINE SMOOTH",
"1141 0 OFFCURVE",
"1161 19 OFFCURVE",
"1164 53 CURVE SMOOTH",
"1183 283 LINE SMOOTH",
"1188 349 OFFCURVE",
"1143 375 OFFCURVE",
"1112 375 CURVE SMOOTH",
"1071 375 OFFCURVE",
"1036 354 OFFCURVE",
"1024 301 CURVE SMOOTH",
"992 155 LINE",
"767 155 LINE",
"767 527 LINE",
"863 527 LINE SMOOTH",
"904 527 OFFCURVE",
"960 559 OFFCURVE",
"960 616 CURVE SMOOTH",
"960 672 OFFCURVE",
"904 694 OFFCURVE",
"863 694 CURVE SMOOTH",
"767 694 LINE",
"767 1014 LINE",
"986 1014 LINE",
"1017 871 LINE SMOOTH",
"1027 827 OFFCURVE",
"1062 803 OFFCURVE",
"1102 803 CURVE SMOOTH",
"1132 803 OFFCURVE",
"1175 827 OFFCURVE",
"1170 887 CURVE SMOOTH",
"1152 1117 LINE SMOOTH",
"1149 1151 OFFCURVE",
"1129 1171 OFFCURVE",
"1096 1171 CURVE SMOOTH",
"936 1171 OFFCURVE",
"746 1172 OFFCURVE",
"566 1172 CURVE SMOOTH",
"312 1172 OFFCURVE",
"78 965 OFFCURVE",
"78 582 CURVE SMOOTH",
"78 200 OFFCURVE",
"310 0 OFFCURVE",
"563 0 CURVE SMOOTH"
);
},
{
closed = 1;
nodes = (
"417 152 OFFCURVE",
"284 320 OFFCURVE",
"284 582 CURVE SMOOTH",
"284 853 OFFCURVE",
"416 1014 OFFCURVE",
"551 1014 CURVE SMOOTH",
"559 1014 LINE",
"559 152 LINE",
"551 152 LINE SMOOTH"
);
}
);
width = 1240;
},
{
layerId = "440824D2-40E3-4EBC-B94D-DAF81B1E7F5E";
width = 600;
}
);
unicode = 0152;
},
{
glyphname = P;
lastChange = "2017-07-13 18:39:58 +0000";
layers = (
{
anchors = (
{
name = bottom;
position = "{620, 0}";
},
{
name = top;
position = "{620, 1171}";
}
);
layerId = "840BD324-B0A6-42B0-BD23-CB5E8C19394F";
paths = (
{
closed = 1;
nodes = (
"792 0 LINE SMOOTH",
"825 0 OFFCURVE",
"842 21 OFFCURVE",
"842 43 CURVE SMOOTH",
"842 64 OFFCURVE",
"826 86 OFFCURVE",
"793 86 CURVE SMOOTH",
"464 86 LINE",
"464 441 LINE",
"574 441 LINE SMOOTH",
"917 441 OFFCURVE",
"1112 560 OFFCURVE",
"1112 806 CURVE SMOOTH",
"1112 1054 OFFCURVE",
"904 1171 OFFCURVE",
"574 1171 CURVE SMOOTH",
"210 1171 LINE SMOOTH",
"177 1171 OFFCURVE",
"160 1149 OFFCURVE",
"160 1127 CURVE SMOOTH",
"160 1106 OFFCURVE",
"176 1085 OFFCURVE",
"209 1085 CURVE SMOOTH",
"368 1085 LINE",
"368 86 LINE",
"195 86 LINE SMOOTH",
"162 86 OFFCURVE",
"145 64 OFFCURVE",
"145 43 CURVE SMOOTH",
"145 21 OFFCURVE",
"162 0 OFFCURVE",
"196 0 CURVE SMOOTH"
);
},
{
closed = 1;
nodes = (
"464 1085 LINE",
"594 1085 LINE SMOOTH",
"814 1085 OFFCURVE",
"1016 1015 OFFCURVE",
"1016 802 CURVE SMOOTH",
"1016 606 OFFCURVE",
"824 527 OFFCURVE",
"600 527 CURVE SMOOTH",
"464 527 LINE"
);
}
);
width = 1240;
},
{
anchors = (
{
name = bottom;
position = "{620, 0}";
},
{
name = top;
position = "{620, 1171}";
}
);
layerId = "F2E12B84-E402-48AA-89E7-06534AE23493";
paths = (
{
closed = 1;
nodes = (
"772 0 LINE SMOOTH",
"835 0 OFFCURVE",
"862 38 OFFCURVE",
"862 80 CURVE SMOOTH",
"862 121 OFFCURVE",
"836 166 OFFCURVE",
"773 166 CURVE SMOOTH",
"554 166 LINE",
"554 441 LINE",
"594 441 LINE SMOOTH",
"977 441 OFFCURVE",
"1152 560 OFFCURVE",
"1152 806 CURVE SMOOTH",
"1152 1054 OFFCURVE",
"964 1171 OFFCURVE",
"594 1171 CURVE SMOOTH",
"230 1171 LINE SMOOTH",
"167 1171 OFFCURVE",
"140 1129 OFFCURVE",
"140 1087 CURVE SMOOTH",
"140 1046 OFFCURVE",
"166 1005 OFFCURVE",
"229 1005 CURVE SMOOTH",
"308 1005 LINE",
"308 166 LINE",
"225 166 LINE SMOOTH",
"162 166 OFFCURVE",
"135 122 OFFCURVE",
"135 81 CURVE SMOOTH",
"135 39 OFFCURVE",
"162 0 OFFCURVE",
"226 0 CURVE SMOOTH"
);
},
{
closed = 1;
nodes = (
"554 1005 LINE",
"624 1005 LINE SMOOTH",
"784 1005 OFFCURVE",
"906 935 OFFCURVE",
"906 802 CURVE SMOOTH",
"906 686 OFFCURVE",
"794 607 OFFCURVE",
"630 607 CURVE SMOOTH",
"554 607 LINE"
);
}
);
width = 1240;
},
{
layerId = "440824D2-40E3-4EBC-B94D-DAF81B1E7F5E";
width = 600;
}
);
unicode = 0050;
},
{
glyphname = Thorn;
lastChange = "2017-07-13 18:39:58 +0000";
layers = (
{
layerId = "840BD324-B0A6-42B0-BD23-CB5E8C19394F";
paths = (
{
closed = 1;
nodes = (
"961 644 CURVE SMOOTH",
"961 819 OFFCURVE",
"756 866 OFFCURVE",
"429 866 CURVE",
"429 420 LINE",
"730 420 OFFCURVE",
"961 460 OFFCURVE"
);
},
{
closed = 1;
nodes = (
"1057 644 CURVE SMOOTH",
"1057 408 OFFCURVE",
"794 338 OFFCURVE",
"429 338 CURVE",
"429 82 LINE",
"656 82 LINE SMOOTH",
"689 82 OFFCURVE",
"695 61 OFFCURVE",
"695 41 CURVE SMOOTH",
"695 20 OFFCURVE",
"688 0 OFFCURVE",
"655 0 CURVE SMOOTH",
"109 0 LINE SMOOTH",
"75 0 OFFCURVE",
"68 20 OFFCURVE",
"68 41 CURVE SMOOTH",
"68 61 OFFCURVE",
"75 82 OFFCURVE",
"108 82 CURVE SMOOTH",
"333 82 LINE",
"333 1085 LINE",
"121 1085 LINE SMOOTH",
"88 1085 OFFCURVE",
"82 1106 OFFCURVE",
"82 1127 CURVE SMOOTH",
"82 1149 OFFCURVE",
"89 1171 OFFCURVE",
"123 1171 CURVE SMOOTH",
"600 1171 LINE SMOOTH",
"627 1171 OFFCURVE",
"631 1151 OFFCURVE",
"631 1130 CURVE SMOOTH",
"631 1108 OFFCURVE",
"625 1085 OFFCURVE",
"592 1085 CURVE SMOOTH",
"429 1085 LINE",
"429 948 LINE",
"813 948 OFFCURVE",
"1057 868 OFFCURVE"
);
}
);
width = 1240;
},
{
layerId = "F2E12B84-E402-48AA-89E7-06534AE23493";
paths = (
{
closed = 1;
nodes = (
"861 624 CURVE SMOOTH",
"861 739 OFFCURVE",
"756 786 OFFCURVE",
"509 786 CURVE",
"509 460 LINE",
"730 460 OFFCURVE",
"861 500 OFFCURVE"
);
},
{
closed = 1;
nodes = (
"1107 624 CURVE SMOOTH",
"1107 368 OFFCURVE",
"844 298 OFFCURVE",
"509 298 CURVE",
"509 166 LINE",
"606 166 LINE SMOOTH",
"669 166 OFFCURVE",
"695 123 OFFCURVE",
"695 83 CURVE SMOOTH",
"695 42 OFFCURVE",
"668 0 OFFCURVE",
"605 0 CURVE SMOOTH",
"159 0 LINE SMOOTH",
"85 0 OFFCURVE",
"68 42 OFFCURVE",
"68 83 CURVE SMOOTH",
"68 123 OFFCURVE",
"85 166 OFFCURVE",
"158 166 CURVE SMOOTH",
"263 166 LINE",
"263 1005 LINE",
"171 1005 LINE SMOOTH",
"98 1005 OFFCURVE",
"82 1046 OFFCURVE",
"82 1087 CURVE SMOOTH",
"82 1129 OFFCURVE",
"99 1171 OFFCURVE",
"173 1171 CURVE SMOOTH",
"550 1171 LINE SMOOTH",
"607 1171 OFFCURVE",
"631 1131 OFFCURVE",
"631 1090 CURVE SMOOTH",
"631 1048 OFFCURVE",
"605 1005 OFFCURVE",
"542 1005 CURVE SMOOTH",
"509 1005 LINE",
"509 948 LINE",
"863 948 OFFCURVE",
"1107 868 OFFCURVE"
);
}
);
width = 1240;
},
{
layerId = "440824D2-40E3-4EBC-B94D-DAF81B1E7F5E";
width = 600;
}
);
unicode = 00DE;
},
{
glyphname = Q;
lastChange = "2017-07-27 17:32:14 +0000";
layers = (
{
anchors = (
{
name = bottom;
position = "{620, 0}";
},
{
name = top;
position = "{620, 1171}";
}
);
layerId = "840BD324-B0A6-42B0-BD23-CB5E8C19394F";
paths = (
{
closed = 1;
nodes = (
"967 -15 OFFCURVE",
"1132 286 OFFCURVE",
"1132 582 CURVE SMOOTH",
"1132 883 OFFCURVE",
"961 1187 OFFCURVE",
"620 1187 CURVE SMOOTH",
"279 1187 OFFCURVE",
"108 883 OFFCURVE",
"108 582 CURVE SMOOTH",
"108 256 OFFCURVE",
"280 -19 OFFCURVE",
"620 -17 CURVE SMOOTH"
);
},
{
closed = 1;
nodes = (
"340 66 OFFCURVE",
"204 306 OFFCURVE",
"204 582 CURVE SMOOTH",
"204 842 OFFCURVE",
"344 1101 OFFCURVE",
"620 1101 CURVE SMOOTH",
"896 1101 OFFCURVE",
"1036 842 OFFCURVE",
"1036 582 CURVE SMOOTH",
"1036 326 OFFCURVE",
"900 66 OFFCURVE",
"620 66 CURVE SMOOTH"
);
},
{
closed = 1;
nodes = (
"1030 -253 OFFCURVE",
"1107 -218 OFFCURVE",
"1147 -171 CURVE SMOOTH",
"1177 -136 OFFCURVE",
"1190 -95 OFFCURVE",
"1155 -72 CURVE SMOOTH",
"1103 -38 OFFCURVE",
"1035 -76 OFFCURVE",
"972 -171 CURVE",
"790 -170 OFFCURVE",
"742 -38 OFFCURVE",
"722 59 CURVE SMOOTH",
"688 223 OFFCURVE",
"620 392 OFFCURVE",
"410 392 CURVE SMOOTH",
"281 392 OFFCURVE",
"216 322 OFFCURVE",
"204 306 CURVE",
"250 240 LINE",
"259 259 OFFCURVE",
"310 307 OFFCURVE",
"410 307 CURVE SMOOTH",
"542 307 OFFCURVE",
"599 200 OFFCURVE",
"637 30 CURVE SMOOTH",
"666 -101 OFFCURVE",
"761 -253 OFFCURVE",
"970 -253 CURVE SMOOTH"
);
}
);
width = 1240;
},
{
anchors = (
{
name = bottom;
position = "{620, 0}";
},
{
name = top;
position = "{620, 1171}";
}
);
layerId = "F2E12B84-E402-48AA-89E7-06534AE23493";
paths = (
{
closed = 1;
nodes = (
"971 -17 OFFCURVE",
"1145 281 OFFCURVE",
"1145 582 CURVE SMOOTH",
"1145 893 OFFCURVE",
"971 1187 OFFCURVE",
"620 1187 CURVE SMOOTH",
"269 1187 OFFCURVE",
"95 893 OFFCURVE",
"95 582 CURVE SMOOTH",
"95 281 OFFCURVE",
"269 -17 OFFCURVE",
"620 -17 CURVE SMOOTH"
);
},
{
closed = 1;
nodes = (
"431 173 OFFCURVE",
"342 378 OFFCURVE",
"342 583 CURVE SMOOTH",
"342 818 OFFCURVE",
"434 997 OFFCURVE",
"620 997 CURVE SMOOTH",
"806 997 OFFCURVE",
"898 818 OFFCURVE",
"898 583 CURVE SMOOTH",
"898 378 OFFCURVE",
"809 173 OFFCURVE",
"620 173 CURVE SMOOTH"
);
},
{
closed = 1;
nodes = (
"1103 -243 OFFCURVE",
"1240 -179 OFFCURVE",
"1240 -63 CURVE SMOOTH",
"1240 -35 OFFCURVE",
"1233 -3 OFFCURVE",
"1195 28 CURVE SMOOTH",
"1145 69 OFFCURVE",
"1053 51 OFFCURVE",
"972 -81 CURVE",
"880 -80 OFFCURVE",
"827 34 OFFCURVE",
"811 111 CURVE SMOOTH",
"779 267 OFFCURVE",
"730 512 OFFCURVE",
"489 512 CURVE SMOOTH",
"361 512 OFFCURVE",
"306 436 OFFCURVE",
"304 431 CURVE",
"369 279 LINE",
"369 279 OFFCURVE",
"390 347 OFFCURVE",
"476 347 CURVE SMOOTH",
"580 347 OFFCURVE",
"609 150 OFFCURVE",
"632 59 CURVE SMOOTH",
"676 -141 OFFCURVE",
"811 -243 OFFCURVE",
"990 -243 CURVE SMOOTH"
);
}
);
width = 1240;
},
{
layerId = "440824D2-40E3-4EBC-B94D-DAF81B1E7F5E";
width = 600;
}
);
unicode = 0051;
},
{
glyphname = R;
lastChange = "2017-08-03 16:36:46 +0000";
layers = (
{
anchors = (
{
name = bottom;
position = "{620, 0}";
},
{
name = top;
position = "{620, 1141}";
}
);
layerId = "840BD324-B0A6-42B0-BD23-CB5E8C19394F";
paths = (
{
closed = 1;
nodes = (
"588 0 LINE SMOOTH",
"622 0 OFFCURVE",
"638 21 OFFCURVE",
"638 43 CURVE SMOOTH",
"638 62 OFFCURVE",
"622 86 OFFCURVE",
"589 86 CURVE SMOOTH",
"419 86 LINE",
"419 482 LINE",
"584 482 LINE SMOOTH",
"827 482 OFFCURVE",
"1047 592 OFFCURVE",
"1047 834 CURVE SMOOTH",
"1047 1064 OFFCURVE",
"847 1171 OFFCURVE",
"537 1171 CURVE SMOOTH",
"217 1171 LINE SMOOTH",
"183 1171 OFFCURVE",
"166 1149 OFFCURVE",
"166 1127 CURVE SMOOTH",
"166 1106 OFFCURVE",
"183 1085 OFFCURVE",
"216 1085 CURVE SMOOTH",
"323 1085 LINE",
"323 86 LINE",
"188 86 LINE SMOOTH",
"155 86 OFFCURVE",
"138 62 OFFCURVE",
"138 43 CURVE SMOOTH",
"138 21 OFFCURVE",
"155 0 OFFCURVE",
"189 0 CURVE SMOOTH"
);
},
{
closed = 1;
nodes = (
"1070 0 LINE SMOOTH",
"1114 0 OFFCURVE",
"1130 21 OFFCURVE",
"1130 44 CURVE SMOOTH",
"1130 62 OFFCURVE",
"1116 86 OFFCURVE",
"1069 86 CURVE SMOOTH",
"980 86 LINE",
"726 558 LINE",
"635 536 LINE",
"895 48 LINE SMOOTH",
"906 27 OFFCURVE",
"924 0 OFFCURVE",
"950 0 CURVE SMOOTH"
);
},
{
closed = 1;
nodes = (
"419 1085 LINE",
"536 1085 LINE SMOOTH",
"774 1085 OFFCURVE",
"951 1020 OFFCURVE",
"951 827 CURVE SMOOTH",
"951 627 OFFCURVE",
"774 569 OFFCURVE",
"516 569 CURVE SMOOTH",
"419 569 LINE"
);
}
);
width = 1240;
},
{
anchors = (
{
name = bottom;
position = "{620, 0}";
},
{
name = top;
position = "{620, 1171}";
}
);
layerId = "F2E12B84-E402-48AA-89E7-06534AE23493";
paths = (
{
closed = 1;
nodes = (
"592 0 LINE SMOOTH",
"645 0 OFFCURVE",
"672 36 OFFCURVE",
"672 78 CURVE SMOOTH",
"672 119 OFFCURVE",
"646 166 OFFCURVE",
"593 166 CURVE SMOOTH",
"514 166 LINE",
"514 441 LINE",
"554 441 LINE SMOOTH",
"937 441 OFFCURVE",
"1112 560 OFFCURVE",
"1112 806 CURVE SMOOTH",
"1112 1054 OFFCURVE",
"924 1171 OFFCURVE",
"554 1171 CURVE SMOOTH",
"190 1171 LINE SMOOTH",
"127 1171 OFFCURVE",
"100 1129 OFFCURVE",
"100 1087 CURVE SMOOTH",
"100 1046 OFFCURVE",
"126 1005 OFFCURVE",
"189 1005 CURVE SMOOTH",
"268 1005 LINE",
"268 166 LINE",
"175 166 LINE SMOOTH",
"122 166 OFFCURVE",
"95 119 OFFCURVE",
"95 78 CURVE SMOOTH",
"95 36 OFFCURVE",
"122 0 OFFCURVE",
"176 0 CURVE SMOOTH"
);
},
{
closed = 1;
nodes = (
"1106 0 LINE SMOOTH",
"1160 0 OFFCURVE",
"1186 41 OFFCURVE",
"1186 84 CURVE SMOOTH",
"1186 122 OFFCURVE",
"1162 166 OFFCURVE",
"1105 166 CURVE SMOOTH",
"1016 166 LINE",
"822 558 LINE",
"621 496 LINE",
"821 48 LINE SMOOTH",
"830 27 OFFCURVE",
"850 0 OFFCURVE",
"886 0 CURVE SMOOTH"
);
},
{
closed = 1;
nodes = (
"514 1005 LINE",
"584 1005 LINE SMOOTH",
"754 1005 OFFCURVE",
"866 925 OFFCURVE",
"866 802 CURVE SMOOTH",
"866 696 OFFCURVE",
"764 607 OFFCURVE",
"590 607 CURVE SMOOTH",
"514 607 LINE"
);
}
);
width = 1240;
},
{
layerId = "440824D2-40E3-4EBC-B94D-DAF81B1E7F5E";
width = 600;
}
);
unicode = 0052;
},
{
glyphname = S;
lastChange = "2017-08-11 15:06:11 +0000";
layers = (
{
anchors = (
{
name = bottom;
position = "{620, 0}";
},
{
name = top;
position = "{630, 1171}";
}
);
layerId = "840BD324-B0A6-42B0-BD23-CB5E8C19394F";
paths = (
{
closed = 1;
nodes = (
"309 -17 OFFCURVE",
"323 6 OFFCURVE",
"317 46 CURVE SMOOTH",
"311 88 OFFCURVE",
"305 130 OFFCURVE",
"299 172 CURVE",
"348 86 OFFCURVE",
"476 -17 OFFCURVE",
"659 -17 CURVE SMOOTH",
"871 -17 OFFCURVE",
"1037 71 OFFCURVE",
"1037 278 CURVE SMOOTH",
"1037 689 OFFCURVE",
"313 600 OFFCURVE",
"313 916 CURVE SMOOTH",
"313 1038 OFFCURVE",
"435 1101 OFFCURVE",
"586 1101 CURVE SMOOTH",
"771 1101 OFFCURVE",
"920 969 OFFCURVE",
"928 868 CURVE SMOOTH",
"931 832 OFFCURVE",
"946 811 OFFCURVE",
"963 811 CURVE SMOOTH",
"981 811 OFFCURVE",
"1001 828 OFFCURVE",
"999 864 CURVE SMOOTH",
"987 1117 LINE SMOOTH",
"985 1169 OFFCURVE",
"971 1187 OFFCURVE",
"942 1187 CURVE SMOOTH",
"915 1187 OFFCURVE",
"892 1167 OFFCURVE",
"898 1120 CURVE SMOOTH",
"902 1086 OFFCURVE",
"907 1052 OFFCURVE",
"911 1018 CURVE",
"869 1099 OFFCURVE",
"764 1187 OFFCURVE",
"586 1187 CURVE SMOOTH",
"374 1187 OFFCURVE",
"217 1091 OFFCURVE",
"217 916 CURVE SMOOTH",
"217 510 OFFCURVE",
"941 631 OFFCURVE",
"941 274 CURVE SMOOTH",
"941 133 OFFCURVE",
"808 69 OFFCURVE",
"662 69 CURVE SMOOTH",
"461 69 OFFCURVE",
"293 223 OFFCURVE",
"293 329 CURVE SMOOTH",
"293 362 OFFCURVE",
"275 378 OFFCURVE",
"257 378 CURVE SMOOTH",
"239 378 OFFCURVE",
"222 363 OFFCURVE",
"223 331 CURVE SMOOTH",
"230 46 LINE SMOOTH",
"231 5 OFFCURVE",
"246 -17 OFFCURVE",
"277 -17 CURVE SMOOTH"
);
}
);
width = 1240;
},
{
anchors = (
{
name = bottom;
position = "{620, 0}";
},
{
name = top;
position = "{620, 1171}";
}
);
layerId = "F2E12B84-E402-48AA-89E7-06534AE23493";
paths = (
{
closed = 1;
nodes = (
"366 -17 OFFCURVE",
"410 10 OFFCURVE",
"410 66 CURVE SMOOTH",
"410 92 OFFCURVE",
"398 129 OFFCURVE",
"392 152 CURVE",
"431 86 OFFCURVE",
"539 -17 OFFCURVE",
"702 -17 CURVE SMOOTH",
"894 -17 OFFCURVE",
"1060 91 OFFCURVE",
"1060 308 CURVE SMOOTH",
"1060 778 OFFCURVE",
"446 597 OFFCURVE",
"446 881 CURVE SMOOTH",
"446 978 OFFCURVE",
"538 1021 OFFCURVE",
"639 1021 CURVE SMOOTH",
"751 1021 OFFCURVE",
"833 943 OFFCURVE",
"868 869 CURVE SMOOTH",
"884 835 OFFCURVE",
"915 811 OFFCURVE",
"962 811 CURVE SMOOTH",
"1007 811 OFFCURVE",
"1033 838 OFFCURVE",
"1030 884 CURVE SMOOTH",
"1017 1102 LINE SMOOTH",
"1013 1164 OFFCURVE",
"972 1189 OFFCURVE",
"910 1189 CURVE SMOOTH",
"860 1189 OFFCURVE",
"813 1164 OFFCURVE",
"813 1130 CURVE SMOOTH",
"813 1111 OFFCURVE",
"820 1086 OFFCURVE",
"832 1047 CURVE",
"809 1083 OFFCURVE",
"727 1187 OFFCURVE",
"559 1187 CURVE SMOOTH",
"357 1187 OFFCURVE",
"200 1081 OFFCURVE",
"200 886 CURVE SMOOTH",
"200 412 OFFCURVE",
"814 595 OFFCURVE",
"814 301 CURVE SMOOTH",
"814 213 OFFCURVE",
"721 169 OFFCURVE",
"655 169 CURVE SMOOTH",
"520 169 OFFCURVE",
"381 242 OFFCURVE",
"364 328 CURVE SMOOTH",
"355 373 OFFCURVE",
"325 393 OFFCURVE",
"284 393 CURVE SMOOTH",
"241 393 OFFCURVE",
"198 363 OFFCURVE",
"198 309 CURVE SMOOTH",
"198 81 LINE SMOOTH",
"198 15 OFFCURVE",
"249 -17 OFFCURVE",
"310 -17 CURVE SMOOTH"
);
}
);
width = 1240;
},
{
layerId = "440824D2-40E3-4EBC-B94D-DAF81B1E7F5E";
paths = (
{
closed = 1;
nodes = (
"823 -17 OFFCURVE",
"1016 105 OFFCURVE",
"1016 331 CURVE SMOOTH",
"1016 668 OFFCURVE",
"398 619 OFFCURVE",
"396 883 CURVE SMOOTH",
"396 1027 OFFCURVE",
"572 1101 OFFCURVE",
"714 1101 CURVE SMOOTH",
"845 1101 OFFCURVE",
"916 1062 OFFCURVE",
"968 1005 CURVE",
"983 883 OFFCURVE",
"986 807 OFFCURVE",
"1034 807 CURVE SMOOTH",
"1075 807 OFFCURVE",
"1094 842 OFFCURVE",
"1094 887 CURVE SMOOTH",
"1094 1005 OFFCURVE",
"1024 1187 OFFCURVE",
"719 1187 CURVE SMOOTH",
"493 1187 OFFCURVE",
"298 1073 OFFCURVE",
"298 866 CURVE SMOOTH",
"296 534 OFFCURVE",
"921 608 OFFCURVE",
"919 314 CURVE SMOOTH",
"919 157 OFFCURVE",
"773 69 OFFCURVE",
"600 69 CURVE SMOOTH",
"466 69 OFFCURVE",
"375 116 OFFCURVE",
"318 179 CURVE",
"303 301 OFFCURVE",
"300 381 OFFCURVE",
"252 381 CURVE SMOOTH",
"211 381 OFFCURVE",
"192 346 OFFCURVE",
"192 301 CURVE SMOOTH",
"192 80 OFFCURVE",
"375 -17 OFFCURVE",
"592 -17 CURVE SMOOTH"
);
}
);
width = 1240;
}
);
unicode = 0053;
},
{
glyphname = Germandbls;
lastChange = "2017-07-13 18:39:58 +0000";
layers = (
{
layerId = "840BD324-B0A6-42B0-BD23-CB5E8C19394F";
paths = (
{
closed = 1;
nodes = (
"345 0 LINE SMOOTH",
"377 0 OFFCURVE",
"396 15 OFFCURVE",
"396 40 CURVE",
"396 790 LINE",
"396 979 OFFCURVE",
"480 1101 OFFCURVE",
"631 1101 CURVE SMOOTH",
"773 1101 OFFCURVE",
"861 1101 OFFCURVE",
"950 1101 CURVE",
"940 988 OFFCURVE",
"764 794 OFFCURVE",
"661 707 CURVE SMOOTH",
"642 691 OFFCURVE",
"626 672 OFFCURVE",
"626 652 CURVE SMOOTH",
"626 631 OFFCURVE",
"647 613 OFFCURVE",
"679 606 CURVE SMOOTH",
"852 569 OFFCURVE",
"974 470 OFFCURVE",
"974 325 CURVE SMOOTH",
"974 192 OFFCURVE",
"896 85 OFFCURVE",
"769 85 CURVE SMOOTH",
"716 85 OFFCURVE",
"646 113 OFFCURVE",
"615 163 CURVE SMOOTH",
"597 192 OFFCURVE",
"583 211 OFFCURVE",
"555 211 CURVE SMOOTH",
"532 211 OFFCURVE",
"516 193 OFFCURVE",
"516 171 CURVE SMOOTH",
"516 99 OFFCURVE",
"631 0 OFFCURVE",
"769 0 CURVE SMOOTH",
"955 0 OFFCURVE",
"1072 137 OFFCURVE",
"1072 323 CURVE SMOOTH",
"1072 509 OFFCURVE",
"928 645 OFFCURVE",
"742 665 CURVE",
"897 803 OFFCURVE",
"1028 980 OFFCURVE",
"1050 1134 CURVE SMOOTH",
"1055 1167 OFFCURVE",
"1037 1188 OFFCURVE",
"1005 1188 CURVE SMOOTH",
"895 1188 OFFCURVE",
"786 1188 OFFCURVE",
"631 1188 CURVE SMOOTH",
"422 1188 OFFCURVE",
"304 1032 OFFCURVE",
"304 790 CURVE SMOOTH",
"304 86 LINE",
"173 86 LINE SMOOTH",
"139 86 OFFCURVE",
"124 67 OFFCURVE",
"124 40 CURVE SMOOTH",
"124 19 OFFCURVE",
"143 0 OFFCURVE",
"175 0 CURVE SMOOTH"
);
}
);
width = 1240;
},
{
layerId = "F2E12B84-E402-48AA-89E7-06534AE23493";
paths = (
{
closed = 1;
nodes = (
"395 0 LINE SMOOTH",
"427 0 OFFCURVE",
"446 15 OFFCURVE",
"446 40 CURVE",
"446 790 LINE",
"446 979 OFFCURVE",
"530 1021 OFFCURVE",
"631 1021 CURVE SMOOTH",
"773 1021 OFFCURVE",
"841 1021 OFFCURVE",
"860 1021 CURVE",
"850 988 OFFCURVE",
"747 811 OFFCURVE",
"656 714 CURVE SMOOTH",
"640 697 OFFCURVE",
"626 676 OFFCURVE",
"626 637 CURVE SMOOTH",
"626 606 OFFCURVE",
"647 572 OFFCURVE",
"689 564 CURVE SMOOTH",
"802 542 OFFCURVE",
"914 470 OFFCURVE",
"914 325 CURVE SMOOTH",
"914 252 OFFCURVE",
"866 165 OFFCURVE",
"769 165 CURVE SMOOTH",
"721 165 OFFCURVE",
"670 197 OFFCURVE",
"652 215 CURVE SMOOTH",
"626 241 OFFCURVE",
"596 252 OFFCURVE",
"578 252 CURVE SMOOTH",
"530 252 OFFCURVE",
"516 212 OFFCURVE",
"516 171 CURVE SMOOTH",
"516 99 OFFCURVE",
"631 0 OFFCURVE",
"809 0 CURVE SMOOTH",
"1015 0 OFFCURVE",
"1152 137 OFFCURVE",
"1152 323 CURVE SMOOTH",
"1152 509 OFFCURVE",
"1008 645 OFFCURVE",
"882 665 CURVE",
"967 803 OFFCURVE",
"1098 980 OFFCURVE",
"1120 1133 CURVE SMOOTH",
"1125 1167 OFFCURVE",
"1107 1188 OFFCURVE",
"1075 1188 CURVE SMOOTH",
"895 1188 OFFCURVE",
"786 1188 OFFCURVE",
"631 1188 CURVE SMOOTH",
"322 1188 OFFCURVE",
"204 1032 OFFCURVE",
"204 790 CURVE SMOOTH",
"204 166 LINE",
"153 166 LINE SMOOTH",
"89 166 OFFCURVE",
"64 127 OFFCURVE",
"64 80 CURVE SMOOTH",
"64 39 OFFCURVE",
"93 0 OFFCURVE",
"155 0 CURVE SMOOTH"
);
}
);
width = 1240;
},
{
layerId = "440824D2-40E3-4EBC-B94D-DAF81B1E7F5E";
width = 600;
}
);
unicode = 1E9E;
},
{
glyphname = Schwa;
lastChange = "2017-07-13 18:39:58 +0000";
layers = (
{
anchors = (
{
name = bottom;
position = "{620, 397}";
},
{
name = ogonek;
position = "{124, 1161}";
},
{
name = top;
position = "{620, 1171}";
}
);
layerId = "840BD324-B0A6-42B0-BD23-CB5E8C19394F";
paths = (
{
closed = 1;
nodes = (
"371 1188 OFFCURVE",
"232 1081 OFFCURVE",
"152 987 CURVE SMOOTH",
"141 974 OFFCURVE",
"135 958 OFFCURVE",
"135 944 CURVE SMOOTH",
"135 920 OFFCURVE",
"147 896 OFFCURVE",
"175 896 CURVE SMOOTH",
"187 896 OFFCURVE",
"202 900 OFFCURVE",
"215 914 CURVE SMOOTH",
"298 1003 OFFCURVE",
"390 1102 OFFCURVE",
"583 1102 CURVE SMOOTH",
"902 1102 OFFCURVE",
"1042 826 OFFCURVE",
"1042 594 CURVE SMOOTH",
"1042 312 OFFCURVE",
"904 74 OFFCURVE",
"604 74 CURVE SMOOTH",
"327 74 OFFCURVE",
"215 310 OFFCURVE",
"209 531 CURVE",
"1052 535 LINE",
"1052 624 LINE",
"191 619 LINE SMOOTH",
"142 619 OFFCURVE",
"115 578 OFFCURVE",
"115 536 CURVE SMOOTH",
"115 248 OFFCURVE",
"300 -12 OFFCURVE",
"606 -12 CURVE SMOOTH",
"947 -12 OFFCURVE",
"1138 248 OFFCURVE",
"1138 594 CURVE SMOOTH",
"1138 880 OFFCURVE",
"952 1188 OFFCURVE",
"583 1188 CURVE SMOOTH"
);
}
);
width = 1240;
},
{
anchors = (
{
name = bottom;
position = "{620, 0}";
},
{
name = ogonek;
position = "{124, 1161}";
},
{
name = top;
position = "{620, 1171}";
}
);
layerId = "F2E12B84-E402-48AA-89E7-06534AE23493";
paths = (
{
closed = 1;
nodes = (
"371 1188 OFFCURVE",
"231 1080 OFFCURVE",
"179 1019 CURVE SMOOTH",
"156 992 OFFCURVE",
"135 958 OFFCURVE",
"135 914 CURVE SMOOTH",
"135 859 OFFCURVE",
"176 823 OFFCURVE",
"233 823 CURVE SMOOTH",
"275 823 OFFCURVE",
"301 855 OFFCURVE",
"314 869 CURVE SMOOTH",
"338 893 OFFCURVE",
"420 1022 OFFCURVE",
"583 1022 CURVE SMOOTH",
"802 1022 OFFCURVE",
"912 776 OFFCURVE",
"912 594 CURVE SMOOTH",
"912 392 OFFCURVE",
"814 154 OFFCURVE",
"604 154 CURVE SMOOTH",
"427 154 OFFCURVE",
"325 390 OFFCURVE",
"329 491 CURVE",
"1052 495 LINE",
"1052 664 LINE",
"161 659 LINE SMOOTH",
"112 659 OFFCURVE",
"85 618 OFFCURVE",
"85 576 CURVE SMOOTH",
"85 248 OFFCURVE",
"300 -12 OFFCURVE",
"606 -12 CURVE SMOOTH",
"947 -12 OFFCURVE",
"1158 248 OFFCURVE",
"1158 594 CURVE SMOOTH",
"1158 880 OFFCURVE",
"952 1188 OFFCURVE",
"583 1188 CURVE SMOOTH"
);
}
);
width = 1240;
},
{
layerId = "440824D2-40E3-4EBC-B94D-DAF81B1E7F5E";
width = 600;
}
);
unicode = 018F;
},
{
glyphname = T;
lastChange = "2017-07-16 19:43:35 +0000";
layers = (
{
anchors = (
{
name = bottom;
position = "{620, 0}";
},
{
name = center;
position = "{620, 586}";
},
{
name = top;
position = "{620, 1171}";
}
);
layerId = "840BD324-B0A6-42B0-BD23-CB5E8C19394F";
paths = (
{
closed = 1;
nodes = (
"907 0 LINE SMOOTH",
"940 0 OFFCURVE",
"958 22 OFFCURVE",
"958 44 CURVE SMOOTH",
"958 65 OFFCURVE",
"941 86 OFFCURVE",
"909 86 CURVE SMOOTH",
"667 86 LINE",
"667 1085 LINE",
"999 1085 LINE",
"1029 814 LINE SMOOTH",
"1032 786 OFFCURVE",
"1052 771 OFFCURVE",
"1073 771 CURVE SMOOTH",
"1096 771 OFFCURVE",
"1121 788 OFFCURVE",
"1119 823 CURVE SMOOTH",
"1099 1117 LINE SMOOTH",
"1097 1152 OFFCURVE",
"1088 1171 OFFCURVE",
"1059 1171 CURVE SMOOTH",
"183 1171 LINE SMOOTH",
"152 1171 OFFCURVE",
"143 1153 OFFCURVE",
"141 1117 CURVE SMOOTH",
"121 823 LINE SMOOTH",
"119 788 OFFCURVE",
"146 769 OFFCURVE",
"170 769 CURVE SMOOTH",
"190 769 OFFCURVE",
"207 783 OFFCURVE",
"211 814 CURVE SMOOTH",
"243 1085 LINE",
"571 1085 LINE",
"571 86 LINE",
"329 86 LINE SMOOTH",
"296 86 OFFCURVE",
"279 65 OFFCURVE",
"279 44 CURVE SMOOTH",
"279 22 OFFCURVE",
"297 0 OFFCURVE",
"331 0 CURVE SMOOTH"
);
}
);
width = 1240;
},
{
anchors = (
{
name = bottom;
position = "{620, 0}";
},
{
name = center;
position = "{620, 586}";
},
{
name = top;
position = "{620, 1171}";
}
);
layerId = "F2E12B84-E402-48AA-89E7-06534AE23493";
paths = (
{
closed = 1;
nodes = (
"907 0 LINE SMOOTH",
"960 0 OFFCURVE",
"988 47 OFFCURVE",
"988 89 CURVE SMOOTH",
"988 130 OFFCURVE",
"961 176 OFFCURVE",
"907 176 CURVE SMOOTH",
"747 176 LINE",
"747 994 LINE",
"929 994 LINE",
"956 824 LINE SMOOTH",
"965 766 OFFCURVE",
"1012 731 OFFCURVE",
"1063 731 CURVE SMOOTH",
"1116 731 OFFCURVE",
"1152 768 OFFCURVE",
"1147 843 CURVE SMOOTH",
"1130 1097 LINE SMOOTH",
"1127 1142 OFFCURVE",
"1108 1171 OFFCURVE",
"1069 1171 CURVE SMOOTH",
"173 1171 LINE SMOOTH",
"132 1171 OFFCURVE",
"113 1143 OFFCURVE",
"110 1097 CURVE SMOOTH",
"93 843 LINE SMOOTH",
"88 768 OFFCURVE",
"126 729 OFFCURVE",
"180 729 CURVE SMOOTH",
"230 729 OFFCURVE",
"274 763 OFFCURVE",
"284 824 CURVE SMOOTH",
"313 994 LINE",
"491 994 LINE",
"491 176 LINE",
"331 176 LINE SMOOTH",
"276 176 OFFCURVE",
"249 130 OFFCURVE",
"249 89 CURVE SMOOTH",
"249 47 OFFCURVE",
"277 0 OFFCURVE",
"331 0 CURVE SMOOTH"
);
}
);
width = 1240;
},
{
layerId = "440824D2-40E3-4EBC-B94D-DAF81B1E7F5E";
width = 600;
}
);
unicode = 0054;
},
{
glyphname = Tbar;
lastChange = "2017-07-30 21:04:24 +0000";
layers = (
{
components = (
{
name = T;
}
);
layerId = "840BD324-B0A6-42B0-BD23-CB5E8C19394F";
paths = (
{
closed = 1;
nodes = (
"837 572 LINE SMOOTH",
"870 572 OFFCURVE",
"878 592 OFFCURVE",
"878 611 CURVE SMOOTH",
"878 630 OFFCURVE",
"872 648 OFFCURVE",
"839 648 CURVE SMOOTH",
"400 648 LINE SMOOTH",
"365 648 OFFCURVE",
"358 630 OFFCURVE",
"358 611 CURVE SMOOTH",
"358 592 OFFCURVE",
"367 572 OFFCURVE",
"404 572 CURVE SMOOTH"
);
}
);
width = 1240;
},
{
components = (
{
name = T;
}
);
layerId = "F2E12B84-E402-48AA-89E7-06534AE23493";
paths = (
{
closed = 1;
nodes = (
"861 500 LINE",
"917 500 OFFCURVE",
"941 540 OFFCURVE",
"941 579 CURVE SMOOTH",
"941 618 OFFCURVE",
"908 657 OFFCURVE",
"862 657 CURVE",
"370 657 LINE",
"314 657 OFFCURVE",
"292 619 OFFCURVE",
"292 580 CURVE SMOOTH",
"292 540 OFFCURVE",
"316 500 OFFCURVE",
"372 500 CURVE"
);
}
);
width = 1240;
},
{
layerId = "440824D2-40E3-4EBC-B94D-DAF81B1E7F5E";
width = 600;
}
);
unicode = 0166;
},
{
glyphname = U;
lastChange = "2017-07-30 22:29:21 +0000";
layers = (
{
anchors = (
{
name = bottom;
position = "{620, 0}";
},
{
name = ogonek;
position = "{1116, 10}";
},
{
name = top;
position = "{650, 1171}";
},
{
name = topright;
position = "{1260, 1302}";
}
);
layerId = "840BD324-B0A6-42B0-BD23-CB5E8C19394F";
paths = (
{
closed = 1;
nodes = (
"864 -17 OFFCURVE",
"1027 157 OFFCURVE",
"1027 411 CURVE SMOOTH",
"1027 1085 LINE",
"1170 1085 LINE SMOOTH",
"1196 1085 OFFCURVE",
"1214 1106 OFFCURVE",
"1214 1127 CURVE SMOOTH",
"1214 1149 OFFCURVE",
"1196 1171 OFFCURVE",
"1169 1171 CURVE SMOOTH",
"811 1171 LINE SMOOTH",
"777 1171 OFFCURVE",
"760 1149 OFFCURVE",
"760 1127 CURVE SMOOTH",
"760 1106 OFFCURVE",
"777 1085 OFFCURVE",
"810 1085 CURVE SMOOTH",
"931 1085 LINE",
"931 411 LINE SMOOTH",
"931 211 OFFCURVE",
"811 69 OFFCURVE",
"625 69 CURVE SMOOTH",
"426 69 OFFCURVE",
"316 195 OFFCURVE",
"316 413 CURVE SMOOTH",
"316 1085 LINE",
"478 1085 LINE SMOOTH",
"511 1085 OFFCURVE",
"527 1106 OFFCURVE",
"527 1127 CURVE SMOOTH",
"527 1149 OFFCURVE",
"510 1171 OFFCURVE",
"477 1171 CURVE SMOOTH",
"76 1171 LINE SMOOTH",
"43 1171 OFFCURVE",
"26 1149 OFFCURVE",
"26 1127 CURVE SMOOTH",
"26 1106 OFFCURVE",
"42 1085 OFFCURVE",
"75 1085 CURVE SMOOTH",
"220 1085 LINE",
"220 413 LINE SMOOTH",
"220 142 OFFCURVE",
"386 -17 OFFCURVE",
"625 -17 CURVE SMOOTH"
);
}
);
width = 1240;
},
{
anchors = (
{
name = bottom;
position = "{620, 0}";
},
{
name = ogonek;
position = "{1116, 10}";
},
{
name = top;
position = "{620, 1171}";
},
{
name = topright;
position = "{1252, 971}";
}
);
layerId = "F2E12B84-E402-48AA-89E7-06534AE23493";
paths = (
{
closed = 1;
nodes = (
"900 -17 OFFCURVE",
"1080 142 OFFCURVE",
"1080 413 CURVE SMOOTH",
"1080 995 LINE",
"1134 995 LINE SMOOTH",
"1197 995 OFFCURVE",
"1223 1041 OFFCURVE",
"1223 1082 CURVE SMOOTH",
"1223 1124 OFFCURVE",
"1196 1171 OFFCURVE",
"1133 1171 CURVE SMOOTH",
"743 1171 LINE SMOOTH",
"680 1171 OFFCURVE",
"653 1124 OFFCURVE",
"653 1082 CURVE SMOOTH",
"653 1041 OFFCURVE",
"679 995 OFFCURVE",
"742 995 CURVE SMOOTH",
"834 995 LINE",
"834 433 LINE SMOOTH",
"834 305 OFFCURVE",
"770 179 OFFCURVE",
"617 179 CURVE SMOOTH",
"476 179 OFFCURVE",
"400 305 OFFCURVE",
"400 431 CURVE SMOOTH",
"400 995 LINE",
"492 995 LINE SMOOTH",
"555 995 OFFCURVE",
"582 1041 OFFCURVE",
"582 1082 CURVE SMOOTH",
"582 1124 OFFCURVE",
"555 1171 OFFCURVE",
"491 1171 CURVE SMOOTH",
"102 1171 LINE SMOOTH",
"45 1171 OFFCURVE",
"17 1124 OFFCURVE",
"17 1082 CURVE SMOOTH",
"17 1041 OFFCURVE",
"45 995 OFFCURVE",
"101 995 CURVE SMOOTH",
"154 995 LINE",
"154 411 LINE SMOOTH",
"154 157 OFFCURVE",
"323 -17 OFFCURVE",
"622 -17 CURVE SMOOTH"
);
}
);
width = 1240;
},
{
layerId = "440824D2-40E3-4EBC-B94D-DAF81B1E7F5E";
width = 600;
}
);
unicode = 0055;
},
{
glyphname = Uhorn;
lastChange = "2017-07-30 22:30:28 +0000";
layers = (
{
anchors = (
{
name = bottom;
position = "{620, 0}";
},
{
name = ogonek;
position = "{1116, 10}";
},
{
name = top;
position = "{650, 1171}";
},
{
name = topright;
position = "{1240, 1302}";
}
);
components = (
{
name = horncomb;
transform = "{1, 0, 0, 1, 411, 179}";
}
);
layerId = "840BD324-B0A6-42B0-BD23-CB5E8C19394F";
paths = (
{
closed = 1;
nodes = (
"844 -17 OFFCURVE",
"1007 157 OFFCURVE",
"1007 411 CURVE SMOOTH",
"1007 1085 LINE",
"1009 1171 LINE",
"791 1171 LINE SMOOTH",
"757 1171 OFFCURVE",
"740 1149 OFFCURVE",
"740 1127 CURVE SMOOTH",
"740 1106 OFFCURVE",
"757 1085 OFFCURVE",
"790 1085 CURVE SMOOTH",
"911 1085 LINE",
"911 411 LINE SMOOTH",
"911 211 OFFCURVE",
"791 69 OFFCURVE",
"625 69 CURVE SMOOTH",
"446 69 OFFCURVE",
"336 195 OFFCURVE",
"336 413 CURVE SMOOTH",
"336 1085 LINE",
"498 1085 LINE SMOOTH",
"531 1085 OFFCURVE",
"547 1106 OFFCURVE",
"547 1127 CURVE SMOOTH",
"547 1149 OFFCURVE",
"530 1171 OFFCURVE",
"497 1171 CURVE SMOOTH",
"96 1171 LINE SMOOTH",
"63 1171 OFFCURVE",
"46 1149 OFFCURVE",
"46 1127 CURVE SMOOTH",
"46 1106 OFFCURVE",
"62 1085 OFFCURVE",
"95 1085 CURVE SMOOTH",
"240 1085 LINE",
"240 413 LINE SMOOTH",
"240 142 OFFCURVE",
"406 -17 OFFCURVE",
"625 -17 CURVE SMOOTH"
);
}
);
width = 1240;
},
{
anchors = (
{
name = bottom;
position = "{620, 0}";
},
{
name = ogonek;
position = "{1116, 10}";
},
{
name = top;
position = "{620, 1171}";
},
{
name = topright;
position = "{1252, 971}";
}
);
components = (
{
alignment = 1;
name = horncomb;
transform = "{1, 0, 0, 1, 547, 176}";
}
);
layerId = "F2E12B84-E402-48AA-89E7-06534AE23493";
paths = (
{
closed = 1;
nodes = (
"900 -17 OFFCURVE",
"1080 142 OFFCURVE",
"1080 413 CURVE SMOOTH",
"1080 995 LINE",
"1081 1171 LINE",
"743 1171 LINE SMOOTH",
"680 1171 OFFCURVE",
"653 1124 OFFCURVE",
"653 1082 CURVE SMOOTH",
"653 1041 OFFCURVE",
"679 995 OFFCURVE",
"742 995 CURVE SMOOTH",
"834 995 LINE",
"834 433 LINE SMOOTH",
"834 305 OFFCURVE",
"770 179 OFFCURVE",
"617 179 CURVE SMOOTH",
"476 179 OFFCURVE",
"400 305 OFFCURVE",
"400 431 CURVE SMOOTH",
"400 995 LINE",
"492 995 LINE SMOOTH",
"555 995 OFFCURVE",
"582 1041 OFFCURVE",
"582 1082 CURVE SMOOTH",
"582 1124 OFFCURVE",
"555 1171 OFFCURVE",
"491 1171 CURVE SMOOTH",
"102 1171 LINE SMOOTH",
"45 1171 OFFCURVE",
"17 1124 OFFCURVE",
"17 1082 CURVE SMOOTH",
"17 1041 OFFCURVE",
"45 995 OFFCURVE",
"101 995 CURVE SMOOTH",
"154 995 LINE",
"154 411 LINE SMOOTH",
"154 157 OFFCURVE",
"323 -17 OFFCURVE",
"622 -17 CURVE SMOOTH"
);
}
);
width = 1240;
},
{
layerId = "440824D2-40E3-4EBC-B94D-DAF81B1E7F5E";
width = 600;
}
);
unicode = 01AF;
},
{
glyphname = V;
lastChange = "2017-07-16 19:36:11 +0000";
layers = (
{
anchors = (
{
name = bottom;
position = "{620, 0}";
},
{
name = top;
position = "{620, 1171}";
}
);
layerId = "840BD324-B0A6-42B0-BD23-CB5E8C19394F";
paths = (
{
closed = 1;
nodes = (
"670 -17 OFFCURVE",
"682 3 OFFCURVE",
"698 39 CURVE",
"1044 1085 LINE",
"1130 1085 LINE SMOOTH",
"1163 1085 OFFCURVE",
"1178 1107 OFFCURVE",
"1178 1128 CURVE SMOOTH",
"1178 1150 OFFCURVE",
"1162 1171 OFFCURVE",
"1129 1171 CURVE SMOOTH",
"825 1171 LINE SMOOTH",
"791 1171 OFFCURVE",
"774 1150 OFFCURVE",
"774 1128 CURVE SMOOTH",
"774 1107 OFFCURVE",
"791 1085 OFFCURVE",
"824 1085 CURVE SMOOTH",
"944 1085 LINE",
"639 126 LINE",
"312 1085 LINE",
"447 1085 LINE SMOOTH",
"480 1085 OFFCURVE",
"496 1107 OFFCURVE",
"496 1128 CURVE SMOOTH",
"496 1150 OFFCURVE",
"479 1171 OFFCURVE",
"446 1171 CURVE SMOOTH",
"106 1171 LINE SMOOTH",
"73 1171 OFFCURVE",
"56 1149 OFFCURVE",
"56 1127 CURVE SMOOTH",
"56 1106 OFFCURVE",
"72 1085 OFFCURVE",
"104 1085 CURVE SMOOTH",
"208 1085 LINE",
"570 39 LINE SMOOTH",
"581 6 OFFCURVE",
"598 -17 OFFCURVE",
"634 -17 CURVE SMOOTH"
);
}
);
width = 1240;
},
{
anchors = (
{
name = bottom;
position = "{644, 0}";
},
{
name = top;
position = "{644, 1171}";
}
);
layerId = "F2E12B84-E402-48AA-89E7-06534AE23493";
paths = (
{
closed = 1;
nodes = (
"686 -17 OFFCURVE",
"711 6 OFFCURVE",
"723 39 CURVE SMOOTH",
"1066 995 LINE",
"1120 995 LINE SMOOTH",
"1182 995 OFFCURVE",
"1208 1041 OFFCURVE",
"1208 1082 CURVE SMOOTH",
"1208 1124 OFFCURVE",
"1181 1171 OFFCURVE",
"1118 1171 CURVE SMOOTH",
"768 1171 LINE SMOOTH",
"705 1171 OFFCURVE",
"678 1125 OFFCURVE",
"678 1083 CURVE SMOOTH",
"678 1042 OFFCURVE",
"704 995 OFFCURVE",
"767 995 CURVE SMOOTH",
"852 995 LINE",
"641 366 LINE",
"430 995 LINE",
"520 995 LINE SMOOTH",
"583 995 OFFCURVE",
"610 1042 OFFCURVE",
"610 1083 CURVE SMOOTH",
"610 1125 OFFCURVE",
"583 1171 OFFCURVE",
"519 1171 CURVE SMOOTH",
"145 1171 LINE SMOOTH",
"82 1171 OFFCURVE",
"56 1125 OFFCURVE",
"56 1083 CURVE SMOOTH",
"56 1042 OFFCURVE",
"81 995 OFFCURVE",
"144 995 CURVE SMOOTH",
"190 995 LINE",
"546 39 LINE SMOOTH",
"560 2 OFFCURVE",
"594 -17 OFFCURVE",
"640 -17 CURVE SMOOTH"
);
}
);
width = 1240;
},
{
layerId = "440824D2-40E3-4EBC-B94D-DAF81B1E7F5E";
width = 600;
}
);
unicode = 0056;
},
{
glyphname = W;
lastChange = "2017-07-16 20:02:08 +0000";
layers = (
{
anchors = (
{
name = bottom;
position = "{620, 0}";
},
{
name = top;
position = "{640, 1171}";
}
);
layerId = "840BD324-B0A6-42B0-BD23-CB5E8C19394F";
paths = (
{
closed = 1;
nodes = (
"420 -17 OFFCURVE",
"444 -3 OFFCURVE",
"452 27 CURVE SMOOTH",
"635 716 LINE",
"802 35 LINE SMOOTH",
"810 1 OFFCURVE",
"837 -17 OFFCURVE",
"858 -17 CURVE SMOOTH",
"883 -17 OFFCURVE",
"906 -3 OFFCURVE",
"911 27 CURVE SMOOTH",
"1071 1085 LINE",
"1144 1085 LINE SMOOTH",
"1178 1085 OFFCURVE",
"1195 1107 OFFCURVE",
"1195 1129 CURVE SMOOTH",
"1195 1150 OFFCURVE",
"1178 1171 OFFCURVE",
"1145 1171 CURVE SMOOTH",
"866 1171 LINE SMOOTH",
"833 1171 OFFCURVE",
"817 1150 OFFCURVE",
"817 1129 CURVE SMOOTH",
"817 1107 OFFCURVE",
"834 1085 OFFCURVE",
"867 1085 CURVE SMOOTH",
"974 1085 LINE",
"853 171 LINE",
"685 845 LINE SMOOTH",
"679 869 OFFCURVE",
"659 881 OFFCURVE",
"640 881 CURVE SMOOTH",
"621 881 OFFCURVE",
"599 869 OFFCURVE",
"593 845 CURVE SMOOTH",
"413 172 LINE",
"280 1085 LINE",
"394 1085 LINE SMOOTH",
"428 1085 OFFCURVE",
"445 1107 OFFCURVE",
"445 1129 CURVE SMOOTH",
"445 1150 OFFCURVE",
"429 1171 OFFCURVE",
"396 1171 CURVE SMOOTH",
"94 1171 LINE SMOOTH",
"61 1171 OFFCURVE",
"45 1150 OFFCURVE",
"45 1129 CURVE SMOOTH",
"45 1107 OFFCURVE",
"62 1085 OFFCURVE",
"95 1085 CURVE SMOOTH",
"182 1085 LINE",
"345 35 LINE SMOOTH",
"349 1 OFFCURVE",
"374 -17 OFFCURVE",
"398 -17 CURVE SMOOTH"
);
}
);
width = 1240;
},
{
anchors = (
{
name = bottom;
position = "{620, 0}";
},
{
name = top;
position = "{620, 1171}";
}
);
layerId = "F2E12B84-E402-48AA-89E7-06534AE23493";
paths = (
{
closed = 1;
nodes = (
"431 -17 OFFCURVE",
"481 -2 OFFCURVE",
"503 65 CURVE SMOOTH",
"633 456 LINE",
"764 73 LINE SMOOTH",
"788 1 OFFCURVE",
"828 -17 OFFCURVE",
"869 -17 CURVE SMOOTH",
"904 -17 OFFCURVE",
"958 -3 OFFCURVE",
"966 57 CURVE SMOOTH",
"1091 995 LINE",
"1124 995 LINE SMOOTH",
"1188 995 OFFCURVE",
"1215 1042 OFFCURVE",
"1215 1084 CURVE SMOOTH",
"1215 1125 OFFCURVE",
"1188 1171 OFFCURVE",
"1125 1171 CURVE SMOOTH",
"826 1171 LINE SMOOTH",
"763 1171 OFFCURVE",
"737 1125 OFFCURVE",
"737 1084 CURVE SMOOTH",
"737 1042 OFFCURVE",
"764 995 OFFCURVE",
"827 995 CURVE SMOOTH",
"904 995 LINE",
"840 412 LINE",
"696 825 LINE SMOOTH",
"688 849 OFFCURVE",
"670 881 OFFCURVE",
"641 881 CURVE SMOOTH",
"612 881 OFFCURVE",
"593 849 OFFCURVE",
"585 825 CURVE SMOOTH",
"439 412 LINE",
"360 995 LINE",
"444 995 LINE SMOOTH",
"508 995 OFFCURVE",
"535 1042 OFFCURVE",
"535 1084 CURVE SMOOTH",
"535 1125 OFFCURVE",
"509 1171 OFFCURVE",
"446 1171 CURVE SMOOTH",
"114 1171 LINE SMOOTH",
"51 1171 OFFCURVE",
"25 1125 OFFCURVE",
"25 1084 CURVE SMOOTH",
"25 1042 OFFCURVE",
"52 995 OFFCURVE",
"115 995 CURVE SMOOTH",
"142 995 LINE",
"292 65 LINE SMOOTH",
"302 1 OFFCURVE",
"345 -17 OFFCURVE",
"389 -17 CURVE SMOOTH"
);
}
);
width = 1240;
},
{
layerId = "440824D2-40E3-4EBC-B94D-DAF81B1E7F5E";
width = 600;
}
);
unicode = 0057;
},
{
glyphname = X;
lastChange = "2017-07-13 18:39:58 +0000";
layers = (
{
anchors = (
{
name = bottom;
position = "{620, 0}";
},
{
name = top;
position = "{620, 1171}";
}
);
layerId = "840BD324-B0A6-42B0-BD23-CB5E8C19394F";
paths = (
{
closed = 1;
nodes = (
"477 0 LINE SMOOTH",
"510 0 OFFCURVE",
"527 22 OFFCURVE",
"527 43 CURVE SMOOTH",
"527 67 OFFCURVE",
"511 86 OFFCURVE",
"478 86 CURVE SMOOTH",
"330 86 LINE",
"646 554 LINE",
"665 575 LINE",
"1019 1085 LINE",
"1102 1085 LINE SMOOTH",
"1135 1085 OFFCURVE",
"1151 1106 OFFCURVE",
"1151 1127 CURVE SMOOTH",
"1151 1149 OFFCURVE",
"1134 1171 OFFCURVE",
"1101 1171 CURVE SMOOTH",
"802 1171 LINE SMOOTH",
"769 1171 OFFCURVE",
"752 1149 OFFCURVE",
"752 1127 CURVE SMOOTH",
"752 1106 OFFCURVE",
"768 1085 OFFCURVE",
"801 1085 CURVE SMOOTH",
"912 1085 LINE",
"613 651 LINE",
"592 630 LINE",
"219 86 LINE",
"138 86 LINE SMOOTH",
"105 86 OFFCURVE",
"89 67 OFFCURVE",
"89 43 CURVE SMOOTH",
"89 22 OFFCURVE",
"106 0 OFFCURVE",
"139 0 CURVE SMOOTH"
);
},
{
closed = 1;
nodes = (
"1095 0 LINE SMOOTH",
"1129 0 OFFCURVE",
"1146 23 OFFCURVE",
"1146 44 CURVE SMOOTH",
"1146 64 OFFCURVE",
"1130 86 OFFCURVE",
"1097 86 CURVE SMOOTH",
"1024 86 LINE",
"665 626 LINE",
"644 651 LINE",
"350 1085 LINE",
"498 1085 LINE SMOOTH",
"531 1085 OFFCURVE",
"547 1106 OFFCURVE",
"547 1127 CURVE SMOOTH",
"547 1149 OFFCURVE",
"530 1171 OFFCURVE",
"497 1171 CURVE SMOOTH",
"151 1171 LINE SMOOTH",
"118 1171 OFFCURVE",
"101 1149 OFFCURVE",
"101 1127 CURVE SMOOTH",
"101 1106 OFFCURVE",
"117 1085 OFFCURVE",
"150 1085 CURVE SMOOTH",
"242 1085 LINE",
"591 578 LINE",
"609 556 LINE",
"916 86 LINE",
"762 86 LINE SMOOTH",
"729 86 OFFCURVE",
"713 67 OFFCURVE",
"713 43 CURVE SMOOTH",
"713 22 OFFCURVE",
"730 0 OFFCURVE",
"763 0 CURVE SMOOTH"
);
}
);
width = 1240;
},
{
anchors = (
{
name = bottom;
position = "{620, 0}";
},
{
name = top;
position = "{620, 1171}";
}
);
layerId = "F2E12B84-E402-48AA-89E7-06534AE23493";
paths = (
{
closed = 1;
nodes = (
"467 0 LINE SMOOTH",
"530 0 OFFCURVE",
"557 47 OFFCURVE",
"557 88 CURVE SMOOTH",
"557 137 OFFCURVE",
"531 176 OFFCURVE",
"468 176 CURVE SMOOTH",
"440 176 LINE",
"716 554 LINE",
"735 575 LINE",
"1039 995 LINE",
"1092 995 LINE SMOOTH",
"1155 995 OFFCURVE",
"1181 1041 OFFCURVE",
"1181 1082 CURVE SMOOTH",
"1181 1124 OFFCURVE",
"1154 1171 OFFCURVE",
"1091 1171 CURVE SMOOTH",
"782 1171 LINE SMOOTH",
"719 1171 OFFCURVE",
"692 1124 OFFCURVE",
"692 1082 CURVE SMOOTH",
"692 1041 OFFCURVE",
"718 995 OFFCURVE",
"781 995 CURVE SMOOTH",
"812 995 LINE",
"563 651 LINE",
"532 630 LINE",
"209 176 LINE",
"158 176 LINE SMOOTH",
"95 176 OFFCURVE",
"69 132 OFFCURVE",
"69 88 CURVE SMOOTH",
"69 47 OFFCURVE",
"96 0 OFFCURVE",
"159 0 CURVE SMOOTH"
);
},
{
closed = 1;
nodes = (
"1100 0 LINE SMOOTH",
"1164 0 OFFCURVE",
"1191 48 OFFCURVE",
"1191 89 CURVE SMOOTH",
"1191 129 OFFCURVE",
"1165 176 OFFCURVE",
"1102 176 CURVE SMOOTH",
"1054 176 LINE",
"715 636 LINE",
"694 661 LINE",
"450 995 LINE",
"488 995 LINE SMOOTH",
"551 995 OFFCURVE",
"577 1041 OFFCURVE",
"577 1082 CURVE SMOOTH",
"577 1124 OFFCURVE",
"550 1171 OFFCURVE",
"487 1171 CURVE SMOOTH",
"136 1171 LINE SMOOTH",
"73 1171 OFFCURVE",
"46 1124 OFFCURVE",
"46 1082 CURVE SMOOTH",
"46 1041 OFFCURVE",
"72 995 OFFCURVE",
"135 995 CURVE SMOOTH",
"192 995 LINE",
"511 548 LINE",
"529 526 LINE",
"796 176 LINE",
"762 176 LINE SMOOTH",
"699 176 OFFCURVE",
"673 137 OFFCURVE",
"673 88 CURVE SMOOTH",
"673 47 OFFCURVE",
"700 0 OFFCURVE",
"763 0 CURVE SMOOTH"
);
}
);
width = 1240;
},
{
layerId = "440824D2-40E3-4EBC-B94D-DAF81B1E7F5E";
width = 600;
}
);
unicode = 0058;
},
{
glyphname = Y;
lastChange = "2017-07-13 18:39:58 +0000";
layers = (
{
anchors = (
{
name = bottom;
position = "{620, 0}";
},
{
name = top;
position = "{640, 1171}";
},
{
name = topleft;
position = "{20, 1171}";
}
);
layerId = "840BD324-B0A6-42B0-BD23-CB5E8C19394F";
paths = (
{
closed = 1;
nodes = (
"904 0 LINE SMOOTH",
"937 0 OFFCURVE",
"954 22 OFFCURVE",
"954 44 CURVE SMOOTH",
"954 65 OFFCURVE",
"938 86 OFFCURVE",
"906 86 CURVE SMOOTH",
"674 86 LINE",
"674 498 LINE",
"1007 1085 LINE",
"1112 1085 LINE SMOOTH",
"1145 1085 OFFCURVE",
"1161 1108 OFFCURVE",
"1161 1127 CURVE SMOOTH",
"1161 1146 OFFCURVE",
"1144 1171 OFFCURVE",
"1110 1171 CURVE SMOOTH",
"794 1171 LINE SMOOTH",
"761 1171 OFFCURVE",
"743 1147 OFFCURVE",
"743 1128 CURVE SMOOTH",
"743 1109 OFFCURVE",
"760 1085 OFFCURVE",
"793 1085 CURVE SMOOTH",
"909 1085 LINE",
"631 583 LINE",
"345 1085 LINE",
"481 1085 LINE SMOOTH",
"514 1085 OFFCURVE",
"531 1109 OFFCURVE",
"531 1128 CURVE SMOOTH",
"531 1147 OFFCURVE",
"514 1171 OFFCURVE",
"480 1171 CURVE SMOOTH",
"130 1171 LINE SMOOTH",
"97 1171 OFFCURVE",
"79 1147 OFFCURVE",
"79 1128 CURVE SMOOTH",
"79 1109 OFFCURVE",
"96 1085 OFFCURVE",
"129 1085 CURVE SMOOTH",
"233 1085 LINE",
"578 503 LINE",
"578 86 LINE",
"346 86 LINE SMOOTH",
"313 86 OFFCURVE",
"296 65 OFFCURVE",
"296 44 CURVE SMOOTH",
"296 22 OFFCURVE",
"314 0 OFFCURVE",
"348 0 CURVE SMOOTH"
);
}
);
width = 1240;
},
{
anchors = (
{
name = bottom;
position = "{620, 0}";
},
{
name = top;
position = "{620, 1171}";
},
{
name = topleft;
position = "{1220, 1171}";
}
);
layerId = "F2E12B84-E402-48AA-89E7-06534AE23493";
paths = (
{
closed = 1;
nodes = (
"836 0 LINE",
"908 0 OFFCURVE",
"939 41 OFFCURVE",
"939 87 CURVE SMOOTH",
"939 134 OFFCURVE",
"908 176 OFFCURVE",
"839 176 CURVE SMOOTH",
"732 176 LINE",
"732 503 LINE",
"1057 995 LINE",
"1111 995 LINE SMOOTH",
"1174 995 OFFCURVE",
"1201 1044 OFFCURVE",
"1201 1083 CURVE SMOOTH",
"1201 1122 OFFCURVE",
"1173 1171 OFFCURVE",
"1110 1171 CURVE SMOOTH",
"790 1171 LINE SMOOTH",
"726 1171 OFFCURVE",
"699 1122 OFFCURVE",
"699 1083 CURVE SMOOTH",
"699 1044 OFFCURVE",
"726 995 OFFCURVE",
"789 995 CURVE SMOOTH",
"845 995 LINE",
"633 663 LINE",
"421 995 LINE",
"467 995 LINE SMOOTH",
"530 995 OFFCURVE",
"557 1044 OFFCURVE",
"557 1083 CURVE SMOOTH",
"557 1122 OFFCURVE",
"529 1171 OFFCURVE",
"466 1171 CURVE SMOOTH",
"120 1171 LINE SMOOTH",
"56 1171 OFFCURVE",
"29 1121 OFFCURVE",
"29 1082 CURVE SMOOTH",
"29 1043 OFFCURVE",
"55 995 OFFCURVE",
"118 995 CURVE SMOOTH",
"173 995 LINE",
"487 498 LINE",
"486 176 LINE",
"380 176 LINE SMOOTH",
"318 176 OFFCURVE",
"284 134 OFFCURVE",
"284 87 CURVE SMOOTH",
"284 41 OFFCURVE",
"320 0 OFFCURVE",
"373 0 CURVE"
);
}
);
width = 1240;
},
{
layerId = "440824D2-40E3-4EBC-B94D-DAF81B1E7F5E";
width = 600;
}
);
unicode = 0059;
},
{
glyphname = Z;
lastChange = "2017-07-15 19:34:07 +0000";
layers = (
{
anchors = (
{
name = bottom;
position = "{620, 0}";
},
{
name = top;
position = "{620, 1171}";
}
);
layerId = "840BD324-B0A6-42B0-BD23-CB5E8C19394F";
paths = (
{
closed = 1;
nodes = (
"982 0 LINE SMOOTH",
"1011 0 OFFCURVE",
"1031 19 OFFCURVE",
"1033 53 CURVE SMOOTH",
"1053 385 LINE",
"1053 420 OFFCURVE",
"1033 435 OFFCURVE",
"1012 435 CURVE SMOOTH",
"989 435 OFFCURVE",
"963 416 OFFCURVE",
"961 384 CURVE",
"931 86 LINE",
"321 86 LINE",
"1030 1081 LINE SMOOTH",
"1038 1092 OFFCURVE",
"1040 1104 OFFCURVE",
"1040 1116 CURVE SMOOTH",
"1040 1144 OFFCURVE",
"1023 1171 OFFCURVE",
"991 1171 CURVE SMOOTH",
"280 1171 LINE SMOOTH",
"229 1171 OFFCURVE",
"213 1144 OFFCURVE",
"212 1116 CURVE",
"192 806 LINE SMOOTH",
"190 774 OFFCURVE",
"217 757 OFFCURVE",
"242 757 CURVE SMOOTH",
"264 757 OFFCURVE",
"283 770 OFFCURVE",
"286 797 CURVE SMOOTH",
"321 1085 LINE",
"926 1085 LINE",
"205 95 LINE SMOOTH",
"195 81 OFFCURVE",
"177 53 OFFCURVE",
"177 31 CURVE SMOOTH",
"177 14 OFFCURVE",
"190 0 OFFCURVE",
"229 0 CURVE SMOOTH"
);
}
);
width = 1240;
},
{
anchors = (
{
name = bottom;
position = "{620, 0}";
},
{
name = top;
position = "{620, 1171}";
}
);
layerId = "F2E12B84-E402-48AA-89E7-06534AE23493";
paths = (
{
closed = 1;
nodes = (
"1022 0 LINE SMOOTH",
"1061 0 OFFCURVE",
"1079 19 OFFCURVE",
"1083 53 CURVE SMOOTH",
"1122 355 LINE SMOOTH",
"1132 430 OFFCURVE",
"1077 465 OFFCURVE",
"1026 465 CURVE SMOOTH",
"973 465 OFFCURVE",
"930 425 OFFCURVE",
"917 374 CURVE SMOOTH",
"869 186 LINE",
"491 186 LINE",
"1090 1081 LINE SMOOTH",
"1097 1092 OFFCURVE",
"1100 1104 OFFCURVE",
"1100 1116 CURVE SMOOTH",
"1100 1144 OFFCURVE",
"1083 1171 OFFCURVE",
"1051 1171 CURVE SMOOTH",
"255 1171 LINE SMOOTH",
"219 1171 OFFCURVE",
"195 1144 OFFCURVE",
"191 1116 CURVE SMOOTH",
"151 836 LINE SMOOTH",
"141 764 OFFCURVE",
"194 727 OFFCURVE",
"249 727 CURVE SMOOTH",
"301 727 OFFCURVE",
"334 761 OFFCURVE",
"348 807 CURVE SMOOTH",
"401 985 LINE",
"766 985 LINE",
"182 122 LINE SMOOTH",
"173 108 OFFCURVE",
"155 72 OFFCURVE",
"155 50 CURVE SMOOTH",
"155 27 OFFCURVE",
"170 0 OFFCURVE",
"199 0 CURVE SMOOTH"
);
}
);
width = 1240;
},
{
layerId = "440824D2-40E3-4EBC-B94D-DAF81B1E7F5E";
width = 600;
}
);
unicode = 005A;
},
{
glyphname = a;
lastChange = "2017-08-10 21:29:09 +0000";
layers = (
{
anchors = (
{
name = bottom;
position = "{640, 0}";
},
{
name = ogonek;
position = "{1116, 10}";
},
{
name = top;
position = "{590, 774}";
}
);
layerId = "840BD324-B0A6-42B0-BD23-CB5E8C19394F";
paths = (
{
closed = 1;
nodes = (
"637 -16 OFFCURVE",
"760 44 OFFCURVE",
"821 113 CURVE",
"846 16 OFFCURVE",
"898 -7 OFFCURVE",
"965 -7 CURVE SMOOTH",
"1035 -7 OFFCURVE",
"1063 11 OFFCURVE",
"1091 37 CURVE SMOOTH",
"1106 51 OFFCURVE",
"1118 73 OFFCURVE",
"1118 90 CURVE SMOOTH",
"1118 116 OFFCURVE",
"1103 133 OFFCURVE",
"1078 133 CURVE SMOOTH",
"1057 133 OFFCURVE",
"1042 113 OFFCURVE",
"1032 102 CURVE SMOOTH",
"1021 90 OFFCURVE",
"1004 72 OFFCURVE",
"973 72 CURVE SMOOTH",
"945 72 OFFCURVE",
"910 93 OFFCURVE",
"910 162 CURVE SMOOTH",
"910 444 LINE SMOOTH",
"910 644 OFFCURVE",
"849 813 OFFCURVE",
"612 813 CURVE SMOOTH",
"405 813 OFFCURVE",
"264 725 OFFCURVE",
"264 603 CURVE SMOOTH",
"264 563 OFFCURVE",
"283 531 OFFCURVE",
"324 531 CURVE SMOOTH",
"372 531 OFFCURVE",
"385 593 OFFCURVE",
"390 686 CURVE",
"461 718 OFFCURVE",
"527 731 OFFCURVE",
"611 731 CURVE SMOOTH",
"756 731 OFFCURVE",
"814 623 OFFCURVE",
"814 484 CURVE",
"547 464 OFFCURVE",
"253 455 OFFCURVE",
"253 210 CURVE SMOOTH",
"253 74 OFFCURVE",
"340 -16 OFFCURVE",
"491 -16 CURVE SMOOTH"
);
},
{
closed = 1;
nodes = (
"417 72 OFFCURVE",
"350 120 OFFCURVE",
"350 210 CURVE SMOOTH",
"350 364 OFFCURVE",
"525 373 OFFCURVE",
"814 401 CURVE",
"814 204 LINE",
"742 128 OFFCURVE",
"621 72 OFFCURVE",
"502 72 CURVE SMOOTH"
);
}
);
width = 1240;
},
{
anchors = (
{
name = bottom;
position = "{620, -40}";
},
{
name = ogonek;
position = "{1116, 10}";
},
{
name = top;
position = "{610, 774}";
}
);
layerId = "F2E12B84-E402-48AA-89E7-06534AE23493";
paths = (
{
closed = 1;
nodes = (
"607 -16 OFFCURVE",
"682 33 OFFCURVE",
"743 73 CURVE",
"787 22 OFFCURVE",
"864 -16 OFFCURVE",
"965 -16 CURVE SMOOTH",
"1070 -16 OFFCURVE",
"1122 6 OFFCURVE",
"1161 48 CURVE SMOOTH",
"1179 67 OFFCURVE",
"1194 99 OFFCURVE",
"1194 135 CURVE SMOOTH",
"1194 174 OFFCURVE",
"1176 217 OFFCURVE",
"1128 217 CURVE SMOOTH",
"1100 217 OFFCURVE",
"1076 196 OFFCURVE",
"1066 171 CURVE SMOOTH",
"1056 147 OFFCURVE",
"1041 131 OFFCURVE",
"1010 131 CURVE SMOOTH",
"967 131 OFFCURVE",
"959 173 OFFCURVE",
"958 222 CURVE SMOOTH",
"952 504 LINE SMOOTH",
"948 724 OFFCURVE",
"789 813 OFFCURVE",
"602 813 CURVE SMOOTH",
"375 813 OFFCURVE",
"198 741 OFFCURVE",
"198 588 CURVE SMOOTH",
"198 513 OFFCURVE",
"247 474 OFFCURVE",
"313 474 CURVE SMOOTH",
"366 474 OFFCURVE",
"399 520 OFFCURVE",
"411 630 CURVE",
"429 642 OFFCURVE",
"484 657 OFFCURVE",
"542 657 CURVE SMOOTH",
"639 657 OFFCURVE",
"708 595 OFFCURVE",
"708 489 CURVE",
"440 463 OFFCURVE",
"182 445 OFFCURVE",
"176 200 CURVE SMOOTH",
"172 54 OFFCURVE",
"293 -16 OFFCURVE",
"451 -16 CURVE SMOOTH"
);
},
{
closed = 1;
nodes = (
"469 153 OFFCURVE",
"430 183 OFFCURVE",
"430 226 CURVE SMOOTH",
"430 321 OFFCURVE",
"567 333 OFFCURVE",
"708 349 CURVE",
"708 210 LINE",
"676 182 OFFCURVE",
"621 153 OFFCURVE",
"531 153 CURVE SMOOTH"
);
}
);
width = 1240;
},
{
anchors = (
{
name = bottom;
position = "{552, 0}";
},
{
name = ogonek;
position = "{1048, 10}";
},
{
name = top;
position = "{688, 774}";
}
);
layerId = "440824D2-40E3-4EBC-B94D-DAF81B1E7F5E";
paths = (
{
closed = 1;
nodes = (
"843 770 OFFCURVE",
"765 804 OFFCURVE",
"624 804 CURVE SMOOTH",
"332 804 OFFCURVE",
"180 551 OFFCURVE",
"180 315 CURVE SMOOTH",
"180 116 OFFCURVE",
"296 -16 OFFCURVE",
"471 -16 CURVE SMOOTH",
"666 -16 OFFCURVE",
"751 105 OFFCURVE",
"785 148 CURVE",
"813 328 LINE",
"761 219 OFFCURVE",
"641 77 OFFCURVE",
"492 77 CURVE SMOOTH",
"359 77 OFFCURVE",
"277 176 OFFCURVE",
"279 325 CURVE SMOOTH",
"281 497 OFFCURVE",
"394 711 OFFCURVE",
"625 711 CURVE SMOOTH",
"756 711 OFFCURVE",
"847 669 OFFCURVE",
"877 615 CURVE",
"906 726 LINE"
);
},
{
closed = 1;
nodes = (
"778 83 CURVE SMOOTH",
"795 24 OFFCURVE",
"852 -7 OFFCURVE",
"910 -7 CURVE SMOOTH",
"970 -7 OFFCURVE",
"1020 28 OFFCURVE",
"1044 54 CURVE SMOOTH",
"1062 74 OFFCURVE",
"1083 106 OFFCURVE",
"1083 135 CURVE SMOOTH",
"1083 161 OFFCURVE",
"1068 178 OFFCURVE",
"1045 178 CURVE SMOOTH",
"1014 178 OFFCURVE",
"1002 151 OFFCURVE",
"993 138 CURVE",
"984 126 OFFCURVE",
"961 82 OFFCURVE",
"919 82 CURVE SMOOTH",
"886 82 OFFCURVE",
"862 115 OFFCURVE",
"874 167 CURVE SMOOTH",
"994 697 LINE SMOOTH",
"1009 764 OFFCURVE",
"1008 812 OFFCURVE",
"958 812 CURVE SMOOTH",
"932 812 OFFCURVE",
"919 798 OFFCURVE",
"910 762 CURVE SMOOTH",
"867 595 OFFCURVE",
"841 471 OFFCURVE",
"790 228 CURVE SMOOTH",
"781 183 OFFCURVE",
"765 127 OFFCURVE"
);
}
);
width = 1240;
}
);
unicode = 0061;
},
{
glyphname = ae;
lastChange = "2017-07-28 16:34:00 +0000";
layers = (
{
layerId = "840BD324-B0A6-42B0-BD23-CB5E8C19394F";
paths = (
{
closed = 1;
nodes = (
"479 -17 OFFCURVE",
"598 31 OFFCURVE",
"656 131 CURVE",
"604 198 LINE",
"559 103 OFFCURVE",
"469 65 OFFCURVE",
"372 65 CURVE SMOOTH",
"267 65 OFFCURVE",
"203 121 OFFCURVE",
"203 203 CURVE SMOOTH",
"203 345 OFFCURVE",
"297 367 OFFCURVE",
"583 379 CURVE SMOOTH",
"1040 398 LINE SMOOTH",
"1084 400 OFFCURVE",
"1112 430 OFFCURVE",
"1112 480 CURVE SMOOTH",
"1112 699 OFFCURVE",
"1002 813 OFFCURVE",
"859 813 CURVE SMOOTH",
"758 813 OFFCURVE",
"666 738 OFFCURVE",
"624 642 CURVE",
"606 737 OFFCURVE",
"500 813 OFFCURVE",
"386 813 CURVE SMOOTH",
"213 813 OFFCURVE",
"129 725 OFFCURVE",
"129 603 CURVE SMOOTH",
"129 563 OFFCURVE",
"147 531 OFFCURVE",
"185 531 CURVE SMOOTH",
"230 531 OFFCURVE",
"242 608 OFFCURVE",
"247 701 CURVE",
"270 711 OFFCURVE",
"327 731 OFFCURVE",
"385 731 CURVE SMOOTH",
"517 731 OFFCURVE",
"568 631 OFFCURVE",
"569 496 CURVE SMOOTH",
"570 386 LINE SMOOTH",
"572 162 OFFCURVE",
"670 -17 OFFCURVE",
"876 -17 CURVE SMOOTH",
"938 -17 OFFCURVE",
"1033 1 OFFCURVE",
"1106 85 CURVE SMOOTH",
"1117 98 OFFCURVE",
"1123 113 OFFCURVE",
"1122 127 CURVE SMOOTH",
"1121 148 OFFCURVE",
"1109 167 OFFCURVE",
"1088 167 CURVE SMOOTH",
"1075 167 OFFCURVE",
"1060 162 OFFCURVE",
"1048 150 CURVE SMOOTH",
"1005 104 OFFCURVE",
"953 65 OFFCURVE",
"884 65 CURVE SMOOTH",
"739 65 OFFCURVE",
"658 176 OFFCURVE",
"658 394 CURVE SMOOTH",
"658 606 OFFCURVE",
"738 731 OFFCURVE",
"860 731 CURVE SMOOTH",
"1005 731 OFFCURVE",
"1023 564 OFFCURVE",
"1029 475 CURVE",
"572 459 LINE SMOOTH",
"303 450 OFFCURVE",
"114 423 OFFCURVE",
"114 203 CURVE SMOOTH",
"114 69 OFFCURVE",
"221 -17 OFFCURVE",
"355 -17 CURVE SMOOTH"
);
}
);
width = 1240;
},
{
layerId = "F2E12B84-E402-48AA-89E7-06534AE23493";
paths = (
{
closed = 1;
nodes = (
"503 -17 OFFCURVE",
"592 31 OFFCURVE",
"650 131 CURVE",
"578 268 LINE",
"543 203 OFFCURVE",
"493 135 OFFCURVE",
"386 135 CURVE SMOOTH",
"331 135 OFFCURVE",
"287 161 OFFCURVE",
"287 223 CURVE SMOOTH",
"287 305 OFFCURVE",
"371 343 OFFCURVE",
"577 348 CURVE SMOOTH",
"1052 359 LINE SMOOTH",
"1098 360 OFFCURVE",
"1126 390 OFFCURVE",
"1126 440 CURVE SMOOTH",
"1126 689 OFFCURVE",
"996 813 OFFCURVE",
"853 813 CURVE SMOOTH",
"722 813 OFFCURVE",
"642 730 OFFCURVE",
"618 672 CURVE",
"600 725 OFFCURVE",
"532 813 OFFCURVE",
"380 813 CURVE SMOOTH",
"207 813 OFFCURVE",
"118 725 OFFCURVE",
"118 603 CURVE SMOOTH",
"118 533 OFFCURVE",
"161 491 OFFCURVE",
"213 491 CURVE SMOOTH",
"264 491 OFFCURVE",
"276 544 OFFCURVE",
"281 647 CURVE",
"297 660 OFFCURVE",
"321 671 OFFCURVE",
"359 671 CURVE SMOOTH",
"471 671 OFFCURVE",
"512 571 OFFCURVE",
"513 496 CURVE SMOOTH",
"514 386 LINE SMOOTH",
"516 162 OFFCURVE",
"614 -17 OFFCURVE",
"870 -17 CURVE SMOOTH",
"952 -17 OFFCURVE",
"1030 8 OFFCURVE",
"1084 55 CURVE SMOOTH",
"1126 92 OFFCURVE",
"1142 129 OFFCURVE",
"1142 170 CURVE SMOOTH",
"1142 208 OFFCURVE",
"1118 243 OFFCURVE",
"1082 243 CURVE SMOOTH",
"1058 243 OFFCURVE",
"1039 232 OFFCURVE",
"1017 208 CURVE SMOOTH",
"985 173 OFFCURVE",
"947 135 OFFCURVE",
"878 135 CURVE SMOOTH",
"783 135 OFFCURVE",
"712 186 OFFCURVE",
"712 394 CURVE SMOOTH",
"712 576 OFFCURVE",
"762 671 OFFCURVE",
"834 671 CURVE SMOOTH",
"919 671 OFFCURVE",
"927 534 OFFCURVE",
"933 485 CURVE",
"566 474 LINE SMOOTH",
"277 465 OFFCURVE",
"98 423 OFFCURVE",
"98 203 CURVE SMOOTH",
"98 69 OFFCURVE",
"215 -17 OFFCURVE",
"369 -17 CURVE SMOOTH"
);
}
);
width = 1240;
},
{
layerId = "440824D2-40E3-4EBC-B94D-DAF81B1E7F5E";
width = 600;
}
);
unicode = 00E6;
},
{
glyphname = b;
lastChange = "2017-07-28 15:21:16 +0000";
layers = (
{
anchors = (
{
name = bottom;
position = "{620, 0}";
},
{
name = top;
position = "{700, 756}";
}
);
layerId = "840BD324-B0A6-42B0-BD23-CB5E8C19394F";
paths = (
{
closed = 1;
nodes = (
"909 -17 OFFCURVE",
"1048 156 OFFCURVE",
"1048 398 CURVE SMOOTH",
"1048 636 OFFCURVE",
"904 813 OFFCURVE",
"670 813 CURVE SMOOTH",
"541 813 OFFCURVE",
"460 771 OFFCURVE",
"385 707 CURVE",
"384 602 LINE",
"449 681 OFFCURVE",
"537 731 OFFCURVE",
"664 731 CURVE SMOOTH",
"855 731 OFFCURVE",
"952 575 OFFCURVE",
"952 398 CURVE SMOOTH",
"952 219 OFFCURVE",
"858 65 OFFCURVE",
"672 65 CURVE SMOOTH",
"537 65 OFFCURVE",
"444 127 OFFCURVE",
"382 210 CURVE",
"382 102 LINE",
"446 37 OFFCURVE",
"547 -17 OFFCURVE",
"674 -17 CURVE SMOOTH"
);
},
{
closed = 1;
nodes = (
"356 -4 OFFCURVE",
"391 0 OFFCURVE",
"382 102 CURVE SMOOTH",
"386 1141 LINE SMOOTH",
"386 1165 OFFCURVE",
"374 1180 OFFCURVE",
"345 1180 CURVE SMOOTH",
"342 1180 OFFCURVE",
"333 1179 OFFCURVE",
"136 1159 CURVE",
"112 1154 OFFCURVE",
"103 1134 OFFCURVE",
"103 1118 CURVE SMOOTH",
"103 1098 OFFCURVE",
"118 1080 OFFCURVE",
"142 1080 CURVE SMOOTH",
"290 1091 LINE",
"290 74 LINE SMOOTH",
"290 7 OFFCURVE",
"310 -4 OFFCURVE",
"331 -4 CURVE SMOOTH"
);
}
);
width = 1240;
},
{
anchors = (
{
name = bottom;
position = "{620, 0}";
},
{
name = top;
position = "{620, 774}";
}
);
layerId = "F2E12B84-E402-48AA-89E7-06534AE23493";
paths = (
{
closed = 1;
nodes = (
"931 -17 OFFCURVE",
"1104 136 OFFCURVE",
"1104 398 CURVE SMOOTH",
"1104 656 OFFCURVE",
"950 813 OFFCURVE",
"696 813 CURVE SMOOTH",
"567 813 OFFCURVE",
"467 734 OFFCURVE",
"468 722 CURVE",
"472 516 LINE",
"487 545 OFFCURVE",
"546 619 OFFCURVE",
"650 619 CURVE SMOOTH",
"771 619 OFFCURVE",
"858 535 OFFCURVE",
"858 398 CURVE SMOOTH",
"858 259 OFFCURVE",
"766 178 OFFCURVE",
"650 178 CURVE SMOOTH",
"545 178 OFFCURVE",
"487 252 OFFCURVE",
"462 280 CURVE",
"453 107 LINE",
"456 93 OFFCURVE",
"549 -17 OFFCURVE",
"706 -17 CURVE SMOOTH"
);
},
{
closed = 1;
nodes = (
"431 -17 OFFCURVE",
"487 25 OFFCURVE",
"487 93 CURVE SMOOTH",
"484 1121 LINE SMOOTH",
"484 1154 OFFCURVE",
"462 1180 OFFCURVE",
"423 1180 CURVE SMOOTH",
"423 1180 OFFCURVE",
"411 1179 OFFCURVE",
"144 1157 CURVE SMOOTH",
"90 1153 OFFCURVE",
"62 1118 OFFCURVE",
"62 1068 CURVE SMOOTH",
"62 1023 OFFCURVE",
"87 978 OFFCURVE",
"151 983 CURVE SMOOTH",
"228 988 LINE",
"226 103 LINE SMOOTH",
"226 27 OFFCURVE",
"271 -17 OFFCURVE",
"356 -17 CURVE SMOOTH"
);
}
);
width = 1240;
},
{
layerId = "440824D2-40E3-4EBC-B94D-DAF81B1E7F5E";
width = 600;
}
);
unicode = 0062;
},
{
glyphname = c;
lastChange = "2017-08-10 20:57:40 +0000";
layers = (
{
anchors = (
{
name = bottom;
position = "{620, 0}";
},
{
name = top;
position = "{640, 774}";
}
);
layerId = "840BD324-B0A6-42B0-BD23-CB5E8C19394F";
paths = (
{
closed = 1;
nodes = (
"794 -17 OFFCURVE",
"922 25 OFFCURVE",
"996 105 CURVE SMOOTH",
"1008 118 OFFCURVE",
"1019 137 OFFCURVE",
"1019 151 CURVE SMOOTH",
"1019 180 OFFCURVE",
"1007 202 OFFCURVE",
"978 202 CURVE SMOOTH",
"965 202 OFFCURVE",
"950 192 OFFCURVE",
"938 181 CURVE SMOOTH",
"859 108 OFFCURVE",
"784 69 OFFCURVE",
"662 69 CURVE SMOOTH",
"459 69 OFFCURVE",
"317 175 OFFCURVE",
"317 407 CURVE SMOOTH",
"317 609 OFFCURVE",
"454 727 OFFCURVE",
"674 727 CURVE SMOOTH",
"755 727 OFFCURVE",
"820 717 OFFCURVE",
"891 682 CURVE",
"906 560 OFFCURVE",
"909 480 OFFCURVE",
"957 480 CURVE SMOOTH",
"998 480 OFFCURVE",
"1017 515 OFFCURVE",
"1017 560 CURVE SMOOTH",
"1017 740 OFFCURVE",
"871 813 OFFCURVE",
"673 813 CURVE SMOOTH",
"425 813 OFFCURVE",
"221 663 OFFCURVE",
"221 407 CURVE SMOOTH",
"221 141 OFFCURVE",
"403 -17 OFFCURVE",
"662 -17 CURVE SMOOTH"
);
}
);
width = 1240;
},
{
anchors = (
{
name = bottom;
position = "{620, 0}";
},
{
name = top;
position = "{620, 774}";
}
);
layerId = "F2E12B84-E402-48AA-89E7-06534AE23493";
paths = (
{
closed = 1;
nodes = (
"784 -17 OFFCURVE",
"933 22 OFFCURVE",
"1015 94 CURVE SMOOTH",
"1028 105 OFFCURVE",
"1063 138 OFFCURVE",
"1063 191 CURVE SMOOTH",
"1063 251 OFFCURVE",
"1019 278 OFFCURVE",
"981 278 CURVE SMOOTH",
"937 278 OFFCURVE",
"903 259 OFFCURVE",
"864 233 CURVE SMOOTH",
"823 206 OFFCURVE",
"764 169 OFFCURVE",
"687 169 CURVE SMOOTH",
"569 169 OFFCURVE",
"437 235 OFFCURVE",
"437 387 CURVE SMOOTH",
"437 549 OFFCURVE",
"564 637 OFFCURVE",
"697 637 CURVE SMOOTH",
"752 637 OFFCURVE",
"818 623 OFFCURVE",
"835 608 CURVE",
"839 483 OFFCURVE",
"880 423 OFFCURVE",
"944 423 CURVE SMOOTH",
"1019 423 OFFCURVE",
"1062 472 OFFCURVE",
"1062 552 CURVE SMOOTH",
"1062 710 OFFCURVE",
"940 813 OFFCURVE",
"673 813 CURVE SMOOTH",
"415 813 OFFCURVE",
"191 663 OFFCURVE",
"191 387 CURVE SMOOTH",
"191 141 OFFCURVE",
"393 -17 OFFCURVE",
"672 -17 CURVE SMOOTH"
);
}
);
width = 1240;
},
{
layerId = "440824D2-40E3-4EBC-B94D-DAF81B1E7F5E";
paths = (
{
closed = 1;
nodes = (
"744 -17 OFFCURVE",
"881 56 OFFCURVE",
"955 136 CURVE SMOOTH",
"967 149 OFFCURVE",
"978 168 OFFCURVE",
"978 182 CURVE SMOOTH",
"978 211 OFFCURVE",
"966 233 OFFCURVE",
"937 233 CURVE SMOOTH",
"924 233 OFFCURVE",
"909 223 OFFCURVE",
"897 212 CURVE SMOOTH",
"818 139 OFFCURVE",
"714 69 OFFCURVE",
"582 69 CURVE SMOOTH",
"389 69 OFFCURVE",
"255 240 OFFCURVE",
"294 428 CURVE SMOOTH",
"332 612 OFFCURVE",
"454 727 OFFCURVE",
"674 727 CURVE SMOOTH",
"785 727 OFFCURVE",
"879 680 OFFCURVE",
"908 639 CURVE",
"923 517 OFFCURVE",
"926 437 OFFCURVE",
"974 437 CURVE SMOOTH",
"1015 437 OFFCURVE",
"1034 472 OFFCURVE",
"1034 517 CURVE SMOOTH",
"1034 697 OFFCURVE",
"871 813 OFFCURVE",
"683 813 CURVE SMOOTH",
"425 813 OFFCURVE",
"240 664 OFFCURVE",
"198 428 CURVE SMOOTH",
"153 175 OFFCURVE",
"333 -17 OFFCURVE",
"562 -17 CURVE SMOOTH"
);
}
);
width = 1240;
}
);
unicode = 0063;
},
{
glyphname = d;
lastChange = "2017-08-10 21:29:54 +0000";
layers = (
{
anchors = (
{
name = bottom;
position = "{620, 0}";
},
{
name = center;
position = "{620, 387}";
},
{
name = top;
position = "{544, 702}";
},
{
name = topright;
position = "{1220, 774}";
}
);
layerId = "840BD324-B0A6-42B0-BD23-CB5E8C19394F";
paths = (
{
closed = 1;
nodes = (
"701 -17 OFFCURVE",
"808 36 OFFCURVE",
"877 107 CURVE",
"868 210 LINE",
"800 127 OFFCURVE",
"711 65 OFFCURVE",
"576 65 CURVE SMOOTH",
"390 65 OFFCURVE",
"292 219 OFFCURVE",
"292 398 CURVE SMOOTH",
"292 575 OFFCURVE",
"389 731 OFFCURVE",
"580 731 CURVE SMOOTH",
"707 731 OFFCURVE",
"795 681 OFFCURVE",
"861 601 CURVE",
"858 707 LINE",
"784 771 OFFCURVE",
"703 813 OFFCURVE",
"574 813 CURVE SMOOTH",
"340 813 OFFCURVE",
"196 636 OFFCURVE",
"196 398 CURVE SMOOTH",
"196 156 OFFCURVE",
"339 -17 OFFCURVE",
"574 -17 CURVE SMOOTH"
);
},
{
closed = 1;
nodes = (
"1110 17 LINE",
"1135 22 OFFCURVE",
"1148 42 OFFCURVE",
"1148 61 CURVE SMOOTH",
"1148 79 OFFCURVE",
"1136 96 OFFCURVE",
"1108 96 CURVE SMOOTH",
"954 85 LINE",
"954 1141 LINE SMOOTH",
"954 1164 OFFCURVE",
"942 1180 OFFCURVE",
"913 1180 CURVE SMOOTH",
"910 1180 OFFCURVE",
"901 1179 OFFCURVE",
"704 1159 CURVE SMOOTH",
"680 1154 OFFCURVE",
"671 1134 OFFCURVE",
"671 1118 CURVE SMOOTH",
"671 1098 OFFCURVE",
"689 1079 OFFCURVE",
"710 1080 CURVE SMOOTH",
"858 1091 LINE",
"858 707 LINE",
"870 47 LINE SMOOTH",
"872 13 OFFCURVE",
"891 -3 OFFCURVE",
"917 -3 CURVE SMOOTH"
);
}
);
width = 1240;
},
{
anchors = (
{
name = bottom;
position = "{620, 0}";
},
{
name = center;
position = "{620, 387}";
},
{
name = top;
position = "{620, 774}";
},
{
name = topright;
position = "{1270, 644}";
}
);
layerId = "F2E12B84-E402-48AA-89E7-06534AE23493";
paths = (
{
closed = 1;
nodes = (
"688 -17 OFFCURVE",
"781 93 OFFCURVE",
"784 107 CURVE",
"775 280 LINE",
"750 252 OFFCURVE",
"692 178 OFFCURVE",
"587 178 CURVE SMOOTH",
"471 178 OFFCURVE",
"379 259 OFFCURVE",
"379 398 CURVE SMOOTH",
"379 535 OFFCURVE",
"466 619 OFFCURVE",
"587 619 CURVE SMOOTH",
"691 619 OFFCURVE",
"750 545 OFFCURVE",
"765 516 CURVE",
"769 722 LINE",
"770 734 OFFCURVE",
"670 813 OFFCURVE",
"541 813 CURVE SMOOTH",
"287 813 OFFCURVE",
"133 656 OFFCURVE",
"133 398 CURVE SMOOTH",
"133 136 OFFCURVE",
"306 -17 OFFCURVE",
"531 -17 CURVE SMOOTH"
);
},
{
closed = 1;
nodes = (
"1098 16 LINE SMOOTH",
"1139 19 OFFCURVE",
"1168 49 OFFCURVE",
"1168 95 CURVE SMOOTH",
"1168 148 OFFCURVE",
"1135 186 OFFCURVE",
"1079 182 CURVE SMOOTH",
"1014 177 LINE",
"1014 1121 LINE SMOOTH",
"1014 1154 OFFCURVE",
"991 1183 OFFCURVE",
"953 1180 CURVE SMOOTH",
"938 1179 OFFCURVE",
"929 1178 OFFCURVE",
"684 1157 CURVE SMOOTH",
"630 1152 OFFCURVE",
"602 1118 OFFCURVE",
"602 1068 CURVE SMOOTH",
"602 1023 OFFCURVE",
"627 978 OFFCURVE",
"701 984 CURVE SMOOTH",
"758 988 LINE",
"758 709 LINE",
"779 47 LINE SMOOTH",
"780 13 OFFCURVE",
"801 -3 OFFCURVE",
"827 -1 CURVE SMOOTH"
);
}
);
width = 1240;
},
{
layerId = "440824D2-40E3-4EBC-B94D-DAF81B1E7F5E";
paths = (
{
closed = 1;
nodes = (
"180 116 OFFCURVE",
"296 -16 OFFCURVE",
"471 -16 CURVE SMOOTH",
"666 -16 OFFCURVE",
"751 105 OFFCURVE",
"785 148 CURVE",
"813 328 LINE",
"761 219 OFFCURVE",
"641 77 OFFCURVE",
"492 77 CURVE SMOOTH",
"359 77 OFFCURVE",
"277 176 OFFCURVE",
"279 325 CURVE SMOOTH",
"281 497 OFFCURVE",
"394 701 OFFCURVE",
"625 701 CURVE SMOOTH",
"763 701 OFFCURVE",
"855 604 OFFCURVE",
"866 572 CURVE",
"885 690 LINE",
"847 724 OFFCURVE",
"789 794 OFFCURVE",
"624 794 CURVE SMOOTH",
"332 794 OFFCURVE",
"180 551 OFFCURVE",
"180 315 CURVE SMOOTH"
);
},
{
closed = 1;
nodes = (
"777 183 OFFCURVE",
"761 127 OFFCURVE",
"774 83 CURVE SMOOTH",
"791 24 OFFCURVE",
"848 -7 OFFCURVE",
"906 -7 CURVE SMOOTH",
"966 -7 OFFCURVE",
"1016 28 OFFCURVE",
"1040 54 CURVE SMOOTH",
"1058 74 OFFCURVE",
"1079 106 OFFCURVE",
"1079 135 CURVE SMOOTH",
"1079 161 OFFCURVE",
"1064 178 OFFCURVE",
"1041 178 CURVE SMOOTH",
"1010 178 OFFCURVE",
"998 151 OFFCURVE",
"989 138 CURVE",
"980 126 OFFCURVE",
"957 82 OFFCURVE",
"915 82 CURVE SMOOTH",
"882 82 OFFCURVE",
"858 115 OFFCURVE",
"870 167 CURVE",
"1054 1141 LINE SMOOTH",
"1058 1164 OFFCURVE",
"1042 1180 OFFCURVE",
"1013 1180 CURVE SMOOTH",
"1007 1180 OFFCURVE",
"1001 1179 OFFCURVE",
"993 1178 CURVE SMOOTH",
"804 1159 LINE SMOOTH",
"780 1157 OFFCURVE",
"771 1134 OFFCURVE",
"771 1118 CURVE SMOOTH",
"771 1098 OFFCURVE",
"789 1078 OFFCURVE",
"810 1080 CURVE SMOOTH",
"958 1091 LINE",
"868 637 LINE",
"786 228 LINE SMOOTH"
);
}
);
width = 1240;
}
);
unicode = 0064;
},
{
glyphname = eth;
lastChange = "2017-08-01 23:11:01 +0000";
layers = (
{
layerId = "840BD324-B0A6-42B0-BD23-CB5E8C19394F";
paths = (
{
closed = 1;
nodes = (
"881 -17 OFFCURVE",
"1010 161 OFFCURVE",
"1010 457 CURVE SMOOTH",
"1010 694 OFFCURVE",
"914 920 OFFCURVE",
"703 1116 CURVE",
"825 1199 LINE SMOOTH",
"835 1206 OFFCURVE",
"844 1215 OFFCURVE",
"844 1231 CURVE SMOOTH",
"844 1256 OFFCURVE",
"831 1278 OFFCURVE",
"804 1278 CURVE SMOOTH",
"792 1278 OFFCURVE",
"783 1273 OFFCURVE",
"777 1269 CURVE SMOOTH",
"638 1172 LINE",
"592 1210 OFFCURVE",
"540 1247 OFFCURVE",
"487 1282 CURVE SMOOTH",
"477 1289 OFFCURVE",
"465 1296 OFFCURVE",
"450 1296 CURVE SMOOTH",
"432 1296 OFFCURVE",
"417 1279 OFFCURVE",
"417 1257 CURVE SMOOTH",
"417 1238 OFFCURVE",
"422 1228 OFFCURVE",
"434 1218 CURVE SMOOTH",
"449 1206 OFFCURVE",
"503 1177 OFFCURVE",
"567 1124 CURVE",
"446 1038 LINE SMOOTH",
"435 1030 OFFCURVE",
"428 1018 OFFCURVE",
"428 1007 CURVE SMOOTH",
"428 985 OFFCURVE",
"442 964 OFFCURVE",
"463 964 CURVE SMOOTH",
"475 964 OFFCURVE",
"486 968 OFFCURVE",
"496 975 CURVE SMOOTH",
"633 1069 LINE",
"745 966 OFFCURVE",
"874 812 OFFCURVE",
"919 617 CURVE",
"874 740 OFFCURVE",
"731 821 OFFCURVE",
"607 821 CURVE SMOOTH",
"360 821 OFFCURVE",
"212 637 OFFCURVE",
"212 398 CURVE SMOOTH",
"212 158 OFFCURVE",
"366 -17 OFFCURVE",
"602 -17 CURVE SMOOTH"
);
},
{
closed = 1;
nodes = (
"433 69 OFFCURVE",
"308 196 OFFCURVE",
"308 395 CURVE SMOOTH",
"308 601 OFFCURVE",
"414 735 OFFCURVE",
"608 735 CURVE SMOOTH",
"780 735 OFFCURVE",
"918 590 OFFCURVE",
"918 395 CURVE SMOOTH",
"918 206 OFFCURVE",
"801 69 OFFCURVE",
"602 69 CURVE SMOOTH"
);
}
);
width = 1240;
},
{
layerId = "F2E12B84-E402-48AA-89E7-06534AE23493";
paths = (
{
closed = 1;
nodes = (
"903 -17 OFFCURVE",
"1077 180 OFFCURVE",
"1077 469 CURVE SMOOTH",
"1077 752 OFFCURVE",
"990 963 OFFCURVE",
"779 1162 CURVE",
"859 1224 LINE",
"878 1242 OFFCURVE",
"885 1263 OFFCURVE",
"885 1282 CURVE SMOOTH",
"885 1332 OFFCURVE",
"850 1360 OFFCURVE",
"803 1360 CURVE SMOOTH",
"786 1360 OFFCURVE",
"769 1355 OFFCURVE",
"755 1342 CURVE",
"657 1265 LINE",
"616 1296 OFFCURVE",
"572 1327 OFFCURVE",
"525 1358 CURVE SMOOTH",
"497 1376 OFFCURVE",
"465 1384 OFFCURVE",
"449 1384 CURVE SMOOTH",
"400 1384 OFFCURVE",
"372 1350 OFFCURVE",
"372 1302 CURVE SMOOTH",
"372 1272 OFFCURVE",
"390 1247 OFFCURVE",
"420 1229 CURVE SMOOTH",
"456 1207 OFFCURVE",
"490 1184 OFFCURVE",
"523 1159 CURVE",
"430 1086 LINE",
"410 1069 OFFCURVE",
"403 1048 OFFCURVE",
"403 1029 CURVE SMOOTH",
"403 984 OFFCURVE",
"440 949 OFFCURVE",
"483 951 CURVE SMOOTH",
"500 951 OFFCURVE",
"519 956 OFFCURVE",
"535 971 CURVE",
"642 1055 LINE",
"768 929 OFFCURVE",
"843 800 OFFCURVE",
"850 750 CURVE",
"838 750 OFFCURVE",
"783 853 OFFCURVE",
"606 853 CURVE SMOOTH",
"351 853 OFFCURVE",
"177 669 OFFCURVE",
"177 393 CURVE SMOOTH",
"177 145 OFFCURVE",
"350 -17 OFFCURVE",
"626 -17 CURVE SMOOTH"
);
},
{
closed = 1;
nodes = (
"501 149 OFFCURVE",
"426 249 OFFCURVE",
"426 392 CURVE SMOOTH",
"426 545 OFFCURVE",
"500 677 OFFCURVE",
"629 677 CURVE SMOOTH",
"748 677 OFFCURVE",
"838 551 OFFCURVE",
"838 409 CURVE SMOOTH",
"838 255 OFFCURVE",
"760 149 OFFCURVE",
"628 149 CURVE SMOOTH"
);
}
);
width = 1240;
},
{
layerId = "440824D2-40E3-4EBC-B94D-DAF81B1E7F5E";
width = 600;
}
);
unicode = 00F0;
},
{
glyphname = dcroat;
lastChange = "2017-07-30 21:06:41 +0000";
layers = (
{
components = (
{
name = d;
}
);
layerId = "840BD324-B0A6-42B0-BD23-CB5E8C19394F";
paths = (
{
closed = 1;
nodes = (
"1023 907 LINE SMOOTH",
"1056 907 OFFCURVE",
"1070 917 OFFCURVE",
"1070 944 CURVE SMOOTH",
"1070 971 OFFCURVE",
"1054 979 OFFCURVE",
"1021 979 CURVE SMOOTH",
"660 979 LINE SMOOTH",
"626 979 OFFCURVE",
"610 971 OFFCURVE",
"610 944 CURVE SMOOTH",
"610 917 OFFCURVE",
"623 907 OFFCURVE",
"661 907 CURVE SMOOTH"
);
}
);
width = 1240;
},
{
components = (
{
name = d;
}
);
layerId = "F2E12B84-E402-48AA-89E7-06534AE23493";
paths = (
{
closed = 1;
nodes = (
"1091 831 LINE",
"1137 831 OFFCURVE",
"1161 861 OFFCURVE",
"1161 890 CURVE SMOOTH",
"1161 919 OFFCURVE",
"1128 948 OFFCURVE",
"1092 948 CURVE",
"590 948 LINE",
"544 948 OFFCURVE",
"522 920 OFFCURVE",
"522 891 CURVE SMOOTH",
"522 861 OFFCURVE",
"546 831 OFFCURVE",
"592 831 CURVE"
);
}
);
width = 1240;
},
{
layerId = "440824D2-40E3-4EBC-B94D-DAF81B1E7F5E";
width = 600;
}
);
unicode = 0111;
},
{
glyphname = dz;
lastChange = "2017-08-04 20:13:54 +0000";
layers = (
{
layerId = "840BD324-B0A6-42B0-BD23-CB5E8C19394F";
paths = (
{
closed = 1;
nodes = (
"438 -16 OFFCURVE",
"471 52 OFFCURVE",
"494 97 CURVE",
"497 47 LINE SMOOTH",
"499 13 OFFCURVE",
"518 -3 OFFCURVE",
"544 -3 CURVE SMOOTH",
"645 12 LINE",
"670 17 OFFCURVE",
"683 37 OFFCURVE",
"683 56 CURVE SMOOTH",
"683 74 OFFCURVE",
"671 91 OFFCURVE",
"643 91 CURVE SMOOTH",
"581 85 LINE",
"581 1141 LINE SMOOTH",
"581 1164 OFFCURVE",
"569 1180 OFFCURVE",
"540 1180 CURVE SMOOTH",
"537 1180 OFFCURVE",
"528 1179 OFFCURVE",
"331 1159 CURVE",
"307 1154 OFFCURVE",
"298 1134 OFFCURVE",
"298 1118 CURVE SMOOTH",
"298 1098 OFFCURVE",
"313 1080 OFFCURVE",
"337 1080 CURVE SMOOTH",
"343 1080 OFFCURVE",
"445 1088 OFFCURVE",
"493 1091 CURVE",
"493 734 LINE",
"493 734 OFFCURVE",
"418 813 OFFCURVE",
"329 813 CURVE SMOOTH",
"164 813 OFFCURVE",
"63 621 OFFCURVE",
"63 398 CURVE SMOOTH",
"63 183 OFFCURVE",
"177 -16 OFFCURVE",
"338 -16 CURVE SMOOTH"
);
},
{
closed = 1;
nodes = (
"226 70 OFFCURVE",
"159 216 OFFCURVE",
"159 398 CURVE SMOOTH",
"159 580 OFFCURVE",
"213 725 OFFCURVE",
"329 725 CURVE SMOOTH",
"400 725 OFFCURVE",
"454 678 OFFCURVE",
"493 629 CURVE",
"493 210 LINE",
"476 137 OFFCURVE",
"418 70 OFFCURVE",
"338 70 CURVE SMOOTH"
);
},
{
closed = 1;
nodes = (
"1100 0 LINE SMOOTH",
"1124 0 OFFCURVE",
"1150 21 OFFCURVE",
"1151 46 CURVE SMOOTH",
"1161 255 LINE SMOOTH",
"1162 284 OFFCURVE",
"1144 297 OFFCURVE",
"1123 297 CURVE SMOOTH",
"1102 297 OFFCURVE",
"1085 283 OFFCURVE",
"1082 259 CURVE SMOOTH",
"1061 82 LINE",
"850 82 LINE",
"1132 682 LINE SMOOTH",
"1138 695 OFFCURVE",
"1150 719 OFFCURVE",
"1150 736 CURVE SMOOTH",
"1150 759 OFFCURVE",
"1135 772 OFFCURVE",
"1089 772 CURVE SMOOTH",
"792 772 LINE SMOOTH",
"768 772 OFFCURVE",
"747 750 OFFCURVE",
"746 726 CURVE SMOOTH",
"736 540 LINE SMOOTH",
"734 507 OFFCURVE",
"756 490 OFFCURVE",
"778 490 CURVE SMOOTH",
"799 490 OFFCURVE",
"815 505 OFFCURVE",
"818 535 CURVE SMOOTH",
"836 692 LINE",
"1045 692 LINE",
"767 109 LINE SMOOTH",
"761 97 OFFCURVE",
"750 81 OFFCURVE",
"750 59 CURVE SMOOTH",
"750 24 OFFCURVE",
"768 0 OFFCURVE",
"806 0 CURVE SMOOTH"
);
}
);
width = 1240;
},
{
layerId = "F2E12B84-E402-48AA-89E7-06534AE23493";
paths = (
{
closed = 1;
nodes = (
"438 -16 OFFCURVE",
"478 59 OFFCURVE",
"484 77 CURVE",
"490 37 LINE SMOOTH",
"495 3 OFFCURVE",
"518 -16 OFFCURVE",
"544 -13 CURVE SMOOTH",
"645 -2 LINE SMOOTH",
"680 2 OFFCURVE",
"703 38 OFFCURVE",
"703 77 CURVE SMOOTH",
"703 115 OFFCURVE",
"681 141 OFFCURVE",
"644 139 CURVE SMOOTH",
"613 137 LINE",
"613 1141 LINE SMOOTH",
"613 1164 OFFCURVE",
"601 1180 OFFCURVE",
"572 1180 CURVE SMOOTH",
"571 1180 OFFCURVE",
"573 1183 OFFCURVE",
"371 1164 CURVE SMOOTH",
"317 1159 OFFCURVE",
"298 1114 OFFCURVE",
"298 1088 CURVE SMOOTH",
"298 1058 OFFCURVE",
"323 1020 OFFCURVE",
"377 1020 CURVE SMOOTH",
"383 1020 OFFCURVE",
"430 1025 OFFCURVE",
"450 1027 CURVE",
"450 754 LINE",
"450 754 OFFCURVE",
"408 813 OFFCURVE",
"329 813 CURVE SMOOTH",
"144 813 OFFCURVE",
"53 621 OFFCURVE",
"53 398 CURVE SMOOTH",
"53 183 OFFCURVE",
"157 -16 OFFCURVE",
"328 -16 CURVE SMOOTH"
);
},
{
closed = 1;
nodes = (
"296 125 OFFCURVE",
"232 216 OFFCURVE",
"232 398 CURVE SMOOTH",
"232 580 OFFCURVE",
"293 680 OFFCURVE",
"360 680 CURVE SMOOTH",
"410 680 OFFCURVE",
"440 646 OFFCURVE",
"449 619 CURVE",
"459 210 LINE",
"448 173 OFFCURVE",
"418 125 OFFCURVE",
"359 125 CURVE SMOOTH"
);
},
{
closed = 1;
nodes = (
"1120 0 LINE SMOOTH",
"1144 0 OFFCURVE",
"1170 21 OFFCURVE",
"1171 46 CURVE SMOOTH",
"1179 225 LINE SMOOTH",
"1182 284 OFFCURVE",
"1146 307 OFFCURVE",
"1115 307 CURVE SMOOTH",
"1084 307 OFFCURVE",
"1055 283 OFFCURVE",
"1049 249 CURVE SMOOTH",
"1030 135 LINE",
"922 135 LINE",
"1152 682 LINE SMOOTH",
"1158 696 OFFCURVE",
"1170 717 OFFCURVE",
"1170 738 CURVE SMOOTH",
"1170 761 OFFCURVE",
"1155 772 OFFCURVE",
"1109 772 CURVE SMOOTH",
"762 772 LINE SMOOTH",
"738 772 OFFCURVE",
"717 750 OFFCURVE",
"716 726 CURVE SMOOTH",
"707 560 LINE SMOOTH",
"704 507 OFFCURVE",
"734 480 OFFCURVE",
"766 480 CURVE SMOOTH",
"797 480 OFFCURVE",
"823 505 OFFCURVE",
"830 545 CURVE SMOOTH",
"846 639 LINE",
"964 639 LINE",
"745 112 LINE SMOOTH",
"740 99 OFFCURVE",
"730 81 OFFCURVE",
"730 59 CURVE SMOOTH",
"730 24 OFFCURVE",
"748 0 OFFCURVE",
"786 0 CURVE SMOOTH"
);
}
);
width = 1240;
},
{
layerId = "440824D2-40E3-4EBC-B94D-DAF81B1E7F5E";
width = 600;
}
);
unicode = 01F3;
},
{
glyphname = e;
lastChange = "2017-08-11 14:43:16 +0000";
layers = (
{
anchors = (
{
name = bottom;
position = "{620, 0}";
},
{
name = ogonek;
position = "{1116, 10}";
},
{
name = top;
position = "{620, 774}";
}
);
layerId = "840BD324-B0A6-42B0-BD23-CB5E8C19394F";
paths = (
{
closed = 1;
nodes = (
"769 -17 OFFCURVE",
"920 28 OFFCURVE",
"997 105 CURVE SMOOTH",
"1009 117 OFFCURVE",
"1015 133 OFFCURVE",
"1015 147 CURVE SMOOTH",
"1015 171 OFFCURVE",
"1003 195 OFFCURVE",
"975 195 CURVE SMOOTH",
"963 195 OFFCURVE",
"948 191 OFFCURVE",
"934 178 CURVE SMOOTH",
"855 105 OFFCURVE",
"754 69 OFFCURVE",
"657 69 CURVE SMOOTH",
"438 69 OFFCURVE",
"308 185 OFFCURVE",
"308 407 CURVE SMOOTH",
"308 609 OFFCURVE",
"446 727 OFFCURVE",
"636 727 CURVE SMOOTH",
"813 727 OFFCURVE",
"925 621 OFFCURVE",
"931 467 CURVE",
"298 463 LINE",
"298 377 LINE",
"949 382 LINE SMOOTH",
"998 382 OFFCURVE",
"1025 423 OFFCURVE",
"1025 465 CURVE SMOOTH",
"1025 683 OFFCURVE",
"840 813 OFFCURVE",
"634 813 CURVE SMOOTH",
"403 813 OFFCURVE",
"212 673 OFFCURVE",
"212 407 CURVE SMOOTH",
"212 141 OFFCURVE",
"398 -17 OFFCURVE",
"657 -17 CURVE SMOOTH"
);
}
);
width = 1240;
},
{
anchors = (
{
name = bottom;
position = "{620, 0}";
},
{
name = ogonek;
position = "{1116, 10}";
},
{
name = top;
position = "{620, 774}";
}
);
layerId = "F2E12B84-E402-48AA-89E7-06534AE23493";
paths = (
{
closed = 1;
nodes = (
"789 -17 OFFCURVE",
"903 26 OFFCURVE",
"963 72 CURVE SMOOTH",
"1001 101 OFFCURVE",
"1037 144 OFFCURVE",
"1037 184 CURVE SMOOTH",
"1037 229 OFFCURVE",
"1012 270 OFFCURVE",
"952 270 CURVE SMOOTH",
"915 270 OFFCURVE",
"875 248 OFFCURVE",
"851 234 CURVE SMOOTH",
"802 206 OFFCURVE",
"757 168 OFFCURVE",
"654 168 CURVE SMOOTH",
"513 168 OFFCURVE",
"418 250 OFFCURVE",
"418 404 CURVE SMOOTH",
"418 547 OFFCURVE",
"511 646 OFFCURVE",
"630 646 CURVE SMOOTH",
"740 646 OFFCURVE",
"806 573 OFFCURVE",
"810 492 CURVE",
"298 492 LINE",
"298 337 LINE",
"979 342 LINE SMOOTH",
"1028 342 OFFCURVE",
"1055 383 OFFCURVE",
"1055 425 CURVE SMOOTH",
"1055 688 OFFCURVE",
"840 813 OFFCURVE",
"634 813 CURVE SMOOTH",
"383 813 OFFCURVE",
"182 673 OFFCURVE",
"182 407 CURVE SMOOTH",
"182 141 OFFCURVE",
"378 -17 OFFCURVE",
"657 -17 CURVE SMOOTH"
);
}
);
width = 1240;
},
{
background = {
paths = (
{
closed = 1;
nodes = (
"709 -17 OFFCURVE",
"860 28 OFFCURVE",
"937 105 CURVE SMOOTH",
"949 117 OFFCURVE",
"955 133 OFFCURVE",
"955 147 CURVE SMOOTH",
"955 171 OFFCURVE",
"943 195 OFFCURVE",
"915 195 CURVE SMOOTH",
"903 195 OFFCURVE",
"888 191 OFFCURVE",
"874 178 CURVE SMOOTH",
"795 105 OFFCURVE",
"694 69 OFFCURVE",
"597 69 CURVE SMOOTH",
"378 69 OFFCURVE",
"272 195 OFFCURVE",
"298 397 CURVE SMOOTH",
"324 598 OFFCURVE",
"476 727 OFFCURVE",
"666 727 CURVE SMOOTH",
"843 727 OFFCURVE",
"961 612 OFFCURVE",
"951 467 CURVE",
"288 463 LINE",
"288 377 LINE",
"969 382 LINE SMOOTH",
"1018 382 OFFCURVE",
"1042 423 OFFCURVE",
"1045 465 CURVE SMOOTH",
"1060 674 OFFCURVE",
"890 813 OFFCURVE",
"664 813 CURVE SMOOTH",
"433 813 OFFCURVE",
"228 663 OFFCURVE",
"202 397 CURVE SMOOTH",
"178 151 OFFCURVE",
"313 -17 OFFCURVE",
"597 -17 CURVE SMOOTH"
);
}
);
};
layerId = "440824D2-40E3-4EBC-B94D-DAF81B1E7F5E";
paths = (
{
closed = 1;
nodes = (
"770 -17 OFFCURVE",
"911 28 OFFCURVE",
"988 105 CURVE SMOOTH",
"1000 117 OFFCURVE",
"1006 133 OFFCURVE",
"1006 147 CURVE SMOOTH",
"1006 171 OFFCURVE",
"994 195 OFFCURVE",
"966 195 CURVE SMOOTH",
"954 195 OFFCURVE",
"939 191 OFFCURVE",
"925 178 CURVE SMOOTH",
"846 105 OFFCURVE",
"755 69 OFFCURVE",
"628 69 CURVE SMOOTH",
"439 69 OFFCURVE",
"319 205 OFFCURVE",
"319 397 CURVE SMOOTH",
"319 599 OFFCURVE",
"477 727 OFFCURVE",
"667 727 CURVE SMOOTH",
"834 727 OFFCURVE",
"943 615 OFFCURVE",
"943 535 CURVE SMOOTH",
"943 463 OFFCURVE",
"859 456 OFFCURVE",
"643 439 CURVE SMOOTH",
"309 413 LINE",
"309 327 LINE",
"710 357 LINE SMOOTH",
"969 376 OFFCURVE",
"1038 413 OFFCURVE",
"1038 525 CURVE SMOOTH",
"1038 664 OFFCURVE",
"881 813 OFFCURVE",
"665 813 CURVE SMOOTH",
"434 813 OFFCURVE",
"223 664 OFFCURVE",
"223 397 CURVE SMOOTH",
"223 161 OFFCURVE",
"374 -17 OFFCURVE",
"628 -17 CURVE SMOOTH"
);
}
);
width = 1240;
}
);
unicode = 0065;
},
{
glyphname = f;
lastChange = "2017-07-27 03:31:29 +0000";
layers = (
{
anchors = (
{
name = bottom;
position = "{620, 0}";
},
{
name = top;
position = "{620, 1070}";
}
);
layerId = "840BD324-B0A6-42B0-BD23-CB5E8C19394F";
paths = (
{
closed = 1;
nodes = (
"970 0 LINE SMOOTH",
"997 0 OFFCURVE",
"1010 20 OFFCURVE",
"1010 41 CURVE SMOOTH",
"1010 61 OFFCURVE",
"997 82 OFFCURVE",
"971 82 CURVE SMOOTH",
"609 82 LINE",
"608 692 LINE",
"917 692 LINE SMOOTH",
"944 692 OFFCURVE",
"958 712 OFFCURVE",
"958 733 CURVE SMOOTH",
"958 753 OFFCURVE",
"945 774 OFFCURVE",
"918 774 CURVE SMOOTH",
"609 774 LINE",
"609 802 LINE SMOOTH",
"609 1008 OFFCURVE",
"723 1098 OFFCURVE",
"886 1114 CURVE",
"987 1042 OFFCURVE",
"1048 991 OFFCURVE",
"1080 1026 CURVE SMOOTH",
"1108 1057 OFFCURVE",
"1097 1100 OFFCURVE",
"1063 1130 CURVE SMOOTH",
"1020 1168 OFFCURVE",
"975 1191 OFFCURVE",
"902 1191 CURVE SMOOTH",
"685 1191 OFFCURVE",
"512 1069 OFFCURVE",
"512 802 CURVE SMOOTH",
"512 774 LINE",
"297 774 LINE SMOOTH",
"269 774 OFFCURVE",
"255 754 OFFCURVE",
"255 734 CURVE SMOOTH",
"255 713 OFFCURVE",
"270 692 OFFCURVE",
"301 692 CURVE SMOOTH",
"512 692 LINE",
"512 82 LINE",
"272 82 LINE SMOOTH",
"244 82 OFFCURVE",
"230 62 OFFCURVE",
"230 42 CURVE SMOOTH",
"230 21 OFFCURVE",
"245 0 OFFCURVE",
"276 0 CURVE SMOOTH"
);
}
);
width = 1240;
},
{
anchors = (
{
name = bottom;
position = "{620, 0}";
},
{
name = top;
position = "{620, 774}";
}
);
layerId = "F2E12B84-E402-48AA-89E7-06534AE23493";
paths = (
{
closed = 1;
nodes = (
"950 0 LINE SMOOTH",
"1001 0 OFFCURVE",
"1030 45 OFFCURVE",
"1030 88 CURVE SMOOTH",
"1030 130 OFFCURVE",
"1001 176 OFFCURVE",
"951 176 CURVE SMOOTH",
"659 176 LINE",
"658 612 LINE",
"897 612 LINE SMOOTH",
"948 612 OFFCURVE",
"978 652 OFFCURVE",
"978 693 CURVE SMOOTH",
"978 733 OFFCURVE",
"949 774 OFFCURVE",
"898 774 CURVE SMOOTH",
"659 774 LINE",
"659 802 LINE SMOOTH",
"659 928 OFFCURVE",
"739 1048 OFFCURVE",
"900 1048 CURVE",
"975 953 OFFCURVE",
"1040 916 OFFCURVE",
"1104 950 CURVE SMOOTH",
"1167 983 OFFCURVE",
"1170 1073 OFFCURVE",
"1121 1123 CURVE SMOOTH",
"1081 1164 OFFCURVE",
"991 1191 OFFCURVE",
"878 1191 CURVE SMOOTH",
"615 1191 OFFCURVE",
"412 1059 OFFCURVE",
"412 782 CURVE SMOOTH",
"412 774 LINE",
"307 774 LINE SMOOTH",
"259 774 OFFCURVE",
"225 734 OFFCURVE",
"225 694 CURVE SMOOTH",
"225 633 OFFCURVE",
"260 612 OFFCURVE",
"311 612 CURVE SMOOTH",
"412 612 LINE",
"412 176 LINE",
"292 176 LINE SMOOTH",
"234 176 OFFCURVE",
"200 131 OFFCURVE",
"200 89 CURVE SMOOTH",
"200 46 OFFCURVE",
"235 0 OFFCURVE",
"296 0 CURVE SMOOTH"
);
}
);
width = 1240;
},
{
layerId = "440824D2-40E3-4EBC-B94D-DAF81B1E7F5E";
width = 600;
}
);
unicode = 0066;
},
{
glyphname = g;
lastChange = "2017-08-11 14:48:35 +0000";
layers = (
{
anchors = (
{
name = bottom;
position = "{620, 0}";
},
{
name = top;
position = "{620, 774}";
},
{
name = topright;
position = "{621, 890}";
}
);
layerId = "840BD324-B0A6-42B0-BD23-CB5E8C19394F";
paths = (
{
closed = 1;
nodes = (
"696 361 OFFCURVE",
"811 397 OFFCURVE",
"811 534 CURVE SMOOTH",
"811 679 OFFCURVE",
"702 731 OFFCURVE",
"580 731 CURVE SMOOTH",
"457 731 OFFCURVE",
"355 676 OFFCURVE",
"355 542 CURVE SMOOTH",
"355 420 OFFCURVE",
"453 361 OFFCURVE",
"574 361 CURVE SMOOTH"
);
},
{
closed = 1;
nodes = (
"812 736 OFFCURVE",
"842 773 OFFCURVE",
"883 799 CURVE SMOOTH",
"910 815 OFFCURVE",
"942 828 OFFCURVE",
"977 828 CURVE SMOOTH",
"1047 828 OFFCURVE",
"1121 797 OFFCURVE",
"1121 742 CURVE SMOOTH",
"1121 720 OFFCURVE",
"1105 697 OFFCURVE",
"1074 697 CURVE SMOOTH",
"1032 697 OFFCURVE",
"983 723 OFFCURVE",
"938 745 CURVE",
"840 678 LINE",
"794 718 LINE"
);
},
{
closed = 1;
nodes = (
"395 280 OFFCURVE",
"259 390 OFFCURVE",
"259 545 CURVE SMOOTH",
"259 729 OFFCURVE",
"410 813 OFFCURVE",
"582 813 CURVE SMOOTH",
"763 813 OFFCURVE",
"907 706 OFFCURVE",
"907 540 CURVE SMOOTH",
"907 362 OFFCURVE",
"772 280 OFFCURVE",
"571 280 CURVE SMOOTH"
);
},
{
closed = 1;
nodes = (
"434 319 OFFCURVE",
"349 280 OFFCURVE",
"349 214 CURVE SMOOTH",
"349 136 OFFCURVE",
"422 130 OFFCURVE",
"517 128 CURVE SMOOTH",
"676 125 LINE SMOOTH",
"885 121 OFFCURVE",
"994 39 OFFCURVE",
"994 -128 CURVE SMOOTH",
"994 -308 OFFCURVE",
"789 -382 OFFCURVE",
"605 -382 CURVE SMOOTH",
"418 -382 OFFCURVE",
"228 -316 OFFCURVE",
"228 -118 CURVE SMOOTH",
"228 -17 OFFCURVE",
"281 56 OFFCURVE",
"317 99 CURVE",
"397 56 LINE",
"378 41 OFFCURVE",
"324 -35 OFFCURVE",
"324 -118 CURVE SMOOTH",
"324 -238 OFFCURVE",
"457 -295 OFFCURVE",
"603 -295 CURVE SMOOTH",
"725 -295 OFFCURVE",
"898 -252 OFFCURVE",
"898 -128 CURVE SMOOTH",
"898 14 OFFCURVE",
"767 43 OFFCURVE",
"641 43 CURVE SMOOTH",
"533 43 LINE SMOOTH",
"375 44 OFFCURVE",
"253 56 OFFCURVE",
"253 201 CURVE SMOOTH",
"253 295 OFFCURVE",
"317 341 OFFCURVE",
"349 371 CURVE",
"436 321 LINE"
);
}
);
width = 1240;
},
{
anchors = (
{
name = bottom;
position = "{621, -1}";
},
{
name = top;
position = "{620, 774}";
},
{
name = topright;
position = "{621, 890}";
}
);
layerId = "F2E12B84-E402-48AA-89E7-06534AE23493";
paths = (
{
closed = 1;
nodes = (
"649 431 OFFCURVE",
"716 469 OFFCURVE",
"716 539 CURVE SMOOTH",
"716 614 OFFCURVE",
"653 661 OFFCURVE",
"571 661 CURVE SMOOTH",
"490 661 OFFCURVE",
"430 612 OFFCURVE",
"430 544 CURVE SMOOTH",
"430 482 OFFCURVE",
"487 431 OFFCURVE",
"568 431 CURVE SMOOTH"
);
},
{
closed = 1;
nodes = (
"851 725 OFFCURVE",
"876 758 OFFCURVE",
"907 784 CURVE SMOOTH",
"938 810 OFFCURVE",
"986 833 OFFCURVE",
"1047 833 CURVE SMOOTH",
"1120 833 OFFCURVE",
"1220 810 OFFCURVE",
"1220 726 CURVE SMOOTH",
"1220 677 OFFCURVE",
"1183 632 OFFCURVE",
"1129 632 CURVE SMOOTH",
"1084 632 OFFCURVE",
"1012 670 OFFCURVE",
"979 699 CURVE",
"904 633 LINE",
"834 707 LINE"
);
},
{
closed = 1;
nodes = (
"385 280 OFFCURVE",
"199 390 OFFCURVE",
"199 545 CURVE SMOOTH",
"199 729 OFFCURVE",
"370 813 OFFCURVE",
"582 813 CURVE SMOOTH",
"783 813 OFFCURVE",
"947 706 OFFCURVE",
"947 540 CURVE SMOOTH",
"947 362 OFFCURVE",
"792 280 OFFCURVE",
"571 280 CURVE SMOOTH"
);
},
{
closed = 1;
nodes = (
"457 319 OFFCURVE",
"419 280 OFFCURVE",
"419 231 CURVE SMOOTH",
"419 182 OFFCURVE",
"477 162 OFFCURVE",
"545 162 CURVE SMOOTH",
"738 162 LINE SMOOTH",
"946 162 OFFCURVE",
"1054 45 OFFCURVE",
"1054 -108 CURVE SMOOTH",
"1054 -288 OFFCURVE",
"849 -382 OFFCURVE",
"605 -382 CURVE SMOOTH",
"348 -382 OFFCURVE",
"178 -306 OFFCURVE",
"178 -128 CURVE SMOOTH",
"178 3 OFFCURVE",
"265 59 OFFCURVE",
"305 89 CURVE",
"450 28 LINE",
"419 9 OFFCURVE",
"394 -33 OFFCURVE",
"394 -88 CURVE SMOOTH",
"394 -158 OFFCURVE",
"477 -215 OFFCURVE",
"605 -215 CURVE SMOOTH",
"725 -215 OFFCURVE",
"808 -172 OFFCURVE",
"808 -108 CURVE SMOOTH",
"808 -36 OFFCURVE",
"729 -6 OFFCURVE",
"634 -6 CURVE SMOOTH",
"547 -6 LINE SMOOTH",
"364 -6 OFFCURVE",
"203 49 OFFCURVE",
"203 201 CURVE SMOOTH",
"203 295 OFFCURVE",
"277 341 OFFCURVE",
"329 381 CURVE",
"506 321 LINE"
);
}
);
width = 1240;
},
{
layerId = "440824D2-40E3-4EBC-B94D-DAF81B1E7F5E";
paths = (
{
closed = 1;
nodes = (
"843 770 OFFCURVE",
"765 804 OFFCURVE",
"624 804 CURVE SMOOTH",
"332 804 OFFCURVE",
"180 551 OFFCURVE",
"180 315 CURVE SMOOTH",
"180 116 OFFCURVE",
"296 -16 OFFCURVE",
"471 -16 CURVE SMOOTH",
"666 -16 OFFCURVE",
"751 105 OFFCURVE",
"785 148 CURVE",
"813 328 LINE",
"761 219 OFFCURVE",
"641 77 OFFCURVE",
"492 77 CURVE SMOOTH",
"359 77 OFFCURVE",
"277 176 OFFCURVE",
"279 325 CURVE SMOOTH",
"281 497 OFFCURVE",
"394 711 OFFCURVE",
"625 711 CURVE SMOOTH",
"756 711 OFFCURVE",
"847 669 OFFCURVE",
"877 615 CURVE",
"906 726 LINE"
);
},
{
closed = 1;
nodes = (
"994 697 LINE SMOOTH",
"1008 764 OFFCURVE",
"1008 812 OFFCURVE",
"958 812 CURVE SMOOTH",
"932 812 OFFCURVE",
"919 798 OFFCURVE",
"910 762 CURVE SMOOTH",
"867 595 OFFCURVE",
"795 237 OFFCURVE",
"744 -9 CURVE SMOOTH",
"711 -166 OFFCURVE",
"620 -288 OFFCURVE",
"434 -288 CURVE SMOOTH",
"401 -288 OFFCURVE",
"336 -277 OFFCURVE",
"278 -238 CURVE",
"256 -161 OFFCURVE",
"232 -83 OFFCURVE",
"184 -83 CURVE SMOOTH",
"157 -83 OFFCURVE",
"131 -107 OFFCURVE",
"130 -146 CURVE SMOOTH",
"126 -314 OFFCURVE",
"332 -381 OFFCURVE",
"458 -381 CURVE SMOOTH",
"677 -381 OFFCURVE",
"802 -238 OFFCURVE",
"833 -87 CURVE SMOOTH"
);
}
);
width = 1240;
}
);
unicode = 0067;
},
{
glyphname = h;
lastChange = "2017-08-11 14:44:57 +0000";
layers = (
{
anchors = (
{
name = bottom;
position = "{620, 0}";
},
{
name = center;
position = "{620, 387}";
},
{
name = top;
position = "{347, 1080}";
}
);
layerId = "840BD324-B0A6-42B0-BD23-CB5E8C19394F";
paths = (
{
closed = 1;
nodes = (
"1099 0 LINE SMOOTH",
"1127 0 OFFCURVE",
"1141 21 OFFCURVE",
"1141 42 CURVE SMOOTH",
"1141 62 OFFCURVE",
"1128 82 OFFCURVE",
"1101 82 CURVE SMOOTH",
"992 82 LINE",
"992 523 LINE SMOOTH",
"992 707 OFFCURVE",
"894 813 OFFCURVE",
"691 813 CURVE SMOOTH",
"533 813 OFFCURVE",
"413 716 OFFCURVE",
"394 686 CURVE",
"396 567 LINE",
"420 621 OFFCURVE",
"535 731 OFFCURVE",
"696 731 CURVE SMOOTH",
"827 731 OFFCURVE",
"896 659 OFFCURVE",
"896 520 CURVE SMOOTH",
"896 82 LINE",
"750 82 LINE SMOOTH",
"722 82 OFFCURVE",
"708 63 OFFCURVE",
"708 43 CURVE SMOOTH",
"708 22 OFFCURVE",
"723 0 OFFCURVE",
"754 0 CURVE SMOOTH"
);
},
{
closed = 1;
nodes = (
"499 0 LINE SMOOTH",
"532 0 OFFCURVE",
"549 21 OFFCURVE",
"549 42 CURVE SMOOTH",
"549 62 OFFCURVE",
"533 82 OFFCURVE",
"501 82 CURVE SMOOTH",
"396 82 LINE",
"396 1141 LINE SMOOTH",
"396 1164 OFFCURVE",
"384 1180 OFFCURVE",
"355 1180 CURVE SMOOTH",
"352 1180 OFFCURVE",
"343 1179 OFFCURVE",
"146 1159 CURVE SMOOTH",
"122 1157 OFFCURVE",
"113 1134 OFFCURVE",
"113 1118 CURVE SMOOTH",
"113 1098 OFFCURVE",
"128 1081 OFFCURVE",
"152 1082 CURVE SMOOTH",
"300 1091 LINE",
"300 82 LINE",
"192 82 LINE SMOOTH",
"164 82 OFFCURVE",
"150 63 OFFCURVE",
"150 43 CURVE SMOOTH",
"150 22 OFFCURVE",
"165 0 OFFCURVE",
"196 0 CURVE SMOOTH"
);
}
);
width = 1240;
},
{
anchors = (
{
name = bottom;
position = "{620, 0}";
},
{
name = center;
position = "{620, 387}";
},
{
name = top;
position = "{380, 1114}";
}
);
layerId = "F2E12B84-E402-48AA-89E7-06534AE23493";
paths = (
{
closed = 1;
nodes = (
"1108 0 LINE SMOOTH",
"1166 0 OFFCURVE",
"1190 41 OFFCURVE",
"1190 87 CURVE SMOOTH",
"1190 132 OFFCURVE",
"1167 172 OFFCURVE",
"1110 172 CURVE SMOOTH",
"1061 172 LINE",
"1061 493 LINE SMOOTH",
"1061 697 OFFCURVE",
"953 813 OFFCURVE",
"720 813 CURVE SMOOTH",
"562 813 OFFCURVE",
"432 696 OFFCURVE",
"413 666 CURVE",
"415 497 LINE",
"431 559 OFFCURVE",
"534 641 OFFCURVE",
"645 641 CURVE SMOOTH",
"756 641 OFFCURVE",
"815 569 OFFCURVE",
"815 460 CURVE SMOOTH",
"815 172 LINE",
"759 172 LINE SMOOTH",
"706 172 OFFCURVE",
"677 133 OFFCURVE",
"677 85 CURVE SMOOTH",
"677 42 OFFCURVE",
"707 0 OFFCURVE",
"763 0 CURVE SMOOTH"
);
},
{
closed = 1;
nodes = (
"527 0 LINE SMOOTH",
"580 0 OFFCURVE",
"607 42 OFFCURVE",
"607 84 CURVE SMOOTH",
"607 132 OFFCURVE",
"581 172 OFFCURVE",
"529 172 CURVE SMOOTH",
"464 172 LINE",
"464 1121 LINE SMOOTH",
"464 1154 OFFCURVE",
"441 1181 OFFCURVE",
"405 1178 CURVE SMOOTH",
"404 1178 OFFCURVE",
"376 1174 OFFCURVE",
"130 1143 CURVE SMOOTH",
"70 1135 OFFCURVE",
"51 1099 OFFCURVE",
"51 1057 CURVE SMOOTH",
"51 1010 OFFCURVE",
"82 972 OFFCURVE",
"146 978 CURVE SMOOTH",
"218 985 LINE",
"218 172 LINE",
"150 172 LINE SMOOTH",
"102 172 OFFCURVE",
"78 128 OFFCURVE",
"78 83 CURVE SMOOTH",
"78 38 OFFCURVE",
"102 0 OFFCURVE",
"154 0 CURVE SMOOTH"
);
}
);
width = 1240;
},
{
layerId = "440824D2-40E3-4EBC-B94D-DAF81B1E7F5E";
paths = (
{
closed = 1;
nodes = (
"995 493 LINE SMOOTH",
"1033 695 OFFCURVE",
"934 813 OFFCURVE",
"751 813 CURVE SMOOTH",
"573 813 OFFCURVE",
"453 691 OFFCURVE",
"407 638 CURVE",
"402 504 LINE",
"453 581 OFFCURVE",
"585 731 OFFCURVE",
"756 731 CURVE SMOOTH",
"867 731 OFFCURVE",
"929 648 OFFCURVE",
"899 490 CURVE SMOOTH",
"849 228 LINE SMOOTH",
"840 183 OFFCURVE",
"824 127 OFFCURVE",
"837 83 CURVE SMOOTH",
"854 24 OFFCURVE",
"911 -7 OFFCURVE",
"969 -7 CURVE SMOOTH",
"1029 -7 OFFCURVE",
"1079 28 OFFCURVE",
"1103 54 CURVE SMOOTH",
"1121 74 OFFCURVE",
"1142 106 OFFCURVE",
"1142 135 CURVE SMOOTH",
"1142 161 OFFCURVE",
"1127 178 OFFCURVE",
"1104 178 CURVE SMOOTH",
"1073 178 OFFCURVE",
"1061 151 OFFCURVE",
"1052 138 CURVE",
"1043 126 OFFCURVE",
"1020 82 OFFCURVE",
"978 82 CURVE SMOOTH",
"945 82 OFFCURVE",
"921 115 OFFCURVE",
"933 167 CURVE"
);
},
{
closed = 1;
nodes = (
"293 -3 OFFCURVE",
"313 28 OFFCURVE",
"317 48 CURVE SMOOTH",
"526 1141 LINE SMOOTH",
"530 1164 OFFCURVE",
"514 1180 OFFCURVE",
"485 1180 CURVE SMOOTH",
"479 1180 OFFCURVE",
"473 1179 OFFCURVE",
"465 1178 CURVE SMOOTH",
"276 1159 LINE SMOOTH",
"252 1157 OFFCURVE",
"243 1134 OFFCURVE",
"243 1118 CURVE SMOOTH",
"243 1098 OFFCURVE",
"258 1081 OFFCURVE",
"282 1082 CURVE SMOOTH",
"430 1091 LINE",
"220 48 LINE SMOOTH",
"216 28 OFFCURVE",
"222 -3 OFFCURVE",
"256 -3 CURVE SMOOTH"
);
}
);
width = 1240;
}
);
unicode = 0068;
},
{
glyphname = hbar;
lastChange = "2017-07-31 01:58:47 +0000";
layers = (
{
components = (
{
name = h;
}
);
layerId = "840BD324-B0A6-42B0-BD23-CB5E8C19394F";
paths = (
{
closed = 1;
nodes = (
"542 907 LINE SMOOTH",
"575 907 OFFCURVE",
"589 917 OFFCURVE",
"589 944 CURVE SMOOTH",
"589 971 OFFCURVE",
"573 979 OFFCURVE",
"540 979 CURVE SMOOTH",
"179 979 LINE SMOOTH",
"145 979 OFFCURVE",
"129 971 OFFCURVE",
"129 944 CURVE SMOOTH",
"129 917 OFFCURVE",
"142 907 OFFCURVE",
"180 907 CURVE SMOOTH"
);
}
);
width = 1240;
},
{
components = (
{
name = h;
}
);
layerId = "F2E12B84-E402-48AA-89E7-06534AE23493";
paths = (
{
closed = 1;
nodes = (
"551 811 LINE",
"597 811 OFFCURVE",
"621 841 OFFCURVE",
"621 870 CURVE SMOOTH",
"621 899 OFFCURVE",
"588 928 OFFCURVE",
"552 928 CURVE",
"150 928 LINE",
"104 928 OFFCURVE",
"82 900 OFFCURVE",
"82 871 CURVE SMOOTH",
"82 841 OFFCURVE",
"106 811 OFFCURVE",
"152 811 CURVE"
);
}
);
width = 1240;
},
{
layerId = "440824D2-40E3-4EBC-B94D-DAF81B1E7F5E";
width = 600;
}
);
unicode = 0127;
},
{
glyphname = i;
lastChange = "2017-08-10 22:54:51 +0000";
layers = (
{
anchors = (
{
name = bottom;
position = "{620, 0}";
}
);
layerId = "840BD324-B0A6-42B0-BD23-CB5E8C19394F";
paths = (
{
closed = 1;
nodes = (
"1044 0 LINE SMOOTH",
"1071 0 OFFCURVE",
"1085 22 OFFCURVE",
"1085 43 CURVE SMOOTH",
"1085 63 OFFCURVE",
"1072 86 OFFCURVE",
"1045 86 CURVE SMOOTH",
"712 86 LINE",
"712 779 LINE SMOOTH",
"712 799 OFFCURVE",
"697 811 OFFCURVE",
"676 811 CURVE SMOOTH",
"672 811 OFFCURVE",
"661 810 OFFCURVE",
"267 755 CURVE SMOOTH",
"245 752 OFFCURVE",
"235 734 OFFCURVE",
"235 715 CURVE SMOOTH",
"235 694 OFFCURVE",
"249 673 OFFCURVE",
"276 673 CURVE SMOOTH",
"275 673 OFFCURVE",
"548 710 OFFCURVE",
"616 719 CURVE",
"616 86 LINE",
"244 86 LINE SMOOTH",
"216 86 OFFCURVE",
"202 65 OFFCURVE",
"202 45 CURVE SMOOTH",
"202 24 OFFCURVE",
"217 0 OFFCURVE",
"248 0 CURVE SMOOTH"
);
},
{
closed = 1;
nodes = (
"691 990 OFFCURVE",
"731 1029 OFFCURVE",
"731 1080 CURVE SMOOTH",
"731 1130 OFFCURVE",
"691 1171 OFFCURVE",
"641 1171 CURVE SMOOTH",
"590 1171 OFFCURVE",
"550 1130 OFFCURVE",
"550 1080 CURVE SMOOTH",
"550 1029 OFFCURVE",
"590 990 OFFCURVE",
"641 990 CURVE SMOOTH"
);
}
);
width = 1240;
},
{
anchors = (
{
name = bottom;
position = "{620, 0}";
}
);
layerId = "F2E12B84-E402-48AA-89E7-06534AE23493";
paths = (
{
closed = 1;
nodes = (
"1004 0 LINE SMOOTH",
"1061 0 OFFCURVE",
"1085 47 OFFCURVE",
"1085 88 CURVE SMOOTH",
"1085 128 OFFCURVE",
"1062 176 OFFCURVE",
"1004 176 CURVE SMOOTH",
"792 176 LINE",
"792 759 LINE SMOOTH",
"792 799 OFFCURVE",
"760 811 OFFCURVE",
"729 808 CURVE SMOOTH",
"729 808 OFFCURVE",
"719 807 OFFCURVE",
"307 759 CURVE SMOOTH",
"255 753 OFFCURVE",
"235 717 OFFCURVE",
"235 676 CURVE SMOOTH",
"235 626 OFFCURVE",
"267 581 OFFCURVE",
"323 588 CURVE SMOOTH",
"334 589 OFFCURVE",
"451 605 OFFCURVE",
"536 613 CURVE",
"536 176 LINE",
"288 176 LINE SMOOTH",
"226 176 OFFCURVE",
"202 130 OFFCURVE",
"202 90 CURVE SMOOTH",
"202 49 OFFCURVE",
"227 0 OFFCURVE",
"288 0 CURVE SMOOTH"
);
},
{
closed = 1;
nodes = (
"748 953 OFFCURVE",
"824 1022 OFFCURVE",
"824 1109 CURVE SMOOTH",
"824 1193 OFFCURVE",
"748 1266 OFFCURVE",
"652 1266 CURVE SMOOTH",
"555 1266 OFFCURVE",
"479 1193 OFFCURVE",
"479 1109 CURVE SMOOTH",
"479 1022 OFFCURVE",
"555 953 OFFCURVE",
"652 953 CURVE SMOOTH"
);
}
);
width = 1240;
},
{
layerId = "440824D2-40E3-4EBC-B94D-DAF81B1E7F5E";
paths = (
{
closed = 1;
nodes = (
"723 774 LINE SMOOTH",
"728 799 OFFCURVE",
"708 811 OFFCURVE",
"687 811 CURVE SMOOTH",
"682 811 OFFCURVE",
"676 810 OFFCURVE",
"668 809 CURVE SMOOTH",
"328 765 LINE SMOOTH",
"306 762 OFFCURVE",
"296 744 OFFCURVE",
"296 725 CURVE SMOOTH",
"296 704 OFFCURVE",
"310 683 OFFCURVE",
"337 683 CURVE SMOOTH",
"338 683 OFFCURVE",
"553 708 OFFCURVE",
"621 717 CURVE",
"530 291 LINE SMOOTH",
"514 216 OFFCURVE",
"508 161 OFFCURVE",
"521 117 CURVE SMOOTH",
"538 58 OFFCURVE",
"593 -7 OFFCURVE",
"691 -7 CURVE SMOOTH",
"781 -7 OFFCURVE",
"838 48 OFFCURVE",
"862 74 CURVE SMOOTH",
"880 94 OFFCURVE",
"904 136 OFFCURVE",
"904 165 CURVE SMOOTH",
"904 191 OFFCURVE",
"889 208 OFFCURVE",
"866 208 CURVE SMOOTH",
"835 208 OFFCURVE",
"823 176 OFFCURVE",
"814 163 CURVE SMOOTH",
"805 151 OFFCURVE",
"772 82 OFFCURVE",
"700 82 CURVE SMOOTH",
"617 82 OFFCURVE",
"594 148 OFFCURVE",
"609 220 CURVE SMOOTH"
);
},
{
closed = 1;
nodes = (
"762 990 OFFCURVE",
"802 1029 OFFCURVE",
"802 1080 CURVE SMOOTH",
"802 1130 OFFCURVE",
"762 1171 OFFCURVE",
"712 1171 CURVE SMOOTH",
"661 1171 OFFCURVE",
"621 1130 OFFCURVE",
"621 1080 CURVE SMOOTH",
"621 1029 OFFCURVE",
"661 990 OFFCURVE",
"712 990 CURVE SMOOTH"
);
}
);
width = 1240;
}
);
unicode = 0069;
},
{
glyphname = idotless;
lastChange = "2017-07-28 16:49:30 +0000";
layers = (
{
anchors = (
{
name = bottom;
position = "{620, 0}";
},
{
name = ogonek;
position = "{1116, 10}";
},
{
name = top;
position = "{670, 774}";
}
);
layerId = "840BD324-B0A6-42B0-BD23-CB5E8C19394F";
paths = (
{
closed = 1;
nodes = (
"1095 0 LINE SMOOTH",
"1122 0 OFFCURVE",
"1136 22 OFFCURVE",
"1136 43 CURVE SMOOTH",
"1136 63 OFFCURVE",
"1123 86 OFFCURVE",
"1096 86 CURVE SMOOTH",
"763 86 LINE",
"763 779 LINE SMOOTH",
"763 799 OFFCURVE",
"748 811 OFFCURVE",
"727 811 CURVE SMOOTH",
"720 811 OFFCURVE",
"664 803 OFFCURVE",
"318 755 CURVE SMOOTH",
"296 752 OFFCURVE",
"286 734 OFFCURVE",
"286 715 CURVE SMOOTH",
"286 694 OFFCURVE",
"300 673 OFFCURVE",
"327 673 CURVE SMOOTH",
"326 673 OFFCURVE",
"599 710 OFFCURVE",
"667 719 CURVE",
"667 86 LINE",
"295 86 LINE SMOOTH",
"267 86 OFFCURVE",
"253 65 OFFCURVE",
"253 45 CURVE SMOOTH",
"253 24 OFFCURVE",
"268 0 OFFCURVE",
"299 0 CURVE SMOOTH"
);
}
);
width = 1240;
},
{
anchors = (
{
name = bottom;
position = "{620, 0}";
},
{
name = ogonek;
position = "{1116, 10}";
},
{
name = top;
position = "{620, 774}";
}
);
layerId = "F2E12B84-E402-48AA-89E7-06534AE23493";
paths = (
{
closed = 1;
nodes = (
"1004 0 LINE SMOOTH",
"1061 0 OFFCURVE",
"1085 47 OFFCURVE",
"1085 88 CURVE SMOOTH",
"1085 128 OFFCURVE",
"1062 176 OFFCURVE",
"1004 176 CURVE SMOOTH",
"792 176 LINE",
"792 759 LINE SMOOTH",
"792 799 OFFCURVE",
"760 811 OFFCURVE",
"729 808 CURVE SMOOTH",
"729 808 OFFCURVE",
"719 807 OFFCURVE",
"307 759 CURVE SMOOTH",
"255 753 OFFCURVE",
"235 717 OFFCURVE",
"235 676 CURVE SMOOTH",
"235 626 OFFCURVE",
"267 581 OFFCURVE",
"323 588 CURVE SMOOTH",
"334 589 OFFCURVE",
"451 605 OFFCURVE",
"536 613 CURVE",
"536 176 LINE",
"288 176 LINE SMOOTH",
"226 176 OFFCURVE",
"202 130 OFFCURVE",
"202 90 CURVE SMOOTH",
"202 49 OFFCURVE",
"227 0 OFFCURVE",
"288 0 CURVE SMOOTH"
);
}
);
width = 1240;
},
{
layerId = "440824D2-40E3-4EBC-B94D-DAF81B1E7F5E";
width = 600;
}
);
unicode = 0131;
},
{
glyphname = ij;
lastChange = "2017-07-20 14:36:09 +0000";
layers = (
{
layerId = "840BD324-B0A6-42B0-BD23-CB5E8C19394F";
paths = (
{
closed = 1;
nodes = (
"838 0 OFFCURVE",
"952 138 OFFCURVE",
"952 321 CURVE",
"876 321 LINE",
"876 168 OFFCURVE",
"771 86 OFFCURVE",
"633 86 CURVE SMOOTH",
"499 86 OFFCURVE",
"413 156 OFFCURVE",
"413 332 CURVE SMOOTH",
"413 774 LINE SMOOTH",
"413 798 OFFCURVE",
"398 815 OFFCURVE",
"374 813 CURVE SMOOTH",
"147 793 LINE SMOOTH",
"106 789 OFFCURVE",
"96 773 OFFCURVE",
"96 754 CURVE SMOOTH",
"96 733 OFFCURVE",
"110 708 OFFCURVE",
"147 711 CURVE SMOOTH",
"317 727 LINE",
"317 332 LINE SMOOTH",
"317 113 OFFCURVE",
"426 0 OFFCURVE",
"633 0 CURVE SMOOTH"
);
},
{
closed = 1;
nodes = (
"829 -309 OFFCURVE",
"972 -198 OFFCURVE",
"972 50 CURVE SMOOTH",
"972 784 LINE SMOOTH",
"972 805 OFFCURVE",
"956 815 OFFCURVE",
"936 813 CURVE SMOOTH",
"700 792 LINE SMOOTH",
"662 789 OFFCURVE",
"649 772 OFFCURVE",
"649 753 CURVE SMOOTH",
"649 726 OFFCURVE",
"665 706 OFFCURVE",
"702 709 CURVE SMOOTH",
"876 724 LINE",
"876 50 LINE SMOOTH",
"876 -155 OFFCURVE",
"766 -220 OFFCURVE",
"591 -220 CURVE SMOOTH",
"552 -220 OFFCURVE",
"533 -243 OFFCURVE",
"533 -265 CURVE SMOOTH",
"533 -287 OFFCURVE",
"551 -309 OFFCURVE",
"584 -309 CURVE SMOOTH"
);
},
{
closed = 1;
nodes = (
"416 990 OFFCURVE",
"456 1029 OFFCURVE",
"456 1080 CURVE SMOOTH",
"456 1130 OFFCURVE",
"416 1171 OFFCURVE",
"366 1171 CURVE SMOOTH",
"315 1171 OFFCURVE",
"275 1130 OFFCURVE",
"275 1080 CURVE SMOOTH",
"275 1029 OFFCURVE",
"315 990 OFFCURVE",
"366 990 CURVE SMOOTH"
);
},
{
closed = 1;
nodes = (
"935 990 OFFCURVE",
"975 1029 OFFCURVE",
"975 1080 CURVE SMOOTH",
"975 1130 OFFCURVE",
"935 1171 OFFCURVE",
"885 1171 CURVE SMOOTH",
"834 1171 OFFCURVE",
"794 1130 OFFCURVE",
"794 1080 CURVE SMOOTH",
"794 1029 OFFCURVE",
"834 990 OFFCURVE",
"885 990 CURVE SMOOTH"
);
}
);
width = 1240;
},
{
layerId = "F2E12B84-E402-48AA-89E7-06534AE23493";
paths = (
{
closed = 1;
nodes = (
"848 0 OFFCURVE",
"942 138 OFFCURVE",
"942 321 CURVE",
"825 371 LINE",
"825 248 OFFCURVE",
"761 166 OFFCURVE",
"633 166 CURVE SMOOTH",
"539 166 OFFCURVE",
"473 236 OFFCURVE",
"473 382 CURVE SMOOTH",
"473 774 LINE SMOOTH",
"473 798 OFFCURVE",
"458 815 OFFCURVE",
"434 813 CURVE SMOOTH",
"167 794 LINE SMOOTH",
"116 790 OFFCURVE",
"96 753 OFFCURVE",
"96 714 CURVE SMOOTH",
"96 673 OFFCURVE",
"120 629 OFFCURVE",
"167 632 CURVE SMOOTH",
"257 637 LINE",
"257 372 LINE SMOOTH",
"257 113 OFFCURVE",
"396 0 OFFCURVE",
"633 0 CURVE SMOOTH"
);
},
{
closed = 1;
nodes = (
"829 -339 OFFCURVE",
"1032 -218 OFFCURVE",
"1032 50 CURVE SMOOTH",
"1032 784 LINE SMOOTH",
"1032 805 OFFCURVE",
"1016 814 OFFCURVE",
"996 813 CURVE SMOOTH",
"720 793 LINE SMOOTH",
"672 790 OFFCURVE",
"649 752 OFFCURVE",
"649 713 CURVE SMOOTH",
"649 666 OFFCURVE",
"675 626 OFFCURVE",
"722 630 CURVE SMOOTH",
"825 638 LINE",
"825 50 LINE SMOOTH",
"825 -85 OFFCURVE",
"726 -160 OFFCURVE",
"571 -160 CURVE SMOOTH",
"512 -160 OFFCURVE",
"490 -215 OFFCURVE",
"490 -245 CURVE SMOOTH",
"490 -273 OFFCURVE",
"511 -339 OFFCURVE",
"564 -339 CURVE SMOOTH"
);
},
{
closed = 1;
nodes = (
"999 968 OFFCURVE",
"1068 1030 OFFCURVE",
"1068 1109 CURVE SMOOTH",
"1068 1185 OFFCURVE",
"999 1251 OFFCURVE",
"912 1251 CURVE SMOOTH",
"824 1251 OFFCURVE",
"755 1185 OFFCURVE",
"755 1109 CURVE SMOOTH",
"755 1030 OFFCURVE",
"824 968 OFFCURVE",
"912 968 CURVE SMOOTH"
);
},
{
closed = 1;
nodes = (
"459 968 OFFCURVE",
"528 1030 OFFCURVE",
"528 1109 CURVE SMOOTH",
"528 1185 OFFCURVE",
"459 1251 OFFCURVE",
"372 1251 CURVE SMOOTH",
"284 1251 OFFCURVE",
"215 1185 OFFCURVE",
"215 1109 CURVE SMOOTH",
"215 1030 OFFCURVE",
"284 968 OFFCURVE",
"372 968 CURVE SMOOTH"
);
}
);
width = 1240;
},
{
layerId = "440824D2-40E3-4EBC-B94D-DAF81B1E7F5E";
width = 600;
}
);
unicode = 0133;
},
{
glyphname = j;
lastChange = "2017-07-15 18:30:59 +0000";
layers = (
{
layerId = "840BD324-B0A6-42B0-BD23-CB5E8C19394F";
paths = (
{
closed = 1;
nodes = (
"635 -310 OFFCURVE",
"825 -123 OFFCURVE",
"825 209 CURVE SMOOTH",
"825 784 LINE SMOOTH",
"825 805 OFFCURVE",
"809 815 OFFCURVE",
"789 813 CURVE SMOOTH",
"269 763 LINE SMOOTH",
"243 761 OFFCURVE",
"228 741 OFFCURVE",
"228 721 CURVE SMOOTH",
"228 700 OFFCURVE",
"244 678 OFFCURVE",
"273 681 CURVE SMOOTH",
"729 725 LINE",
"729 209 LINE SMOOTH",
"729 -66 OFFCURVE",
"573 -219 OFFCURVE",
"297 -219 CURVE SMOOTH",
"265 -219 OFFCURVE",
"246 -243 OFFCURVE",
"246 -265 CURVE SMOOTH",
"246 -287 OFFCURVE",
"264 -310 OFFCURVE",
"297 -310 CURVE SMOOTH"
);
},
{
closed = 1;
nodes = (
"789 990 OFFCURVE",
"829 1029 OFFCURVE",
"829 1080 CURVE SMOOTH",
"829 1130 OFFCURVE",
"789 1171 OFFCURVE",
"739 1171 CURVE SMOOTH",
"688 1171 OFFCURVE",
"648 1130 OFFCURVE",
"648 1080 CURVE SMOOTH",
"648 1029 OFFCURVE",
"688 990 OFFCURVE",
"739 990 CURVE SMOOTH"
);
}
);
width = 1240;
},
{
layerId = "F2E12B84-E402-48AA-89E7-06534AE23493";
paths = (
{
closed = 1;
nodes = (
"694 -325 OFFCURVE",
"895 -132 OFFCURVE",
"895 229 CURVE SMOOTH",
"895 750 LINE SMOOTH",
"895 790 OFFCURVE",
"869 814 OFFCURVE",
"827 811 CURVE SMOOTH",
"305 769 LINE SMOOTH",
"251 765 OFFCURVE",
"227 720 OFFCURVE",
"228 679 CURVE SMOOTH",
"229 625 OFFCURVE",
"266 576 OFFCURVE",
"334 582 CURVE SMOOTH",
"649 610 LINE",
"649 209 LINE SMOOTH",
"649 -6 OFFCURVE",
"532 -124 OFFCURVE",
"337 -124 CURVE SMOOTH",
"266 -124 OFFCURVE",
"226 -172 OFFCURVE",
"226 -225 CURVE SMOOTH",
"226 -274 OFFCURVE",
"266 -325 OFFCURVE",
"337 -325 CURVE SMOOTH"
);
},
{
closed = 1;
nodes = (
"834 953 OFFCURVE",
"910 1022 OFFCURVE",
"910 1109 CURVE SMOOTH",
"910 1193 OFFCURVE",
"834 1266 OFFCURVE",
"738 1266 CURVE SMOOTH",
"641 1266 OFFCURVE",
"565 1193 OFFCURVE",
"565 1109 CURVE SMOOTH",
"565 1022 OFFCURVE",
"641 953 OFFCURVE",
"738 953 CURVE SMOOTH"
);
}
);
width = 1240;
},
{
layerId = "440824D2-40E3-4EBC-B94D-DAF81B1E7F5E";
width = 600;
}
);
unicode = 006A;
},
{
glyphname = jdotless;
lastChange = "2017-07-28 16:49:49 +0000";
layers = (
{
anchors = (
{
name = bottom;
position = "{620, 0}";
},
{
name = top;
position = "{767, 774}";
}
);
layerId = "840BD324-B0A6-42B0-BD23-CB5E8C19394F";
paths = (
{
closed = 1;
nodes = (
"635 -310 OFFCURVE",
"825 -123 OFFCURVE",
"825 209 CURVE SMOOTH",
"825 784 LINE SMOOTH",
"825 805 OFFCURVE",
"809 815 OFFCURVE",
"789 813 CURVE SMOOTH",
"269 763 LINE SMOOTH",
"243 761 OFFCURVE",
"228 741 OFFCURVE",
"228 721 CURVE SMOOTH",
"228 700 OFFCURVE",
"244 678 OFFCURVE",
"273 681 CURVE SMOOTH",
"729 725 LINE",
"729 209 LINE SMOOTH",
"729 -66 OFFCURVE",
"573 -221 OFFCURVE",
"297 -221 CURVE SMOOTH",
"265 -221 OFFCURVE",
"246 -244 OFFCURVE",
"246 -266 CURVE SMOOTH",
"246 -288 OFFCURVE",
"264 -310 OFFCURVE",
"297 -310 CURVE SMOOTH"
);
}
);
width = 1240;
},
{
anchors = (
{
name = bottom;
position = "{620, 0}";
},
{
name = top;
position = "{620, 774}";
}
);
layerId = "F2E12B84-E402-48AA-89E7-06534AE23493";
paths = (
{
closed = 1;
nodes = (
"694 -325 OFFCURVE",
"895 -132 OFFCURVE",
"895 229 CURVE SMOOTH",
"895 750 LINE SMOOTH",
"895 790 OFFCURVE",
"869 814 OFFCURVE",
"827 811 CURVE SMOOTH",
"305 769 LINE SMOOTH",
"251 765 OFFCURVE",
"227 720 OFFCURVE",
"228 679 CURVE SMOOTH",
"229 625 OFFCURVE",
"266 576 OFFCURVE",
"334 582 CURVE SMOOTH",
"649 610 LINE",
"649 209 LINE SMOOTH",
"649 -6 OFFCURVE",
"532 -124 OFFCURVE",
"337 -124 CURVE SMOOTH",
"266 -124 OFFCURVE",
"226 -172 OFFCURVE",
"226 -225 CURVE SMOOTH",
"226 -274 OFFCURVE",
"266 -325 OFFCURVE",
"337 -325 CURVE SMOOTH"
);
}
);
width = 1240;
},
{
layerId = "440824D2-40E3-4EBC-B94D-DAF81B1E7F5E";
width = 600;
}
);
unicode = 0237;
},
{
glyphname = k;
lastChange = "2017-08-06 21:08:44 +0000";
layers = (
{
anchors = (
{
name = bottom;
position = "{620, -100}";
},
{
name = top;
position = "{620, 774}";
}
);
layerId = "840BD324-B0A6-42B0-BD23-CB5E8C19394F";
paths = (
{
closed = 1;
nodes = (
"514 0 LINE SMOOTH",
"541 0 OFFCURVE",
"554 20 OFFCURVE",
"554 41 CURVE SMOOTH",
"554 61 OFFCURVE",
"541 82 OFFCURVE",
"515 82 CURVE SMOOTH",
"424 82 LINE",
"424 1150 LINE SMOOTH",
"424 1170 OFFCURVE",
"409 1182 OFFCURVE",
"388 1182 CURVE SMOOTH",
"382 1182 OFFCURVE",
"356 1177 OFFCURVE",
"142 1139 CURVE SMOOTH",
"120 1135 OFFCURVE",
"110 1116 OFFCURVE",
"110 1092 CURVE SMOOTH",
"110 1071 OFFCURVE",
"135 1052 OFFCURVE",
"165 1057 CURVE SMOOTH",
"328 1082 LINE",
"328 82 LINE",
"196 82 LINE SMOOTH",
"168 82 OFFCURVE",
"154 62 OFFCURVE",
"154 42 CURVE SMOOTH",
"154 21 OFFCURVE",
"170 0 OFFCURVE",
"200 0 CURVE SMOOTH"
);
},
{
closed = 1;
nodes = (
"1048 0 LINE SMOOTH",
"1074 0 OFFCURVE",
"1088 20 OFFCURVE",
"1088 41 CURVE SMOOTH",
"1088 61 OFFCURVE",
"1075 82 OFFCURVE",
"1048 82 CURVE SMOOTH",
"961 82 LINE",
"620 446 LINE",
"550 400 LINE",
"849 82 LINE",
"749 82 LINE SMOOTH",
"718 82 OFFCURVE",
"703 62 OFFCURVE",
"703 41 CURVE SMOOTH",
"703 21 OFFCURVE",
"717 0 OFFCURVE",
"745 0 CURVE SMOOTH"
);
},
{
closed = 1;
nodes = (
"937 692 LINE",
"1026 692 LINE SMOOTH",
"1048 692 OFFCURVE",
"1066 711 OFFCURVE",
"1066 729 CURVE SMOOTH",
"1066 753 OFFCURVE",
"1054 775 OFFCURVE",
"1025 775 CURVE SMOOTH",
"718 775 LINE SMOOTH",
"687 775 OFFCURVE",
"672 754 OFFCURVE",
"672 733 CURVE SMOOTH",
"672 712 OFFCURVE",
"686 692 OFFCURVE",
"714 692 CURVE SMOOTH",
"807 692 LINE",
"424 387 LINE",
"424 284 LINE"
);
}
);
width = 1240;
},
{
anchors = (
{
name = bottom;
position = "{620, 0}";
},
{
name = top;
position = "{620, 774}";
}
);
layerId = "F2E12B84-E402-48AA-89E7-06534AE23493";
paths = (
{
closed = 1;
nodes = (
"484 0 LINE SMOOTH",
"551 0 OFFCURVE",
"584 48 OFFCURVE",
"584 89 CURVE SMOOTH",
"584 129 OFFCURVE",
"552 176 OFFCURVE",
"485 176 CURVE SMOOTH",
"477 176 LINE",
"474 1121 LINE SMOOTH",
"474 1154 OFFCURVE",
"451 1181 OFFCURVE",
"413 1178 CURVE SMOOTH",
"399 1177 OFFCURVE",
"369 1176 OFFCURVE",
"164 1159 CURVE SMOOTH",
"110 1155 OFFCURVE",
"72 1125 OFFCURVE",
"72 1082 CURVE SMOOTH",
"72 1035 OFFCURVE",
"107 999 OFFCURVE",
"172 1002 CURVE SMOOTH",
"228 1005 LINE",
"226 176 LINE",
"186 176 LINE SMOOTH",
"128 176 OFFCURVE",
"94 130 OFFCURVE",
"94 90 CURVE SMOOTH",
"94 49 OFFCURVE",
"130 0 OFFCURVE",
"190 0 CURVE SMOOTH"
);
},
{
closed = 1;
nodes = (
"1056 0 LINE SMOOTH",
"1122 0 OFFCURVE",
"1156 47 OFFCURVE",
"1156 88 CURVE SMOOTH",
"1156 128 OFFCURVE",
"1124 176 OFFCURVE",
"1056 176 CURVE SMOOTH",
"1031 176 LINE",
"780 506 LINE",
"600 410 LINE",
"789 176 LINE",
"769 176 LINE SMOOTH",
"708 176 OFFCURVE",
"673 129 OFFCURVE",
"673 88 CURVE SMOOTH",
"673 48 OFFCURVE",
"707 0 OFFCURVE",
"765 0 CURVE SMOOTH"
);
},
{
closed = 1;
nodes = (
"947 602 LINE",
"996 602 LINE SMOOTH",
"1064 602 OFFCURVE",
"1096 647 OFFCURVE",
"1096 689 CURVE SMOOTH",
"1096 729 OFFCURVE",
"1064 775 OFFCURVE",
"995 775 CURVE SMOOTH",
"678 775 LINE SMOOTH",
"617 775 OFFCURVE",
"582 729 OFFCURVE",
"582 688 CURVE SMOOTH",
"582 647 OFFCURVE",
"616 602 OFFCURVE",
"678 602 CURVE SMOOTH",
"693 602 LINE",
"463 410 LINE",
"473 217 LINE"
);
}
);
width = 1240;
},
{
layerId = "440824D2-40E3-4EBC-B94D-DAF81B1E7F5E";
width = 600;
}
);
unicode = 006B;
},
